titillium_semibold-upright.sfdir
StartChar: exclam
Encoding: 33 33 145
Width: 250
Flags: MW
HStem: 0 135<70 180 70 180>
VStem: 71 107.5
LayerCount: 2
Back
Fore
SplineSet
72 246 m 1
 70 700 l 1
 180 700 l 1
 177 246 l 1
 72 246 l 1
70 0 m 1
 70 135 l 1
 180 135 l 1
 180 0 l 1
 70 0 l 1
EndSplineSet
EndChar
StartChar: quotedbl
Encoding: 34 34 228
Width: 370
Flags: MW
HStem: 450 241<58 152 58 58 218 218 218 312>
VStem: 56 98 216 98
LayerCount: 2
Back
Fore
SplineSet
152 450 m 1
 58 450 l 1
 54 691 l 1
 156 691 l 1
 152 450 l 1
312 450 m 1
 218 450 l 1
 214 691 l 1
 316 691 l 1
 312 450 l 1
EndSplineSet
EndChar
StartChar: numbersign
Encoding: 35 35 150
Width: 560
Flags: MW
HStem: 0 21G<122 217 122 122 343 438 343 343> 171 92<20 122 20 122 217 343 438 540> 400 91<20 122 20 122 217 343 438 540>
VStem: 122 95<0 171 0 171 263 400 491 663> 343 95<0 171 0 171 263 400 491 663>
LayerCount: 2
Back
Fore
SplineSet
540 171 m 1
 438 171 l 1
 438 0 l 1
 343 0 l 1
 343 171 l 1
 217 171 l 1
 217 0 l 1
 122 0 l 1
 122 171 l 1
 20 171 l 1
 20 263 l 1
 122 263 l 1
 122 400 l 1
 20 400 l 1
 20 491 l 1
 122 491 l 1
 122 663 l 1
 217 663 l 1
 217 491 l 1
 343 491 l 1
 343 663 l 1
 438 663 l 1
 438 491 l 1
 540 491 l 1
 540 400 l 1
 438 400 l 1
 438 263 l 1
 540 263 l 1
 540 171 l 1
343 263 m 1
 343 400 l 1
 217 400 l 1
 217 263 l 1
 343 263 l 1
EndSplineSet
EndChar
StartChar: dollar
Encoding: 36 36 144
Width: 560
Flags: MW
HStem: -11 94<272 276 276 311 270 348.5> -10 21G<252 252> -4 21G<181 181> 577 94<214.5 290> 664 21G<378 378>
VStem: 73 108<465.5 521.5> 379 108<149 210.5>
LayerCount: 2
Back
Fore
SplineSet
467 648 m 1x8e
 462 564 l 1
 462 564 412 570 361 574 c 1
 325 381 l 1
 438 344 487 309 487 193 c 0
 487 55 421 -11 276 -11 c 0
 268 -11 260 -11 252 -10 c 1x8e
 232 -119 l 1
 160 -119 l 1
 181 -4 l 1x2e
 128 1 85 10 85 10 c 1
 91 96 l 1
 91 96 145 90 198 86 c 1
 238 297 l 1
 126 332 73 377 73 476 c 0
 73 612 143 671 286 671 c 0
 293 671 300 671 308 670 c 1x56
 328 775 l 1
 399 775 l 1
 378 664 l 1
 428 657 467 648 467 648 c 1x8e
379 184 m 0
 379 237 358 258 306 277 c 1
 270 83 l 1
 276 83 l 2
 346 83 379 114 379 184 c 0
181 490 m 0x96
 181 441 201 423 258 403 c 1
 290 577 l 1
 214 576 181 553 181 490 c 0x96
EndSplineSet
EndChar
StartChar: percent
Encoding: 37 37 252
Width: 560
Flags: MW
HStem: 0 68<408 434 408 457> 219 67<408 434> 483 151<126 152> 692 21G<424 424> 695 20G<352 352>
VStem: 105 68<533.5 585> 305 82<118 170 118 192.5> 455 81<118 170>
LayerCount: 2
Back
Fore
SplineSet
139 634 m 0xef
 165 634 173 611 173 559 c 0
 173 507 165 483 139 483 c 0
 113 483 105 508 105 559 c 0
 105 611 113 634 139 634 c 0xef
132 6 m 1
 352 715 l 1xef
 424 692 l 1xf7
 204 -17 l 1
 132 6 l 1
23 559 m 0
 23 462 66 415 139 415 c 0
 212 415 255 462 255 559 c 0
 255 656 212 701 139 701 c 0
 66 701 23 656 23 559 c 0
305 144 m 0
 305 241 348 286 421 286 c 0
 494 286 536 241 536 144 c 0
 536 47 493 0 421 0 c 0
 348 0 305 47 305 144 c 0
387 144 m 0
 387 92 395 68 421 68 c 0
 447 68 455 92 455 144 c 0
 455 196 447 219 421 219 c 0
 395 219 387 196 387 144 c 0
EndSplineSet
EndChar
StartChar: ampersand
Encoding: 38 38 247
Width: 638
Flags: MW
HStem: -11 93<214.5 281 214.5 297> 605 91<269 317.5>
VStem: 25 112<163 223 163 244.5> 114 112<506.5 548.5 503 591> 361 112<498 549> 475 98<356 356>
LayerCount: 2
Back
Fore
SplineSet
293 696 m 0xe8
 410 696 473 650 473 533 c 0xe8
 473 463 444 408 338 353 c 1
 448 239 l 1
 461 267 471 324 475 356 c 1
 573 356 l 1
 571 298 546 212 521 166 c 1
 533 155 611 76 626 62 c 1
 626 62 559 -10 555 -10 c 2
 460 84 l 1
 402 21 346 -11 248 -11 c 0
 102 -11 25 66 25 201 c 0xe4
 25 288 69 354 168 395 c 1
 129 446 114 480 114 533 c 0xd8
 114 649 177 696 293 696 c 0xe8
252 82 m 0
 310 82 352 102 389 147 c 1
 223 329 l 1
 158 296 137 252 137 194 c 0
 137 132 177 82 252 82 c 0
226 527 m 0xd8
 226 479 238 458 283 413 c 1
 337 441 361 470 361 526 c 0
 361 572 342 605 293 605 c 0
 245 605 226 570 226 527 c 0xd8
EndSplineSet
EndChar
StartChar: quotesingle
Encoding: 39 39 229
Width: 210
Flags: MW
HStem: 450 241<58 152 58 58>
VStem: 56 98
LayerCount: 2
Back
Fore
SplineSet
152 450 m 1
 58 450 l 1
 54 691 l 1
 156 691 l 1
 152 450 l 1
EndSplineSet
EndChar
StartChar: parenleft
Encoding: 40 40 230
Width: 269
Flags: MW
HStem: -124 872<142 243 142 243>
VStem: 40 112<208 394 208 408.5>
LayerCount: 2
Back
Fore
SplineSet
142 748 m 1
 243 748 l 1
 243 748 152 487 152 301 c 0
 152 115 243 -124 243 -124 c 1
 142 -124 l 1
 142 -124 40 86 40 301 c 0
 40 516 142 748 142 748 c 1
EndSplineSet
Substitution2: "'case' Case-Sensitive Forms in Latin lookup 4 subtable" parenleft.cap
EndChar
StartChar: parenright
Encoding: 41 41 231
Width: 269
Flags: MW
HStem: -118 872<26 127 26 127>
VStem: 117 112<236 422>
LayerCount: 2
Back
Fore
SplineSet
127 -118 m 1
 26 -118 l 1
 26 -118 117 143 117 329 c 0
 117 515 26 754 26 754 c 1
 127 754 l 1
 127 754 229 544 229 329 c 0
 229 114 127 -118 127 -118 c 1
EndSplineSet
Substitution2: "'case' Case-Sensitive Forms in Latin lookup 4 subtable" parenright.cap
EndChar
StartChar: asterisk
Encoding: 42 42 248
Width: 406
Flags: MW
HStem: 504 64<248 374 248 374 247 374> 693 20G<223 223>
VStem: 38 336<458 504>
LayerCount: 2
Back
Fore
SplineSet
374 504 m 1
 247 504 l 1
 286 382 l 1
 224 363 l 1
 183 486 l 1
 78 407 l 1
 38 458 l 1
 144 537 l 1
 40 611 l 1
 80 665 l 1
 183 590 l 1
 223 713 l 1
 287 692 l 1
 248 568 l 1
 374 568 l 1
 374 504 l 1
EndSplineSet
EndChar
StartChar: plus
Encoding: 43 43 253
Width: 560
Flags: MW
HStem: 202 98<52 230 52 230 328 508>
VStem: 230 98<21 202 21 202 300 479>
LayerCount: 2
Back
Fore
SplineSet
52 202 m 1
 52 300 l 1
 230 300 l 1
 230 479 l 1
 328 479 l 1
 328 300 l 1
 508 300 l 1
 508 202 l 1
 328 202 l 1
 328 21 l 1
 230 21 l 1
 230 202 l 1
 52 202 l 1
EndSplineSet
EndChar
StartChar: comma
Encoding: 44 44 232
Width: 227
Flags: MW
HStem: -130 264<66 114 27 181>
VStem: 27 154
LayerCount: 2
Back
Fore
SplineSet
114 -130 m 1
 27 -130 l 1
 66 134 l 1
 181 134 l 1
 114 -130 l 1
EndSplineSet
EndChar
StartChar: hyphen
Encoding: 45 45 233
Width: 369
Flags: MW
HStem: 217 98<55 313 55 313>
VStem: 55 258<217 315 217 315>
LayerCount: 2
Back
Fore
SplineSet
55 217 m 1
 55 315 l 1
 313 315 l 1
 313 217 l 1
 55 217 l 1
EndSplineSet
EndChar
StartChar: period
Encoding: 46 46 234
Width: 221
Flags: MW
HStem: 0 135<55 165 55 165>
VStem: 55 110<0 135 0 135>
LayerCount: 2
Back
Fore
SplineSet
55 0 m 1
 55 135 l 1
 165 135 l 1
 165 0 l 1
 55 0 l 1
EndSplineSet
EndChar
StartChar: slash
Encoding: 47 47 385
Width: 416
Flags: MW
HStem: 693 20G<291 291>
VStem: 26 364
LayerCount: 2
Back
Fore
SplineSet
125 -18 m 1
 26 18 l 1
 291 713 l 1
 390 678 l 1
 125 -18 l 1
EndSplineSet
Substitution2: "'frac' Diagonal Fractions in Latin lookup 3 subtable" fraction
EndChar
StartChar: zero
Encoding: 48 48 414
Width: 560
Flags: MW
HStem: -11 96<231 330 231 362> 576 95<237 324>
VStem: 40 114<247 417 247 456.5> 406 114<244.5 416.5>
LayerCount: 2
Back
Fore
SplineSet
280 671 m 0
 430 671 520 590 520 324 c 0
 520 89 444 -11 280 -11 c 0
 117 -11 40 88 40 323 c 0
 40 590 131 671 280 671 c 0
280 576 m 0
 194 576 154 511 154 323 c 0
 154 171 181 85 281 85 c 0
 379 85 406 166 406 323 c 0
 406 510 368 576 280 576 c 0
EndSplineSet
Substitution2: "'frac' Diagonal Fractions in Latin lookup 1 subtable" zerosuperior
EndChar
StartChar: one
Encoding: 49 49 415
Width: 560
Flags: MW
HStem: 0 21G<293 404 293 293>
VStem: 293 111<0 531 531 531>
LayerCount: 2
Back
Fore
SplineSet
92 518 m 1
 302 660 l 1
 404 660 l 1
 404 0 l 1
 293 0 l 1
 293 531 l 1
 144 431 l 1
 92 518 l 1
EndSplineSet
Substitution2: "'frac' Diagonal Fractions in Latin lookup 1 subtable" onesuperior
EndChar
StartChar: two
Encoding: 50 50 444
Width: 560
Flags: MW
HStem: 0 96<193 492 193 492> 576 95<225 290.5>
VStem: 365 113<439.5 510>
LayerCount: 2
Back
Fore
SplineSet
492 0 m 1
 68 0 l 1
 68 91 l 1
 234 264 l 2
 324 358 365 406 365 473 c 0
 365 547 329 576 252 576 c 0
 183 576 78 558 78 558 c 1
 72 642 l 1
 72 642 180 671 270 671 c 0
 397 671 478 619 478 488 c 0
 478 378 423 315 337 234 c 2
 193 96 l 1
 492 96 l 1
 492 0 l 1
EndSplineSet
Substitution2: "'frac' Diagonal Fractions in Latin lookup 1 subtable" twosuperior
EndChar
StartChar: three
Encoding: 51 51 416
Width: 560
Flags: MW
HStem: -11 96<227 298.5 211 348.5> 289 90 576 95<218.5 293.5>
VStem: 364 114<457.5 513> 378 114<156 225.5>
LayerCount: 2
Back
Fore
SplineSet
76 561 m 1xe8
 70 642 l 1
 70 642 177 671 260 671 c 0
 416 671 478 614 478 494 c 0xf0
 478 421 448 381 393 349 c 1
 453 322 492 291 492 195 c 0
 492 58 421 -11 276 -11 c 0
 178 -11 60 18 60 18 c 1
 71 99 l 1
 71 99 161 85 261 85 c 0
 336 85 378 120 378 192 c 0xe8
 378 259 332 288 268 289 c 2
 139 289 l 1
 139 376 l 1
 268 382 l 2
 315 384 364 428 364 478 c 0xf0
 364 548 334 576 253 576 c 0
 171 576 76 561 76 561 c 1xe8
EndSplineSet
Substitution2: "'frac' Diagonal Fractions in Latin lookup 1 subtable" threesuperior
EndChar
StartChar: four
Encoding: 52 52 445
Width: 560
Flags: MW
HStem: -3 214<155 337 155 447> 118 93<155 337 155 337 447 516>
VStem: 337 110<-3 118 -3 118 211 406>
LayerCount: 2
Back
Fore
SplineSet
337 -3 m 1xa0
 337 118 l 1
 45 118 l 1
 45 199 l 1
 225 660 l 1
 345 660 l 1
 155 211 l 1
 337 211 l 1
 337 406 l 1
 447 406 l 1
 447 211 l 1
 516 211 l 1
 516 118 l 1
 447 118 l 1x60
 447 -3 l 1
 337 -3 l 1xa0
EndSplineSet
Substitution2: "'frac' Diagonal Fractions in Latin lookup 1 subtable" foursuperior
EndChar
StartChar: five
Encoding: 53 53 446
Width: 560
Flags: MW
HStem: -11 96<230 306 220.5 345.5> 320 96<266 313.5> 565 96<182 480 182 182>
VStem: 389 114<170.5 251>
LayerCount: 2
Back
Fore
SplineSet
94 661 m 1
 480 661 l 1
 480 565 l 1
 182 565 l 1
 164 384 l 1
 164 384 235 416 297 416 c 0
 420 416 503 366 503 216 c 0
 503 62 415 -11 276 -11 c 0
 184 -11 59 24 59 24 c 1
 71 106 l 1
 71 106 171 85 270 85 c 0
 342 85 389 131 389 210 c 0
 389 292 347 320 280 320 c 0
 206 320 145 291 145 291 c 1
 73 308 l 1
 94 661 l 1
EndSplineSet
Substitution2: "'frac' Diagonal Fractions in Latin lookup 1 subtable" fivesuperior
EndChar
StartChar: six
Encoding: 54 54 213
Width: 560
Flags: MW
HStem: -11 96<246.5 326.5 246.5 362.5> 320 96<269.5 327> 576 95<261.5 346 232 348.5>
VStem: 46 114<222 280.5 222 381 222 443.5> 406 114<169.5 247.5>
LayerCount: 2
Back
Fore
SplineSet
495 651 m 1
 486 560 l 1
 486 560 388 576 309 576 c 0
 214 576 170 509 160 381 c 1
 160 381 239 416 300 416 c 0
 437 416 520 354 520 210 c 0
 520 62 435 -11 290 -11 c 0
 126 -11 46 99 46 306 c 0
 46 581 155 671 309 671 c 0
 383 671 495 651 495 651 c 1
291 320 m 0
 229 320 162 293 162 293 c 2
 161 289 160 283 160 278 c 0
 160 166 203 85 290 85 c 0
 363 85 406 129 406 210 c 0
 406 285 363 320 291 320 c 0
EndSplineSet
Substitution2: "'frac' Diagonal Fractions in Latin lookup 1 subtable" sixsuperior
EndChar
StartChar: seven
Encoding: 55 55 417
Width: 560
Flags: MW
HStem: 564 96<78 484 78 373>
VStem: 373 111<528 564 564 564>
LayerCount: 2
Back
Fore
SplineSet
78 564 m 1
 78 660 l 1
 484 660 l 1
 484 524 l 1
 244 -16 l 1
 141 15 l 1
 373 528 l 1
 373 564 l 1
 78 564 l 1
EndSplineSet
Substitution2: "'frac' Diagonal Fractions in Latin lookup 1 subtable" sevensuperior
EndChar
StartChar: eight
Encoding: 56 56 418
Width: 560
Flags: MW
HStem: -13 96<240 317 240 347> 289 93<231 325 231 325> 576 96<243 316>
VStem: 34 113<155 217 155 219.5> 45 113<458 510.5 456.5 553> 402 113<456.5 510> 412 113<156 220>
LayerCount: 2
Back
Fore
SplineSet
279 672 m 0xec
 414 672 515 611 515 495 c 0xf4
 515 413 492 383 426 342 c 1
 487 311 525 267 525 186 c 0
 525 45 416 -13 278 -13 c 0
 142 -13 34 37 34 175 c 0xf2
 34 264 79 309 131 342 c 1
 69 383 45 420 45 496 c 0
 45 610 142 672 279 672 c 0xec
278 83 m 0xf2
 356 83 412 118 412 194 c 0
 412 246 375 273 325 289 c 1
 231 289 l 1
 178 272 147 242 147 192 c 0
 147 118 202 83 278 83 c 0xf2
279 576 m 0xec
 207 576 158 542 158 479 c 0
 158 434 185 404 231 382 c 1
 325 382 l 1
 372 404 402 434 402 479 c 0
 402 541 353 576 279 576 c 0xec
EndSplineSet
Substitution2: "'frac' Diagonal Fractions in Latin lookup 1 subtable" eightsuperior
EndChar
StartChar: nine
Encoding: 57 57 214
Width: 560
Flags: MW
HStem: -11 21G<211 326.5> -11 102<211 297 209 326.5> 243 100<230.5 284> 570 101<235.5 313.5>
VStem: 38 115<415.5 490 415.5 523.5> 398 114<365 426>
LayerCount: 2
Back
Fore
SplineSet
61 11 m 1xbc
 72 107 l 1
 72 107 170 91 248 91 c 0
 346 91 397 156 397 274 c 1
 397 274 312 243 256 243 c 0
 125 243 38 311 38 453 c 0
 38 594 137 671 269 671 c 0
 427 671 512 556 512 331 c 0
 512 72 405 -11 248 -11 c 0x7c
 174 -11 61 11 61 11 c 1xbc
265 343 m 0
 324 343 398 365 398 365 c 1
 398 487 357 570 270 570 c 0
 201 570 153 527 153 453 c 0
 153 378 196 343 265 343 c 0
EndSplineSet
Substitution2: "'frac' Diagonal Fractions in Latin lookup 1 subtable" ninesuperior
EndChar
StartChar: colon
Encoding: 58 58 235
Width: 221
Flags: MW
HStem: 0 135<55 165 55 165> 310 135<55 165 55 165>
VStem: 55 110<0 135 0 135 310 445>
LayerCount: 2
Back
Fore
SplineSet
55 310 m 1
 55 445 l 1
 165 445 l 1
 165 310 l 1
 55 310 l 1
55 0 m 1
 55 135 l 1
 165 135 l 1
 165 0 l 1
 55 0 l 1
EndSplineSet
EndChar
StartChar: semicolon
Encoding: 59 59 236
Width: 247
Flags: MW
HStem: 310 135<72 182 72 182>
VStem: 72 110<310 445 310 445>
LayerCount: 2
Back
Fore
SplineSet
35 -130 m 1
 122 -130 l 1
 189 134 l 1
 74 134 l 1
 35 -130 l 1
72 310 m 1
 72 445 l 1
 182 445 l 1
 182 310 l 1
 72 310 l 1
EndSplineSet
EndChar
StartChar: less
Encoding: 60 60 216
Width: 560
Flags: MW
HStem: 11 477<475 475>
VStem: 64 411<11 296 11 296>
LayerCount: 2
Back
Fore
SplineSet
475 377 m 1
 180 253 l 1
 475 123 l 1
 475 11 l 1
 64 206 l 1
 64 296 l 1
 475 488 l 1
 475 377 l 1
EndSplineSet
EndChar
StartChar: greater
Encoding: 62 62 217
Width: 560
Flags: MW
HStem: 11 477<85 85>
VStem: 85 411<11 296 123 296 206 488 206 488>
LayerCount: 2
Back
Fore
SplineSet
380 253 m 1
 85 377 l 1
 85 488 l 1
 496 296 l 1
 496 206 l 1
 85 11 l 1
 85 123 l 1
 380 253 l 1
EndSplineSet
EndChar
StartChar: question
Encoding: 63 63 238
Width: 417
Flags: MW
HStem: 0 145<120 232 120 232> 599 97<160.5 210.5> 667 21G<27 27>
VStem: 120 112<0 145 0 145 0 290> 272 115<500.5 551.5>
LayerCount: 2
Back
Fore
SplineSet
387 520 m 0xb8
 387 450 357 410 280 329 c 0
 249 295 232 272 232 242 c 2
 232 203 l 1
 127 203 l 1
 127 203 120 234 120 263 c 0
 120 317 146 346 205 407 c 0
 254 459 272 481 272 520 c 0
 272 583 242 599 179 599 c 0
 128 599 38 582 38 582 c 1
 27 667 l 1
 27 667 130 696 191 696 c 0xd8
 324 696 387 650 387 520 c 0xb8
120 0 m 1
 120 145 l 1
 232 145 l 1
 232 0 l 1
 120 0 l 1
EndSplineSet
EndChar
StartChar: at
Encoding: 64 64 151
Width: 917
Flags: MW
HStem: -206 91<346 488 346 491.5> -2 91<687 728 687 774.5> 410 92<421.5 472> 620 91<351.5 599.5>
VStem: 36 100<138.5 389.5 138.5 421> 252 111<200 301 200 319> 549 109<175 402 402 402> 787 99<198.5 394.5>
LayerCount: 2
Back
Fore
SplineSet
473 711 m 0
 779 711 886 575 886 268 c 0
 886 126 846 -2 703 -2 c 0
 631 -2 593 14 570 93 c 1
 543 44 483 -2 421 -2 c 0
 298 -2 252 81 252 242 c 0
 252 396 291 502 454 502 c 0
 521 502 658 484 658 484 c 1
 658 146 l 2
 658 104 671 89 703 89 c 0
 753 89 787 129 787 268 c 0
 787 521 726 620 473 620 c 0
 230 620 136 518 136 261 c 0
 136 16 223 -115 469 -115 c 0
 507 -115 604 -106 604 -106 c 1
 607 -197 l 1
 607 -197 514 -206 469 -206 c 0
 161 -206 36 -47 36 261 c 0
 36 581 167 711 473 711 c 0
443 90 m 0
 505 90 549 175 549 175 c 1
 549 402 l 2
 546 403 482 410 462 410 c 0
 381 410 363 349 363 253 c 0
 363 147 377 90 443 90 c 0
EndSplineSet
EndChar
StartChar: B
Encoding: 66 66 28
Width: 566
Flags: MW
HStem: 0 96<181 305 305 306> 303 93<181 302 302 303 181 302> 589 96<181 301 181 181>
VStem: 69 112<96 303 96 396 396 589> 395 114<467 528.5> 410 115<167.5 238 126.5 238.5>
LayerCount: 2
Back
Fore
SplineSet
69 685 m 1xf4
 301 685 l 2
 425 685 509 634 509 510 c 0xf8
 509 424 480 386 428 356 c 1
 497 326 525 280 525 196 c 0
 525 57 446 0 306 0 c 2
 69 0 l 1
 69 685 l 1xf4
303 303 m 2
 181 303 l 1
 181 96 l 1
 305 96 l 2
 377 96 410 131 410 204 c 0xf4
 410 273 375 303 303 303 c 2
301 589 m 2xf8
 181 589 l 1
 181 396 l 1
 302 396 l 2
 366 396 395 437 395 497 c 0
 395 560 364 589 301 589 c 2xf8
EndSplineSet
Position2: "'cpsp' Capital Spacing in Latin lookup 0 subtable" dx=5 dy=0 dh=10 dv=0
EndChar
StartChar: D
Encoding: 68 68 35
Width: 595
Flags: MW
HStem: 0 98<181 293 181 293> 588 97<181 293 181 181>
VStem: 69 112<98 588 98 685 98 685> 434 115<280 435.5>
LayerCount: 2
Back
Fore
SplineSet
293 0 m 2
 69 0 l 1
 69 685 l 1
 293 685 l 2
 497 685 549 582 549 359 c 0
 549 123 500 0 293 0 c 2
434 359 m 0
 434 512 418 588 293 588 c 2
 181 588 l 1
 181 98 l 1
 293 98 l 2
 418 98 434 201 434 359 c 0
EndSplineSet
Position2: "'cpsp' Capital Spacing in Latin lookup 0 subtable" dx=5 dy=0 dh=10 dv=0
EndChar
StartChar: E
Encoding: 69 69 38
Width: 504
Flags: MW
HStem: 0 97<181 466 181 466> 296 98<181 410 181 410> 588 97<181 466 181 181>
VStem: 69 112<97 296 394 588>
LayerCount: 2
Back
Fore
SplineSet
69 0 m 1
 69 685 l 1
 466 685 l 1
 466 588 l 1
 181 588 l 1
 181 394 l 1
 410 394 l 1
 410 296 l 1
 181 296 l 1
 181 97 l 1
 466 97 l 1
 466 0 l 1
 69 0 l 1
EndSplineSet
Position2: "'cpsp' Capital Spacing in Latin lookup 0 subtable" dx=5 dy=0 dh=10 dv=0
EndChar
StartChar: F
Encoding: 70 70 48
Width: 486
Flags: MW
HStem: 0 21G<69 69 69 181> 256 97<181 411 181 411> 588 97<181 467 181 181>
VStem: 69 112<0 256 353 588>
LayerCount: 2
Back
Fore
SplineSet
69 0 m 1
 69 685 l 1
 467 685 l 1
 467 588 l 1
 181 588 l 1
 181 353 l 1
 411 353 l 1
 411 256 l 1
 181 256 l 1
 181 0 l 1
 69 0 l 1
EndSplineSet
Position2: "'cpsp' Capital Spacing in Latin lookup 0 subtable" dx=5 dy=0 dh=10 dv=0
EndChar
StartChar: J
Encoding: 74 74 67
Width: 276
Flags: MW
HStem: -70 755<98 103.5>
VStem: 98 112<50 685>
LayerCount: 2
Back
Fore
SplineSet
209 685 m 1
 210 121 l 2
 210 -21 191 -70 16 -70 c 1
 16 28 l 1
 93 29 98 54 98 124 c 2
 98 685 l 1
 209 685 l 1
EndSplineSet
Position2: "'cpsp' Capital Spacing in Latin lookup 0 subtable" dx=5 dy=0 dh=10 dv=0
EndChar
StartChar: K
Encoding: 75 75 69
Width: 539
Flags: MW
HStem: 0 21G<69 181 69 69 404 528 404 404> 287 97
VStem: 69 112<0 284 0 381 381 685>
LayerCount: 2
Back
Fore
SplineSet
404 0 m 1
 266 290 l 1
 181 284 l 1
 181 0 l 1
 69 0 l 1
 69 685 l 1
 181 685 l 1
 181 381 l 1
 263 387 l 1
 395 685 l 1
 519 685 l 1
 360 350 l 1
 528 0 l 1
 404 0 l 1
EndSplineSet
Position2: "'cpsp' Capital Spacing in Latin lookup 0 subtable" dx=5 dy=0 dh=10 dv=0
EndChar
StartChar: M
Encoding: 77 77 76
Width: 782
Flags: MW
HStem: 0 21G<69 69 69 174 609 609 609 713> 588 97<174 190 174 174 592 609 592 592>
VStem: 69 105<0 588 0 685 0 685> 609 104<0 588 588 588>
LayerCount: 2
Back
Fore
SplineSet
69 0 m 1
 69 685 l 1
 258 685 l 1
 392 135 l 1
 525 685 l 1
 713 685 l 1
 713 0 l 1
 609 0 l 1
 609 588 l 1
 592 588 l 1
 460 28 l 1
 323 28 l 1
 190 588 l 1
 174 588 l 1
 174 0 l 1
 69 0 l 1
EndSplineSet
Position2: "'cpsp' Capital Spacing in Latin lookup 0 subtable" dx=5 dy=0 dh=10 dv=0
EndChar
StartChar: P
Encoding: 80 80 94
Width: 547
Flags: MW
HStem: 0 21G<69 181 69 69> 205 98<181 286 286 293 181 286> 588 97<181 285 181 181>
VStem: 69 112<0 205 303 588> 404 115<397 507.5>
LayerCount: 2
Back
Fore
SplineSet
293 205 m 2
 181 205 l 1
 181 0 l 1
 69 0 l 1
 69 685 l 1
 293 685 l 2
 440 685 519 620 519 452 c 0
 519 271 434 205 293 205 c 2
181 303 m 1
 286 303 l 2
 363 303 404 339 404 455 c 0
 404 560 363 588 285 588 c 2
 181 588 l 1
 181 303 l 1
EndSplineSet
Position2: "'cpsp' Capital Spacing in Latin lookup 0 subtable" dx=5 dy=0 dh=10 dv=0
EndChar
StartChar: Q
Encoding: 81 81 95
Width: 601
Flags: MW
HStem: -11 97<240.5 311.5> 599 97<286 360>
VStem: 45 115<254 421.5 254 433> 441 115<277.5 444>
LayerCount: 2
Back
Fore
SplineSet
300 -11 m 0
 104 -11 45 101 45 349 c 0
 45 517 72 617 150 663 c 0
 188 686 237 696 300 696 c 0
 497 696 556 597 556 349 c 0
 556 187 531 83 459 31 c 1
 537 -93 l 1
 441 -149 l 1
 363 -6 l 1
 344 -9 323 -11 300 -11 c 0
300 86 m 0
 330 86 353 91 372 100 c 0
 428 130 441 206 441 349 c 0
 441 539 420 599 300 599 c 0
 272 599 249 595 231 588 c 0
 171 563 160 494 160 349 c 0
 160 159 181 86 300 86 c 0
EndSplineSet
Position2: "'cpsp' Capital Spacing in Latin lookup 0 subtable" dx=5 dy=0 dh=10 dv=0
EndChar
StartChar: R
Encoding: 82 82 96
Width: 564
Flags: MW
HStem: 0 21G<69 181 69 69 415 533 415 415> 243 96<181 299 299 314 181 299> 589 96<181 299 181 181>
VStem: 69 112<0 243 0 339 339 589> 403 115<423.5 509.5>
LayerCount: 2
Back
Fore
SplineSet
415 0 m 1
 314 243 l 1
 181 243 l 1
 181 0 l 1
 69 0 l 1
 69 685 l 1
 299 685 l 2
 440 685 518 625 518 467 c 0
 518 347 475 294 418 267 c 1
 533 0 l 1
 415 0 l 1
403 467 m 0
 403 552 371 589 299 589 c 2
 181 589 l 1
 181 339 l 1
 299 339 l 2
 371 339 403 380 403 467 c 0
EndSplineSet
Position2: "'cpsp' Capital Spacing in Latin lookup 0 subtable" dx=5 dy=0 dh=10 dv=0
EndChar
StartChar: T
Encoding: 84 84 106
Width: 463
Flags: MW
HStem: 0 21G<178 289 178 178> 588 97<11 452 11 178 289 289 289 452>
VStem: 178 111<0 588 0 588>
LayerCount: 2
Back
Fore
SplineSet
11 588 m 1
 11 685 l 1
 452 685 l 1
 452 588 l 1
 289 588 l 1
 289 0 l 1
 178 0 l 1
 178 588 l 1
 11 588 l 1
EndSplineSet
Position2: "'cpsp' Capital Spacing in Latin lookup 0 subtable" dx=5 dy=0 dh=10 dv=0
EndChar
StartChar: V
Encoding: 86 86 121
Width: 549
Flags: MW
HStem: 0 97<256 294 256 376 173 294>
VStem: 16 517<685 685>
LayerCount: 2
Back
Fore
SplineSet
422 685 m 1
 533 685 l 1
 376 0 l 1
 173 0 l 1
 16 685 l 1
 128 685 l 1
 256 97 l 1
 294 97 l 1
 422 685 l 1
EndSplineSet
Position2: "'cpsp' Capital Spacing in Latin lookup 0 subtable" dx=5 dy=0 dh=10 dv=0
EndChar
StartChar: X
Encoding: 88 88 127
Width: 521
Flags: MW
HStem: 0 21G<9 128 9 9 392 511 392 392>
VStem: 9 502<0 0>
LayerCount: 2
Back
Fore
SplineSet
131 685 m 1
 260 424 l 1
 389 685 l 1
 507 685 l 1
 328 343 l 1
 511 0 l 1
 392 0 l 1
 260 263 l 1
 128 0 l 1
 9 0 l 1
 196 343 l 1
 12 685 l 1
 131 685 l 1
EndSplineSet
Position2: "'cpsp' Capital Spacing in Latin lookup 0 subtable" dx=5 dy=0 dh=10 dv=0
EndChar
StartChar: bracketleft
Encoding: 91 91 218
Width: 320
Flags: MW
HStem: -122 93<171 287 171 287> 654 93<171 287 171 171>
VStem: 66 105<-29 654 -29 747 -29 747>
LayerCount: 2
Back
Fore
SplineSet
66 747 m 1
 287 747 l 1
 287 654 l 1
 171 654 l 1
 171 -29 l 1
 287 -29 l 1
 287 -122 l 1
 66 -122 l 1
 66 747 l 1
EndSplineSet
Substitution2: "'case' Case-Sensitive Forms in Latin lookup 4 subtable" bracketleft.cap
EndChar
StartChar: backslash
Encoding: 92 92 219
Width: 481
Flags: MW
HStem: -10 21G<339 339> -7 21G<451 451>
VStem: 28 423
LayerCount: 2
Back
Fore
SplineSet
451 -7 m 1x60
 339 -10 l 1xa0
 28 698 l 1
 140 702 l 1
 451 -7 l 1x60
EndSplineSet
EndChar
StartChar: bracketright
Encoding: 93 93 220
Width: 320
Flags: MW
HStem: -122 93<33 149 33 254 33 149> 654 93<33 149 33 254>
VStem: 149 105<-29 654 654 654>
LayerCount: 2
Back
Fore
SplineSet
254 -122 m 1
 33 -122 l 1
 33 -29 l 1
 149 -29 l 1
 149 654 l 1
 33 654 l 1
 33 747 l 1
 254 747 l 1
 254 -122 l 1
EndSplineSet
Substitution2: "'case' Case-Sensitive Forms in Latin lookup 4 subtable" bracketright.cap
EndChar
StartChar: asciicircum
Encoding: 94 94 254
Width: 560
Flags: MW
HStem: 316 344<33 317 33 317 223 510 223 396>
VStem: 33 477<316 316>
LayerCount: 2
Back
Fore
SplineSet
396 316 m 1
 272 554 l 1
 147 316 l 1
 33 316 l 1
 223 660 l 1
 317 660 l 1
 510 316 l 1
 396 316 l 1
EndSplineSet
EndChar
StartChar: underscore
Encoding: 95 95 239
Width: 616
Flags: MW
HStem: -182 102<84 532 84 532>
VStem: 84 448<-182 -80 -182 -80>
LayerCount: 2
Back
Fore
SplineSet
84 -80 m 1
 532 -80 l 1
 532 -182 l 1
 84 -182 l 1
 84 -80 l 1
EndSplineSet
EndChar
StartChar: grave
Encoding: 96 96 11
Width: 518
Flags: MW
HStem: 670 21G<360 360> 671 21G<102 102>
VStem: 102 258<670 671>
LayerCount: 2
Back
Fore
SplineSet
133 761 m 1x60
 360 670 l 1
 333 590 l 1xa0
 102 671 l 1
 133 761 l 1x60
EndSplineSet
EndChar
StartChar: b
Encoding: 98 98 386
Width: 503
Flags: MW
HStem: -10 92<236 289 236 318> 419 92<264 307.5> 688 20G<60 168 168 168>
VStem: 60 108<88 366 455 708> 355 110<198 301.5>
LayerCount: 2
Back
Fore
SplineSet
298 511 m 0
 423 511 465 420 465 259 c 0
 465 66 395 -10 241 -10 c 0
 189 -10 60 2 60 2 c 1
 60 708 l 1
 168 708 l 1
 168 455 l 1
 168 455 230 511 298 511 c 0
245 82 m 0
 333 82 355 137 355 259 c 0
 355 344 342 419 273 419 c 0
 218 419 168 366 168 366 c 1
 168 88 l 1
 168 88 227 82 245 82 c 0
EndSplineSet
EndChar
StartChar: d
Encoding: 100 100 405
Width: 504
Flags: MW
HStem: -11 92<198 245.5> 0 81<198 444 198 338> 418 92<208 255.5 162 265.5> 688 20G<336 444 444 444>
VStem: 39 110<195 299.5 195 330> 336 108<56 56 156 408 408 408 497 708 0 708>
LayerCount: 2
Back
Fore
SplineSet
444 708 m 1xbc
 444 0 l 1
 338 0 l 1x7c
 336 56 l 1
 336 56 290 -11 201 -11 c 0
 84 -11 39 82 39 244 c 0
 39 416 91 510 233 510 c 0
 278 510 336 497 336 497 c 1
 336 708 l 1
 444 708 l 1xbc
336 156 m 1xbc
 336 408 l 1
 336 408 286 418 245 418 c 0
 171 418 149 355 149 244 c 0
 149 146 164 81 232 81 c 0
 291 81 336 156 336 156 c 1xbc
EndSplineSet
EndChar
StartChar: f
Encoding: 102 102 389
Width: 319
Flags: MW
HStem: -215 21G<79 179 79 79> 407 93<29 79 29 79 187 303> 626 93<215.5 228 166.5 252> 688 20G<309 309>
VStem: 79 108<0 407 0 407 0 407 500 529>
LayerCount: 2
Back
Fore
SplineSet
187 407 m 1xe8
 187 0 l 1
 179 -215 l 1
 79 -215 l 1
 79 407 l 1
 29 407 l 1
 29 500 l 1
 79 500 l 1
 79 530 l 2
 79 664 121 719 212 719 c 0xe8
 244 719 309 708 309 708 c 1xd8
 308 620 l 1
 308 620 267 626 237 626 c 0
 194 626 187 588 187 529 c 2
 187 500 l 1
 303 500 l 1
 303 407 l 1
 187 407 l 1xe8
EndSplineSet
EndChar
StartChar: h
Encoding: 104 104 140
Width: 512
Flags: MW
HStem: 0 21G<60 168 60 60 349 349 349 457> 419 92<258.5 301.5> 688 20G<60 168 168 168>
VStem: 60 108<0 348 443 708> 349 108<0 282 282 311 0 330.5>
LayerCount: 2
Back
Fore
SplineSet
168 0 m 1
 60 0 l 1
 60 708 l 1
 168 708 l 1
 168 443 l 1
 168 443 219 511 298 511 c 0
 415 511 457 424 457 311 c 2
 457 0 l 1
 349 0 l 1
 349 282 l 2
 349 379 330 419 273 419 c 0
 218 419 168 348 168 348 c 1
 168 0 l 1
EndSplineSet
EndChar
StartChar: j
Encoding: 106 106 391
Width: 228
Flags: MW
HStem: -232 21G<-5 -5> 480 20G<60 168 168 168> 576 116<60 168 60 168>
VStem: 60 108<0 500 576 692>
LayerCount: 2
Back
Fore
SplineSet
60 0 m 2
 60 500 l 1
 168 500 l 1
 168 0 l 2
 168 -129 154 -154 -5 -232 c 1
 -44 -150 l 1
 56 -88 60 -78 60 0 c 2
60 576 m 1
 60 692 l 1
 168 692 l 1
 168 576 l 1
 60 576 l 1
EndSplineSet
EndChar
StartChar: k
Encoding: 107 107 392
Width: 468
Flags: MW
HStem: 0 21G<60 168 60 60 335 335 335 455> 209 93 480 20G<332 452 452 452> 688 20G<60 168 168 168>
VStem: 60 108<0 206 299 708>
LayerCount: 2
Back
Fore
SplineSet
168 0 m 1
 60 0 l 1
 60 708 l 1
 168 708 l 1
 168 299 l 1
 216 305 l 1
 332 500 l 1
 452 500 l 1
 308 267 l 1
 455 0 l 1
 335 0 l 1
 219 212 l 1
 168 206 l 1
 168 0 l 1
EndSplineSet
EndChar
StartChar: m
Encoding: 109 109 394
Width: 786
Flags: MW
HStem: 0 21G<60 168 60 60 345 454 345 345 622 622 622 730> 419 92<259.5 299 532.5 574> 440 60<60 167>
VStem: 60 108<0 345 0 500> 345 109<0 272 272 286> 622 108<0 282 282 297 0 330.5>
LayerCount: 2
Back
Fore
SplineSet
454 0 m 1xdc
 345 0 l 1
 345 272 l 2
 345 380 327 419 271 419 c 0
 219 419 168 345 168 345 c 1xdc
 168 0 l 1
 60 0 l 1
 60 500 l 1
 166 500 l 1xbc
 167 440 l 1
 167 440 221 511 298 511 c 0
 398 511 428 433 428 433 c 1
 428 433 494 511 571 511 c 0
 684 511 730 424 730 297 c 2
 730 0 l 1
 622 0 l 1
 622 282 l 2
 622 379 603 419 545 419 c 0
 492 419 450 353 450 353 c 1
 450 353 454 317 454 286 c 2
 454 0 l 1xdc
EndSplineSet
EndChar
StartChar: n
Encoding: 110 110 149
Width: 512
Flags: MW
HStem: 0 21G<60 168 60 60 349 349 349 457> 419 92<258.5 301> 440 60<60 167>
VStem: 60 108<0 345> 349 108<0 282 282 310 0 330.5>
LayerCount: 2
Back
Fore
SplineSet
168 0 m 1xd8
 60 0 l 1
 60 500 l 1
 166 500 l 1xb8
 167 440 l 1
 167 440 219 511 298 511 c 0
 414 511 457 424 457 310 c 2
 457 0 l 1
 349 0 l 1
 349 282 l 2
 349 379 330 419 272 419 c 0
 218 419 168 345 168 345 c 1
 168 0 l 1xd8
EndSplineSet
EndChar
StartChar: o
Encoding: 111 111 148
Width: 486
Flags: MW
HStem: -11 92<198.5 287 198.5 327.5> 418 92<202 284>
VStem: 38 104<202 303 202 327.5> 344 104<202 303>
LayerCount: 2
Back
Fore
SplineSet
243 510 m 0
 403 510 448 403 448 252 c 0
 448 102 412 -11 243 -11 c 0
 74 -11 38 102 38 252 c 0
 38 403 82 510 243 510 c 0
243 81 m 0
 331 81 344 152 344 252 c 0
 344 354 325 418 243 418 c 0
 161 418 142 354 142 252 c 0
 142 152 154 81 243 81 c 0
EndSplineSet
EndChar
StartChar: p
Encoding: 112 112 395
Width: 503
Flags: MW
HStem: -215 21G<60 60 60 168> -10 92<246 294.5 237 340.5> 419 92<255 306.5> 444 56<60 167>
VStem: 60 108<-215 3 -215 91 91 344> 355 110<199 305>
LayerCount: 2
Back
Fore
SplineSet
60 -215 m 1xec
 60 500 l 1
 166 500 l 1xdc
 167 444 l 1
 167 444 217 511 293 511 c 0
 421 511 465 418 465 256 c 0
 465 85 412 -10 269 -10 c 0
 223 -10 168 3 168 3 c 1
 168 -215 l 1
 60 -215 l 1xec
273 419 m 0xec
 216 419 168 344 168 344 c 1
 168 91 l 1
 168 91 218 82 256 82 c 0
 333 82 355 142 355 256 c 0
 355 354 340 419 273 419 c 0xec
EndSplineSet
EndChar
StartChar: q
Encoding: 113 113 396
Width: 503
Flags: MW
HStem: -11 92<199 250.5> 418 92<214 268> 490 20G<169.5 275>
VStem: 39 110<194 306.5 194 333> 335 109<-205 55 55 55 156 410 410 410>
LayerCount: 2
Back
Fore
SplineSet
208 -11 m 0xd8
 83 -11 39 88 39 247 c 0
 39 419 94 510 245 510 c 0xd8
 305 510 444 492 444 492 c 1xb8
 444 -205 l 1
 335 -205 l 1
 335 55 l 1
 335 55 293 -11 208 -11 c 0xd8
253 418 m 0
 175 418 149 366 149 247 c 0
 149 141 165 81 233 81 c 0
 288 81 335 156 335 156 c 1
 335 410 l 1
 335 410 283 418 253 418 c 0
EndSplineSet
EndChar
StartChar: r
Encoding: 114 114 397
Width: 323
Flags: MW
HStem: 0 21G<60 60 60 168> 427 73<60 167> 491 20G<308 308>
VStem: 60 108<0 336 0 500> 167 141<427 500 427 427>
LayerCount: 2
Back
Fore
SplineSet
60 0 m 1xb0
 60 500 l 1
 167 500 l 1
 167 427 l 1xd0
 167 427 230 492 308 511 c 1
 308 398 l 1xa8
 242 382 168 336 168 336 c 1
 168 0 l 1
 60 0 l 1xb0
EndSplineSet
EndChar
StartChar: s
Encoding: 115 115 141
Width: 430
Flags: MW
HStem: -11 92<176.5 232 176.5 267.5> 418 92<197.5 248>
VStem: 38 108<343.5 382.5 343.5 410.5> 289 109<117.5 159.5>
LayerCount: 2
Back
Fore
SplineSet
381 487 m 1
 377 404 l 1
 377 404 281 418 215 418 c 0
 180 418 146 402 146 363 c 0
 146 324 167 313 233 297 c 0
 337 272 398 255 398 149 c 0
 398 25 325 -11 210 -11 c 0
 130 -11 37 14 37 14 c 1
 43 97 l 1
 43 97 153 81 200 81 c 0
 264 81 289 96 289 139 c 0
 289 180 264 188 202 201 c 0
 97 224 38 253 38 354 c 0
 38 467 123 510 208 510 c 0
 300 510 381 487 381 487 c 1
EndSplineSet
EndChar
StartChar: t
Encoding: 116 116 398
Width: 328
Flags: MW
HStem: -11 92<214.5 235> 407 93<22 79 22 79 187 309>
VStem: 79 108<148 154 154 407 500 637>
LayerCount: 2
Back
Fore
SplineSet
309 407 m 1
 187 407 l 1
 187 154 l 2
 187 110 196 81 233 81 c 0
 265 81 308 87 308 87 c 1
 313 4 l 1
 313 4 252 -11 218 -11 c 0
 106 -11 79 46 79 148 c 2
 79 407 l 1
 22 407 l 1
 22 500 l 1
 79 500 l 1
 79 637 l 1
 187 637 l 1
 187 500 l 1
 309 500 l 1
 309 407 l 1
EndSplineSet
EndChar
StartChar: v
Encoding: 118 118 400
Width: 452
Flags: MW
HStem: 0 90<214 238 214 313 139 238> 480 20G<16 123 123 123 329 436 436 436>
VStem: 16 420<500 500>
LayerCount: 2
Back
Fore
SplineSet
16 500 m 1
 123 500 l 1
 214 90 l 1
 238 90 l 1
 329 500 l 1
 436 500 l 1
 313 0 l 1
 139 0 l 1
 16 500 l 1
EndSplineSet
EndChar
StartChar: x
Encoding: 120 120 402
Width: 426
Flags: MW
HStem: 0 21G<13 123 13 13 301 412 301 301> 480 20G<15 127 127 127 302 412 412 412>
VStem: 13 399<0 0>
LayerCount: 2
Back
Fore
SplineSet
15 500 m 1
 127 500 l 1
 216 326 l 1
 302 500 l 1
 412 500 l 1
 275 249 l 1
 412 0 l 1
 301 0 l 1
 214 171 l 1
 123 0 l 1
 13 0 l 1
 153 249 l 1
 15 500 l 1
EndSplineSet
EndChar
StartChar: y
Encoding: 121 121 403
Width: 452
Flags: MW
HStem: -215 21G<159 261 159 159> 0 90<216 217 138 238> 480 20G<18 124 124 124 332 436 436 436>
VStem: 18 418<500 500>
LayerCount: 2
Back
Fore
SplineSet
18 500 m 1
 124 500 l 1
 216 90 l 1
 238 90 l 1
 332 500 l 1
 436 500 l 1
 261 -215 l 1
 159 -215 l 1
 217 0 l 1
 138 0 l 1
 18 500 l 1
EndSplineSet
EndChar
StartChar: z
Encoding: 122 122 404
Width: 419
Flags: MW
HStem: 0 93<156 383 156 383> 407 93<36 383 36 266>
VStem: 36 347<0 91 91 91 411 500>
LayerCount: 2
Back
Fore
SplineSet
36 407 m 1
 36 500 l 1
 383 500 l 1
 383 411 l 1
 156 93 l 1
 383 93 l 1
 383 0 l 1
 36 0 l 1
 36 91 l 1
 266 407 l 1
 36 407 l 1
EndSplineSet
EndChar
StartChar: braceleft
Encoding: 123 123 240
Width: 333
Flags: MW
HStem: -130 94<297 298> 662 94<297 298>
VStem: 102 117<-27 210> 109 103<9.5 199.5>
LayerCount: 2
Back
Fore
SplineSet
219 175 m 0xd0
 219 140 212 75 212 36 c 0
 212 -17 248 -33 298 -36 c 1
 297 -130 l 1
 192 -127 102 -93 102 39 c 0
 102 75 109 130 109 168 c 0
 109 231 63 253 19 268 c 1
 19 355 l 1xd0
 68 367 109 396 109 456 c 0
 109 489 102 542 102 580 c 0
 102 707 163 753 297 756 c 1
 298 662 l 1
 227 658 212 640 212 587 c 0
 212 581 219 455 219 448 c 0
 219 367 192 336 130 312 c 1xe0
 192 290 219 245 219 175 c 0xd0
EndSplineSet
Substitution2: "'case' Case-Sensitive Forms in Latin lookup 4 subtable" braceleft.cap
EndChar
StartChar: bar
Encoding: 124 124 221
Width: 238
Flags: MW
HStem: -215 21G<65 65 65 173> 688 20G<65 173 173 173>
VStem: 65 108<-215 708 -215 708>
LayerCount: 2
Back
Fore
SplineSet
65 -215 m 1
 65 708 l 1
 173 708 l 1
 173 -215 l 1
 65 -215 l 1
EndSplineSet
EndChar
StartChar: braceright
Encoding: 125 125 241
Width: 332
Flags: MW
HStem: -132 94<34 35> 660 94<34 35>
VStem: 113 117<-19.5 216.5> 120 103
LayerCount: 2
Back
Fore
SplineSet
113 449 m 0xd0
 113 484 120 549 120 588 c 0
 120 641 84 657 34 660 c 1
 35 754 l 1
 140 751 230 717 230 585 c 0
 230 549 223 494 223 456 c 0
 223 393 269 371 313 356 c 1
 313 269 l 1xd0
 264 257 223 228 223 168 c 0
 223 135 230 82 230 44 c 0
 230 -83 169 -129 35 -132 c 1
 34 -38 l 1
 105 -34 120 -16 120 37 c 0
 120 43 113 169 113 176 c 0
 113 257 140 288 202 312 c 1xe0
 140 334 113 379 113 449 c 0xd0
EndSplineSet
Substitution2: "'case' Case-Sensitive Forms in Latin lookup 4 subtable" braceright.cap
EndChar
StartChar: asciitilde
Encoding: 126 126 211
Width: 560
Flags: MW
HStem: 181 98<361.5 404 361.5 411.5> 232 98<158.5 200.5>
VStem: 63 433<233 278>
LayerCount: 2
Back
Fore
SplineSet
487 320 m 1xa0
 496 233 l 1
 496 233 440 181 383 181 c 0xa0
 328 181 220 232 181 232 c 0
 136 232 74 190 74 190 c 1
 63 278 l 1
 63 278 126 330 183 330 c 0x60
 238 330 338 279 385 279 c 0
 423 279 487 320 487 320 c 1xa0
EndSplineSet
EndChar
StartChar: exclamdown
Encoding: 161 161 281
Width: 234
Flags: MW
HStem: 365 135<62 172 62 172>
VStem: 63.5 107.5
LayerCount: 2
Back
Fore
SplineSet
170 254 m 1
 172 -200 l 1
 62 -200 l 1
 65 254 l 1
 170 254 l 1
172 500 m 1
 172 365 l 1
 62 365 l 1
 62 500 l 1
 172 500 l 1
EndSplineSet
Substitution2: "'case' Case-Sensitive Forms in Latin lookup 4 subtable" exclamdown.cap
EndChar
StartChar: cent
Encoding: 162 162 242
Width: 560
Flags: MW
HStem: -77 210<274 345 279.5 345 279.5 361> 366 209<281 342>
VStem: 100 109<210 291.5 210 321> 274 87<-77 33 33 33 467 575>
LayerCount: 2
Back
Fore
SplineSet
274 -77 m 1
 274 33 l 1
 151 37 100 139 100 249 c 0
 100 393 172 457 274 467 c 1
 274 575 l 1
 361 575 l 1
 361 463 l 1
 399 460 443 453 443 453 c 1
 439 361 l 1
 439 361 360 366 324 366 c 0
 238 366 209 334 209 249 c 0
 209 171 232 133 327 133 c 0
 363 133 440 139 440 139 c 1
 443 48 l 1
 443 48 399 40 361 36 c 1
 361 -77 l 1
 274 -77 l 1
EndSplineSet
EndChar
StartChar: sterling
Encoding: 163 163 249
Width: 560
Flags: MW
HStem: 0 93<76 167 277 399 76 167> 341 93<90 167 90 167 277 445> 583 96<307.5 342.5 258 358>
VStem: 167 110<93 341 93 341 434 466>
LayerCount: 2
Back
Fore
SplineSet
460 658 m 1
 456 574 l 1
 456 574 380 583 336 583 c 0
 279 583 277 532 277 466 c 2
 277 434 l 1
 445 434 l 1
 445 341 l 1
 277 341 l 1
 277 93 l 1
 399 93 l 1
 468 108 l 1
 483 18 l 1
 407 0 l 1
 76 0 l 1
 76 93 l 1
 167 93 l 1
 167 341 l 1
 90 341 l 1
 90 434 l 1
 167 434 l 1
 167 476 l 2
 167 600 196 679 320 679 c 0
 365 679 460 658 460 658 c 1
EndSplineSet
EndChar
StartChar: currency
Encoding: 164 164 273
Width: 560
Flags: MW
HStem: 62 100 342 99
VStem: 90 100 370 99
LayerCount: 2
Back
Fore
SplineSet
443 14 m 1
 371 86 l 1
 315 54 245 54 188 86 c 1
 117 14 l 1
 42 89 l 1
 114 160 l 1
 82 217 82 287 114 343 c 1
 42 415 l 1
 117 490 l 1
 188 418 l 1
 245 449 315 449 371 418 c 1
 443 490 l 1
 518 415 l 1
 446 343 l 1
 477 287 477 217 446 160 c 1
 518 89 l 1
 443 14 l 1
216 188 m 0
 251 153 309 153 344 188 c 0
 379 223 379 281 344 316 c 0
 309 351 251 351 216 316 c 0
 181 281 181 223 216 188 c 0
EndSplineSet
EndChar
StartChar: yen
Encoding: 165 165 215
Width: 560
Flags: MW
HStem: 0 21G<226 337 226 226> 140 96<71 226 71 226 337 488> 290 96<71 162 71 162 71 220 398 488>
VStem: 226 111<0 140 0 140 236 280>
LayerCount: 2
Back
Fore
SplineSet
71 290 m 1
 71 386 l 1
 162 386 l 1
 9 660 l 1
 134 660 l 1
 280 399 l 1
 425 660 l 1
 550 660 l 1
 398 386 l 1
 488 386 l 1
 488 290 l 1
 343 290 l 1
 337 280 l 1
 337 236 l 1
 488 236 l 1
 488 140 l 1
 337 140 l 1
 337 0 l 1
 226 0 l 1
 226 140 l 1
 71 140 l 1
 71 236 l 1
 226 236 l 1
 226 280 l 1
 220 290 l 1
 71 290 l 1
EndSplineSet
EndChar
StartChar: brokenbar
Encoding: 166 166 204
Width: 242
Flags: MW
HStem: -215 21G<67 175 67 67> 688 20G<67 175 175 175>
VStem: 67 108<-215 164 -215 164 335 708>
LayerCount: 2
Back
Fore
SplineSet
67 708 m 1
 175 708 l 1
 175 335 l 1
 67 335 l 1
 67 708 l 1
67 164 m 1
 175 164 l 1
 175 -215 l 1
 67 -215 l 1
 67 164 l 1
EndSplineSet
EndChar
StartChar: section
Encoding: 167 167 157
Width: 473
Flags: MW
HStem: -171 97<196.5 256 196 294> 545 98<218.5 277.5>
VStem: 37 104<227.5 257> 53 100<453 501.5 453 525.5> 324 98<-27.5 23> 327 104<221 255.5>
LayerCount: 2
Back
Fore
SplineSet
410 622 m 1xd8
 405 530 l 1
 405 530 300 545 255 545 c 0
 182 545 153 526 153 477 c 0
 153 429 177 418 284 394 c 0
 380 371 431 342 431 245 c 0xd4
 431 197 406 139 388 110 c 1
 412 88 422 43 422 6 c 0
 422 -117 360 -171 228 -171 c 0
 165 -171 57 -151 57 -151 c 1
 67 -60 l 1
 67 -60 170 -74 222 -74 c 0
 290 -74 324 -53 324 -2 c 0
 324 48 277 56 189 78 c 0
 90 103 37 130 37 231 c 0xe8
 37 283 75 337 93 360 c 1
 63 388 53 415 53 469 c 0
 53 582 119 643 249 643 c 0
 313 643 410 622 410 622 c 1xd8
242 302 m 0
 216 309 174 317 163 323 c 1
 158 314 141 278 141 250 c 0
 141 205 160 190 219 178 c 0xe8
 259 169 286 160 307 150 c 1
 314 159 327 198 327 230 c 0
 327 281 287 291 242 302 c 0
EndSplineSet
EndChar
StartChar: dieresis
Encoding: 168 168 8
Width: 586
Flags: MW
HStem: 609 117<83 172 83 172 272 360 83 272>
VStem: 83 89<609 726 609 726> 272 88<609 726 609 726>
LayerCount: 2
Back
Fore
SplineSet
83 609 m 1
 83 726 l 1
 172 726 l 1
 172 609 l 1
 83 609 l 1
272 609 m 1
 272 726 l 1
 360 726 l 1
 360 609 l 1
 272 609 l 1
EndSplineSet
EndChar
StartChar: copyright
Encoding: 169 169 158
Width: 630
Flags: MW
HStem: 155 53<251 376 251 395> 272 79<310.5 343.5 310.5 345.5> 517 78<309.5 344> 661 52<252 376>
VStem: 44 54<372 496 372 514> 198 84<407.5 465.5 407.5 494> 531 54<371.5 496>
LayerCount: 2
Back
Fore
SplineSet
44 434 m 0
 44 594 158 713 315 713 c 0
 477 713 585 586 585 434 c 0
 585 277 477 155 313 155 c 0
 159 155 44 277 44 434 c 0
98 434 m 0
 98 310 189 208 313 208 c 0
 439 208 531 309 531 434 c 0
 531 558 438 661 314 661 c 0
 190 661 98 558 98 434 c 0
397 357 m 1
 402 288 l 1
 402 288 370 272 321 272 c 0
 233 272 198 313 198 437 c 0
 198 551 232 595 324 595 c 0
 369 595 402 582 402 582 c 1
 397 510 l 1
 397 510 360 517 328 517 c 0
 291 517 282 494 282 437 c 0
 282 378 293 351 328 351 c 0
 359 351 397 357 397 357 c 1
EndSplineSet
EndChar
StartChar: ordfeminine
Encoding: 170 170 208
Width: 392
Flags: MW
HStem: 332 68<306 348> 333 73<158 165.5> 472 59 582 77<164.5 200.5>
VStem: 42 94<426 448 426 465.5> 232 93<422 474 474 474 533 551 412 556 412 565>
LayerCount: 2
Back
Fore
SplineSet
325 551 m 2x7c
 325 412 l 1
 330 406 340 401 348 400 c 1
 346 332 l 1xbc
 266 332 252 343 238 362 c 1
 238 362 190 333 141 333 c 0
 77 333 42 373 42 435 c 0
 42 496 79 525 155 529 c 2
 232 533 l 1
 232 556 l 2
 232 574 216 582 185 582 c 0
 144 582 61 575 61 575 c 1
 59 638 l 1
 59 638 128 659 191 659 c 0
 275 659 325 637 325 551 c 2x7c
232 474 m 1
 172 470 l 2
 147 468 136 459 136 437 c 0
 136 415 147 406 169 406 c 0
 195 406 232 422 232 422 c 1x7c
 232 474 l 1
EndSplineSet
EndChar
StartChar: guillemotleft
Encoding: 171 171 383
Width: 527
Flags: MW
HStem: 58 366<278 278 278 421>
VStem: 225 53
LayerCount: 2
Back
Fore
SplineSet
421 424 m 1
 421 327 l 1
 313 246 l 1
 421 155 l 1
 421 58 l 1
 225 218 l 1
 225 271 l 1
 421 424 l 1
278 424 m 1
 278 327 l 1
 170 246 l 1
 278 155 l 1
 278 58 l 1
 82 218 l 1
 82 271 l 1
 278 424 l 1
EndSplineSet
EndChar
StartChar: logicalnot
Encoding: 172 172 277
Width: 560
Flags: MW
HStem: 254 97<60 394 60 492>
VStem: 394 98<110 254 254 254>
LayerCount: 2
Back
Fore
SplineSet
60 351 m 1
 492 351 l 1
 492 110 l 1
 394 110 l 1
 394 254 l 1
 60 254 l 1
 60 351 l 1
EndSplineSet
EndChar
StartChar: registered
Encoding: 174 174 160
Width: 630
Flags: MW
HStem: 155 53<253 376.5 253 395.5> 378 60<278 319 319 321 278 278> 527 61<277 277 277 313> 661 52<252.5 376>
VStem: 44 54<372 496 372 514> 199 79<279 378 279 588> 360 77<468 497> 531 54<371.5 496>
LayerCount: 2
Back
Fore
SplineSet
44 434 m 0
 44 594 158 713 314 713 c 0
 477 713 585 586 585 434 c 0
 585 277 477 155 314 155 c 0
 159 155 44 277 44 434 c 0
98 434 m 0
 98 310 192 208 314 208 c 0
 439 208 531 309 531 434 c 0
 531 558 438 661 314 661 c 0
 191 661 98 558 98 434 c 0
358 279 m 1
 321 378 l 1
 278 378 l 1
 278 279 l 1
 199 279 l 1
 199 588 l 1
 324 588 l 2
 391 588 437 561 437 488 c 0
 437 437 427 412 394 391 c 1
 441 279 l 1
 358 279 l 1
277 527 m 1
 277 438 l 1
 319 438 l 2
 347 438 360 454 360 482 c 0
 360 512 345 527 313 527 c 2
 277 527 l 1
EndSplineSet
EndChar
StartChar: macron
Encoding: 175 175 12
Width: 452
Flags: MW
HStem: 632 88<72 366 72 366>
VStem: 72 294<632 720 632 720>
LayerCount: 2
Back
Fore
SplineSet
72 632 m 1
 72 720 l 1
 366 720 l 1
 366 632 l 1
 72 632 l 1
EndSplineSet
EndChar
StartChar: plusminus
Encoding: 177 177 205
Width: 560
Flags: MW
HStem: 27 98<52 508 52 508> 280 98<52 230 52 230 328 508>
VStem: 230 98<168 280 168 280 378 493>
LayerCount: 2
Back
Fore
SplineSet
52 280 m 1
 52 378 l 1
 230 378 l 1
 230 493 l 1
 328 493 l 1
 328 378 l 1
 508 378 l 1
 508 280 l 1
 328 280 l 1
 328 168 l 1
 230 168 l 1
 230 280 l 1
 52 280 l 1
52 125 m 1
 508 125 l 1
 508 27 l 1
 52 27 l 1
 52 125 l 1
EndSplineSet
EndChar
StartChar: twosuperior
Encoding: 178 178 258
Width: 280
Flags: MW
HStem: 478 79<139 247 139 247> 716 84<117 124>
VStem: 25 222<478 553 553 553> 153 92<681.5 701>
LayerCount: 2
Back
Fore
SplineSet
247 478 m 1xa0
 25 478 l 1
 25 553 l 1xa0
 105 624 l 2
 137 652 153 671 153 692 c 0
 153 710 137 716 111 716 c 0
 85 716 31 709 31 709 c 1
 27 790 l 1
 27 790 95 800 139 800 c 0
 216 800 245 772 245 704 c 0
 245 659 226 631 187 599 c 2xd0
 139 557 l 1
 247 557 l 1
 247 478 l 1xa0
EndSplineSet
Substitution2: "Single Substitution lookup 5 subtable" twoinferior
EndChar
StartChar: threesuperior
Encoding: 179 179 259
Width: 280
Flags: MW
HStem: 468 79<117.5 139.5 107.5 177> 600 72<63 128 128 129 63 128> 721 79<113.5 132.5>
VStem: 156 92<693.5 706.5> 164 91<565 584>
LayerCount: 2
Back
Fore
SplineSet
28 791 m 1xe8
 28 791 93 800 134 800 c 0
 210 800 248 774 248 714 c 0xf0
 248 673 228 650 214 642 c 1
 240 632 255 614 255 567 c 0
 255 499 212 468 142 468 c 0
 93 468 24 476 24 476 c 1
 30 553 l 1
 30 553 89 547 126 547 c 0
 153 547 164 556 164 574 c 0
 164 594 151 600 129 600 c 2xe8
 63 600 l 1
 63 672 l 1
 128 672 l 2
 143 672 156 682 156 698 c 0
 156 715 144 721 121 721 c 0xf0
 81 721 34 715 34 715 c 1
 28 791 l 1xe8
EndSplineSet
Substitution2: "Single Substitution lookup 5 subtable" threeinferior
EndChar
StartChar: acute
Encoding: 180 180 2
Width: 553
Flags: MW
HStem: 666 21G<357 357> 668 21G<99 99>
VStem: 99 258<666 668>
LayerCount: 2
Back
Fore
SplineSet
128 585 m 1xa0
 99 668 l 1
 325 763 l 1x60
 357 666 l 1
 128 585 l 1xa0
EndSplineSet
EndChar
StartChar: mu
Encoding: 181 181 223
Width: 560
Flags: MW
HStem: -215 21G<81 81 81 189> -11 92<237.5 279.5> -5 21G<189 189> 0 81<237.5 478 237.5 372> 480 20G<81 189 189 189 370 478 478 478>
VStem: 81 108<-215 -5 169.5 218 218 500> 370 108<155 500 0 500>
LayerCount: 2
Back
Fore
SplineSet
81 -215 m 1xce
 81 500 l 1
 189 500 l 1
 189 218 l 2
 189 121 209 81 266 81 c 0
 320 81 370 155 370 155 c 1xce
 370 500 l 1
 478 500 l 1
 478 0 l 1
 372 0 l 1x9e
 371 60 l 1
 371 60 319 -11 240 -11 c 0xce
 221 -11 204 -9 189 -5 c 1xae
 189 -215 l 1
 81 -215 l 1xce
EndSplineSet
EndChar
StartChar: paragraph
Encoding: 182 182 250
Width: 557
Flags: MW
HStem: 0 21G<209 298 209 209 378 466 378 378> 612 88<298 378 298 298 466 466 466 516>
VStem: 209 89<0 317 317 317> 378 88<0 612 0 612>
LayerCount: 2
Back
Fore
SplineSet
378 0 m 1
 378 612 l 1
 298 612 l 1
 298 0 l 1
 209 0 l 1
 209 317 l 1
 106 317 28 390 28 490 c 0
 28 602 75 700 205 700 c 2
 516 700 l 1
 516 612 l 1
 466 612 l 1
 466 0 l 1
 378 0 l 1
EndSplineSet
EndChar
StartChar: periodcentered
Encoding: 183 183 271
Width: 221
Flags: MW
HStem: 223 147<55 166 55 166>
VStem: 55 111<223 370 223 370>
LayerCount: 2
Back
Fore
SplineSet
55 223 m 1
 55 370 l 1
 166 370 l 1
 166 223 l 1
 55 223 l 1
EndSplineSet
Substitution2: "'case' Case-Sensitive Forms in Latin lookup 4 subtable" periodcentered.cap
EndChar
StartChar: cedilla
Encoding: 184 184 5
Width: 791
Flags: MW
HStem: -221 75<415.5 420 397 465.5> -91 53<377 429 377 429>
VStem: 377 45<-38 5 -38 5 -38 5> 445 89<-127 -106.5>
LayerCount: 2
Back
Fore
SplineSet
534 -124 m 0
 534 -188 495 -221 436 -221 c 0
 395 -221 351 -212 351 -212 c 1
 354 -144 l 1
 354 -144 387 -146 407 -146 c 0
 433 -146 445 -137 445 -117 c 0
 445 -96 429 -91 407 -91 c 2xf0
 377 -91 l 1
 377 5 l 1
 422 5 l 1xe0
 422 -38 l 1
 429 -38 l 2
 481 -38 534 -51 534 -124 c 0
EndSplineSet
EndChar
StartChar: onesuperior
Encoding: 185 185 257
Width: 280
Flags: MW
HStem: 693 21G<117 117> 697 20G<20 20>
VStem: 117 88<478 693 693 693>
LayerCount: 2
Back
Fore
SplineSet
20 717 m 1x60
 125 790 l 1
 205 790 l 1x60
 205 478 l 1
 117 478 l 1
 117 693 l 1
 61 655 l 1xa0
 20 717 l 1x60
EndSplineSet
Substitution2: "Single Substitution lookup 5 subtable" oneinferior
EndChar
StartChar: ordmasculine
Encoding: 186 186 209
Width: 379
Flags: MW
HStem: 332 80<170.5 211.5 170.5 233.5> 579 80<166 205.5>
VStem: 40 89<491 529.5 491 557.5> 250 89<463 504.5>
LayerCount: 2
Back
Fore
SplineSet
188 659 m 0
 249 659 298 642 321 594 c 0
 336 562 339 529 339 498 c 0
 339 378 279 332 188 332 c 0
 112 332 60 363 45 444 c 0
 41 460 40 478 40 498 c 0
 40 617 98 659 188 659 c 0
188 412 m 0
 235 412 250 428 250 498 c 0
 250 511 249 522 248 531 c 0
 242 570 223 579 188 579 c 0
 144 579 129 561 129 498 c 0
 129 484 131 472 132 462 c 0
 137 420 153 412 188 412 c 0
EndSplineSet
EndChar
StartChar: guillemotright
Encoding: 187 187 384
Width: 542
Flags: MW
HStem: 60 366<107 107 107 263>
VStem: 263 40
LayerCount: 2
Back
Fore
SplineSet
263 60 m 1
 263 157 l 1
 371 238 l 1
 263 329 l 1
 263 426 l 1
 459 266 l 1
 459 213 l 1
 263 60 l 1
107 60 m 1
 107 157 l 1
 215 238 l 1
 107 329 l 1
 107 426 l 1
 303 266 l 1
 303 213 l 1
 107 60 l 1
EndSplineSet
EndChar
StartChar: onequarter
Encoding: 188 188 421
Width: 606
Flags: MW
HStem: 0 21G<479 479 479 566> 0 120<432 479 432 566> 41 79<432 479 432 479 566 584> 693 20G 697 20G<7 7>
VStem: 104 88<478 693 693 693> 484 82
LayerCount: 2
Back
Fore
SplineSet
7 717 m 1x4e
 112 790 l 1
 192 790 l 1x4e
 192 478 l 1
 104 478 l 1
 104 693 l 1
 48 655 l 1x56
 7 717 l 1x4e
194 -18 m 1
 95 18 l 1
 360 713 l 1
 459 678 l 1x96
 194 -18 l 1
479 0 m 1x4e
 479 41 l 1
 343 41 l 1
 343 114 l 1x2e
 395 312 l 1
 493 312 l 1
 432 120 l 1
 479 120 l 1
 489 209 l 1
 566 209 l 1
 566 120 l 1
 584 120 l 1x4e
 584 41 l 1
 566 41 l 1x2e
 566 0 l 1
 479 0 l 1x4e
EndSplineSet
EndChar
StartChar: onehalf
Encoding: 189 189 442
Width: 634
Flags: MW
HStem: 0 21G<382 604 382 382> 0 79<496 604 496 604> 238 84<474 481> 693 20G 697 20G<7 7>
VStem: 104 88<478 693 693 693> 382 222<0 75 75 75> 510 92<203.5 223>
LayerCount: 2
Back
Fore
SplineSet
7 717 m 1x6c
 112 790 l 1
 192 790 l 1x6c
 192 478 l 1
 104 478 l 1
 104 693 l 1
 48 655 l 1x74
 7 717 l 1x6c
194 -18 m 1
 95 18 l 1
 360 713 l 1
 459 678 l 1xb4
 194 -18 l 1
604 0 m 1x6e
 382 0 l 1
 382 75 l 1x6e
 462 146 l 2
 494 174 510 193 510 214 c 0
 510 232 494 238 468 238 c 0
 442 238 388 231 388 231 c 1
 384 312 l 1
 384 312 452 322 496 322 c 0
 573 322 602 294 602 226 c 0
 602 181 583 153 544 121 c 2x6d
 496 79 l 1
 604 79 l 1
 604 0 l 1x6e
EndSplineSet
EndChar
StartChar: threequarters
Encoding: 190 190 443
Width: 624
Flags: MW
HStem: 0 21G<497 497 497 584> 0 120<450 497 450 584> 41 79<450 497 450 497 584 602> 468 79<122.5 144.5 112.5 182> 600 72<68 133 133 134 68 133> 693 20G<379 379> 721 79<118.5 137.5>
VStem: 161 92<693.5 706.5> 169 91<565 584> 502 82
LayerCount: 2
Back
Fore
SplineSet
33 791 m 1x5f40
 33 791 98 800 139 800 c 0
 215 800 253 774 253 714 c 0x5f40
 253 673 233 650 219 642 c 1
 245 632 260 614 260 567 c 0
 260 499 217 468 147 468 c 0
 98 468 29 476 29 476 c 1
 35 553 l 1
 35 553 94 547 131 547 c 0
 158 547 169 556 169 574 c 0
 169 594 156 600 134 600 c 2x5cc0
 68 600 l 1
 68 672 l 1
 133 672 l 2
 148 672 161 682 161 698 c 0
 161 715 149 721 126 721 c 0
 86 721 39 715 39 715 c 1
 33 791 l 1x5f40
213 -18 m 1
 114 18 l 1
 379 713 l 1
 478 678 l 1x9cc0
 213 -18 l 1
497 0 m 1x5cc0
 497 41 l 1
 361 41 l 1
 361 114 l 1x3cc0
 413 312 l 1
 511 312 l 1
 450 120 l 1
 497 120 l 1
 507 209 l 1
 584 209 l 1
 584 120 l 1
 602 120 l 1x5cc0
 602 41 l 1
 584 41 l 1x3cc0
 584 0 l 1
 497 0 l 1x5cc0
EndSplineSet
EndChar
StartChar: questiondown
Encoding: 191 191 266
Width: 412
Flags: MW
HStem: -196 97<203.5 253.5> 355 145<182 294 182 294>
VStem: 27 115<-51.5 -0.5 -51.5 15> 182 112<210 297 210 297 355 500>
LayerCount: 2
Back
Fore
SplineSet
27 -20 m 0
 27 50 57 90 134 171 c 0
 165 205 182 228 182 258 c 2
 182 297 l 1
 287 297 l 1
 287 297 294 266 294 237 c 0
 294 183 268 154 209 93 c 0
 160 41 142 19 142 -20 c 0
 142 -83 172 -99 235 -99 c 0
 286 -99 376 -82 376 -82 c 1
 387 -167 l 1
 387 -167 284 -196 223 -196 c 0
 90 -196 27 -150 27 -20 c 0
294 500 m 1
 294 355 l 1
 182 355 l 1
 182 500 l 1
 294 500 l 1
EndSplineSet
Substitution2: "'case' Case-Sensitive Forms in Latin lookup 4 subtable" questiondown.cap
EndChar
StartChar: Aacute
Encoding: 193 193 17
Width: 552
Flags: MW
HStem: 0 21G<17 17 17 128 423 423 423 534> 143 98<184 367 184 388 165 367> 588 97<265 265 265 286>
VStem: 17 517<0 0>
LayerCount: 2
Back
Fore
SplineSet
197 774 m 1
 168 856 l 1
 394 951 l 1
 426 854 l 1
 197 774 l 1
17 0 m 1
 175 685 l 1
 377 685 l 1
 534 0 l 1
 423 0 l 1
 388 143 l 1
 165 143 l 1
 128 0 l 1
 17 0 l 1
265 588 m 1
 184 241 l 1
 367 241 l 1
 286 588 l 1
 265 588 l 1
EndSplineSet
Position2: "'cpsp' Capital Spacing in Latin lookup 0 subtable" dx=5 dy=0 dh=10 dv=0
EndChar
StartChar: Atilde
Encoding: 195 195 25
Width: 552
Flags: MW
HStem: 0 21G<17 17 17 128 423 423 423 534> 143 98<184 367 184 388 165 367> 588 97<265 265 265 286> 790 96<343.5 368.5 343.5 379> 838 96<188 218.5>
VStem: 17 517<0 0>
LayerCount: 2
Back
Fore
SplineSet
432 927 m 1xf4
 453 852 l 1
 453 852 400 790 358 790 c 0xf4
 311 790 236 838 201 838 c 0
 175 838 125 796 125 796 c 1
 105 871 l 1
 105 871 158 934 202 934 c 0xec
 256 934 330 886 357 886 c 0
 380 886 432 927 432 927 c 1xf4
17 0 m 1
 175 685 l 1
 377 685 l 1
 534 0 l 1
 423 0 l 1
 388 143 l 1
 165 143 l 1
 128 0 l 1
 17 0 l 1
265 588 m 1
 184 241 l 1
 367 241 l 1
 286 588 l 1
 265 588 l 1
EndSplineSet
Position2: "'cpsp' Capital Spacing in Latin lookup 0 subtable" dx=5 dy=0 dh=10 dv=0
EndChar
StartChar: Adieresis
Encoding: 196 196 21
Width: 552
Flags: MW
HStem: 0 21G<17 17 17 128 423 423 423 534> 143 98<184 367 184 388 165 367> 588 97<265 265 265 286> 799 117<137 225 137 225 331 419 137 331>
VStem: 137 88<799 916 799 916> 331 88<799 916 799 916>
LayerCount: 2
Back
Fore
SplineSet
137 799 m 1
 137 916 l 1
 225 916 l 1
 225 799 l 1
 137 799 l 1
331 799 m 1
 331 916 l 1
 419 916 l 1
 419 799 l 1
 331 799 l 1
17 0 m 1
 175 685 l 1
 377 685 l 1
 534 0 l 1
 423 0 l 1
 388 143 l 1
 165 143 l 1
 128 0 l 1
 17 0 l 1
265 588 m 1
 184 241 l 1
 367 241 l 1
 286 588 l 1
 265 588 l 1
EndSplineSet
Position2: "'cpsp' Capital Spacing in Latin lookup 0 subtable" dx=5 dy=0 dh=10 dv=0
EndChar
StartChar: Aring
Encoding: 197 197 24
Width: 552
Flags: MW
HStem: 0 21G<17 17 17 128 423 423 423 534> 143 98<184 367 184 388 165 367> 588 101<265 265 265 286> 665 21G<381 381> 766 71<262 292.5>
VStem: 157 71<715 739 714.5 765> 326 71<714.5 739>
LayerCount: 2
Back
Fore
SplineSet
17 0 m 1xde
 171 667 l 1
 162 683 157 703 157 727 c 0
 157 803 205 837 277 837 c 0
 345 837 397 802 397 727 c 0
 397 702 391 681 381 665 c 1
 534 0 l 1
 423 0 l 1
 388 143 l 1
 165 143 l 1
 128 0 l 1
 17 0 l 1xde
265 588 m 1xee
 184 241 l 1
 367 241 l 1
 286 588 l 1
 265 588 l 1xee
228 727 m 0
 228 702 247 689 277 689 c 0
 308 689 326 702 326 727 c 0
 326 751 308 766 277 766 c 0
 247 766 228 751 228 727 c 0
EndSplineSet
Position2: "'cpsp' Capital Spacing in Latin lookup 0 subtable" dx=5 dy=0 dh=10 dv=0
EndChar
StartChar: AE
Encoding: 198 198 26
Width: 761
Flags: MW
HStem: 0 105<430 723 430 723 326 723> 144 104<178 326 178 326 156 326> 294 101<430 666 430 666> 587 106<430 723 430 430>
VStem: 326 104<105 144 144 144 248 294 395 587>
LayerCount: 2
Back
Fore
SplineSet
326 0 m 1
 326 144 l 1
 156 144 l 1
 121 0 l 1
 16 0 l 1
 176 693 l 1
 723 693 l 1
 723 587 l 1
 430 587 l 1
 430 395 l 1
 666 395 l 1
 666 294 l 1
 430 294 l 1
 430 105 l 1
 723 105 l 1
 723 0 l 1
 326 0 l 1
257 588 m 1
 178 248 l 1
 326 248 l 1
 326 588 l 1
 257 588 l 1
EndSplineSet
Position2: "'cpsp' Capital Spacing in Latin lookup 0 subtable" dx=5 dy=0 dh=10 dv=0
EndChar
StartChar: Ccedilla
Encoding: 199 199 32
Width: 499
Flags: MW
HStem: -221 75<281.5 286 263 331.5> -91 53<243 295 243 295> -11 21G -11 97<288 288> -8 21G<243 243> 599 97<248.5 324 197.5 332.5>
VStem: 46 115<263.5 430.5 263.5 463> 243 45<-38 -11 -38 -8 -38 -8> 311 89<-127 -106.5>
LayerCount: 2
Back
Fore
SplineSet
461 100 m 1x97
 465 10 l 1x97
 465 10 370 -10 288 -11 c 1xa7
 288 -38 l 1
 295 -38 l 2
 347 -38 400 -51 400 -124 c 0
 400 -188 361 -221 302 -221 c 0
 261 -221 217 -212 217 -212 c 1
 220 -144 l 1
 220 -144 253 -146 273 -146 c 0
 299 -146 311 -137 311 -117 c 0
 311 -96 295 -91 273 -91 c 2xcf80
 243 -91 l 1xcf
 243 -8 l 1x8f
 86 10 46 138 46 344 c 0
 46 582 109 696 286 696 c 0
 362 696 466 673 466 673 c 1
 461 585 l 1
 461 585 362 599 303 599 c 0
 194 599 161 517 161 344 c 0
 161 183 187 86 306 86 c 0
 359 86 461 100 461 100 c 1x97
EndSplineSet
Position2: "'cpsp' Capital Spacing in Latin lookup 0 subtable" dx=5 dy=0 dh=10 dv=0
EndChar
StartChar: Edieresis
Encoding: 203 203 43
Width: 504
Flags: MW
HStem: 0 97<181 466 181 466> 296 98<181 410 181 410> 588 97<181 466 181 181> 799 117<133 221 133 221 327 415 133 327>
VStem: 69 112<97 296 394 588> 133 88<799 916 799 916> 327 88<799 916 799 916>
LayerCount: 2
Back
Fore
SplineSet
133 799 m 1xf6
 133 916 l 1
 221 916 l 1
 221 799 l 1
 133 799 l 1xf6
327 799 m 1
 327 916 l 1
 415 916 l 1
 415 799 l 1
 327 799 l 1
69 0 m 1xfa
 69 685 l 1
 466 685 l 1
 466 588 l 1
 181 588 l 1
 181 394 l 1
 410 394 l 1
 410 296 l 1
 181 296 l 1
 181 97 l 1
 466 97 l 1
 466 0 l 1
 69 0 l 1xfa
EndSplineSet
Position2: "'cpsp' Capital Spacing in Latin lookup 0 subtable" dx=5 dy=0 dh=10 dv=0
EndChar
StartChar: Igrave
Encoding: 204 204 63
Width: 250
Flags: MW
HStem: 0 21G<69 69 69 181>
VStem: 69 112<0 685 0 685>
LayerCount: 2
Back
Fore
SplineSet
-18 942 m 1
 209 850 l 1
 179 765 l 1
 -50 846 l 1
 -18 942 l 1
69 0 m 1
 69 685 l 1
 181 685 l 1
 181 0 l 1
 69 0 l 1
EndSplineSet
Position2: "'cpsp' Capital Spacing in Latin lookup 0 subtable" dx=5 dy=0 dh=10 dv=0
EndChar
StartChar: Iacute
Encoding: 205 205 58
Width: 250
Flags: MW
HStem: 0 21G<69 69 69 181>
VStem: 69 112<0 685 0 685>
LayerCount: 2
Back
Fore
SplineSet
67 774 m 1
 38 856 l 1
 264 951 l 1
 296 854 l 1
 67 774 l 1
69 0 m 1
 69 685 l 1
 181 685 l 1
 181 0 l 1
 69 0 l 1
EndSplineSet
Position2: "'cpsp' Capital Spacing in Latin lookup 0 subtable" dx=5 dy=0 dh=10 dv=0
EndChar
StartChar: Icircumflex
Encoding: 206 206 60
Width: 250
Flags: MW
HStem: 0 21G<69 69 69 181> 786 146<-40 157 -40 157 93 189 93 291>
VStem: 69 112<0 685 0 685>
LayerCount: 2
Back
Fore
SplineSet
-40 786 m 1
 93 932 l 1
 157 932 l 1
 291 786 l 1
 189 786 l 1
 126 856 l 1
 62 786 l 1
 -40 786 l 1
69 0 m 1
 69 685 l 1
 181 685 l 1
 181 0 l 1
 69 0 l 1
EndSplineSet
Position2: "'cpsp' Capital Spacing in Latin lookup 0 subtable" dx=5 dy=0 dh=10 dv=0
EndChar
StartChar: Idieresis
Encoding: 207 207 61
Width: 250
Flags: MW
HStem: 0 21G<69 69 69 181> 808 117<-17 71 -17 71 177 265 -17 177>
VStem: -17 88<808 925 808 925> 69 112<0 685 0 685> 177 88<808 925 808 925>
LayerCount: 2
Back
Fore
SplineSet
-17 808 m 1xe8
 -17 925 l 1
 71 925 l 1
 71 808 l 1
 -17 808 l 1xe8
177 808 m 1
 177 925 l 1
 265 925 l 1
 265 808 l 1
 177 808 l 1
69 0 m 1xd0
 69 685 l 1
 181 685 l 1
 181 0 l 1
 69 0 l 1xd0
EndSplineSet
Position2: "'cpsp' Capital Spacing in Latin lookup 0 subtable" dx=5 dy=0 dh=10 dv=0
EndChar
StartChar: Eth
Encoding: 208 208 407
Width: 600
Flags: MW
HStem: 0 98<186 298 186 298> 290 110<20 74 20 74 186 315> 588 97<186 298 186 186>
VStem: 74 112<98 290 98 290 98 290 400 588> 439 115<280 435.5>
LayerCount: 2
Back
Fore
SplineSet
298 0 m 2
 74 0 l 1
 74 290 l 1
 20 290 l 1
 20 400 l 1
 74 400 l 1
 74 685 l 1
 298 685 l 2
 502 685 554 582 554 359 c 0
 554 123 505 0 298 0 c 2
439 359 m 0
 439 512 423 588 298 588 c 2
 186 588 l 1
 186 400 l 1
 315 400 l 1
 315 290 l 1
 186 290 l 1
 186 98 l 1
 298 98 l 2
 423 98 439 201 439 359 c 0
EndSplineSet
Position2: "'cpsp' Capital Spacing in Latin lookup 0 subtable" dx=5 dy=0 dh=10 dv=0
EndChar
StartChar: Ntilde
Encoding: 209 209 81
Width: 640
Flags: MW
HStem: 0 117<396 464 451 464 451 571> 574 111<181 195 181 181> 788 96<386.5 411.5 386.5 422> 836 96<231 261.5>
VStem: 69 112<0 574 0 685 0 685> 464 107<117 685 0 685>
LayerCount: 2
Back
Fore
SplineSet
475 925 m 1xec
 496 850 l 1
 496 850 443 788 401 788 c 0xec
 354 788 279 836 244 836 c 0
 218 836 168 794 168 794 c 1
 148 869 l 1
 148 869 201 932 245 932 c 0xdc
 299 932 373 884 400 884 c 0
 423 884 475 925 475 925 c 1xec
69 0 m 1
 69 685 l 1
 250 685 l 1
 451 117 l 1
 464 117 l 1
 464 685 l 1
 571 685 l 1
 571 0 l 1
 396 0 l 1
 195 574 l 1
 181 574 l 1
 181 0 l 1
 69 0 l 1
EndSplineSet
Position2: "'cpsp' Capital Spacing in Latin lookup 0 subtable" dx=5 dy=0 dh=10 dv=0
EndChar
StartChar: Ograve
Encoding: 210 210 87
Width: 601
Flags: MW
HStem: -11 97<240.5 315 240.5 329.5> 599 97<286 360>
VStem: 45 115<254 421.5 254 433> 441 115<277.5 444>
LayerCount: 2
Back
Fore
SplineSet
184 942 m 1
 411 850 l 1
 381 765 l 1
 152 846 l 1
 184 942 l 1
300 86 m 0
 330 86 353 91 372 100 c 0
 428 130 441 206 441 349 c 0
 441 539 420 599 300 599 c 0
 272 599 249 595 231 588 c 0
 171 563 160 494 160 349 c 0
 160 159 181 86 300 86 c 0
300 -11 m 0
 104 -11 45 101 45 349 c 0
 45 517 72 617 150 663 c 0
 188 686 237 696 300 696 c 0
 497 696 556 597 556 349 c 0
 556 175 527 68 442 20 c 0
 406 -1 359 -11 300 -11 c 0
EndSplineSet
Position2: "'cpsp' Capital Spacing in Latin lookup 0 subtable" dx=5 dy=0 dh=10 dv=0
EndChar
StartChar: Odieresis
Encoding: 214 214 86
Width: 601
Flags: MW
HStem: -11 97<240.5 315 240.5 329.5> 599 97<286 360> 802 117<153 251 153 251 351 448 153 351>
VStem: 45 115<254 421.5 254 433> 153 98<802 919 802 919> 351 97<802 919 802 919> 441 115<277.5 444>
LayerCount: 2
Back
Fore
SplineSet
153 802 m 1xec
 153 919 l 1
 251 919 l 1
 251 802 l 1
 153 802 l 1xec
351 802 m 1
 351 919 l 1
 448 919 l 1
 448 802 l 1
 351 802 l 1
300 86 m 0
 330 86 353 91 372 100 c 0
 428 130 441 206 441 349 c 0
 441 539 420 599 300 599 c 0
 272 599 249 595 231 588 c 0
 171 563 160 494 160 349 c 0xf2
 160 159 181 86 300 86 c 0
300 -11 m 0xf2
 104 -11 45 101 45 349 c 0
 45 517 72 617 150 663 c 0
 188 686 237 696 300 696 c 0
 497 696 556 597 556 349 c 0
 556 175 527 68 442 20 c 0
 406 -1 359 -11 300 -11 c 0xf2
EndSplineSet
Position2: "'cpsp' Capital Spacing in Latin lookup 0 subtable" dx=5 dy=0 dh=10 dv=0
EndChar
StartChar: multiply
Encoding: 215 215 183
Width: 560
Flags: MW
HStem: 33 435<132 429 428 429>
VStem: 62 435<102 102>
LayerCount: 2
Back
Fore
SplineSet
132 467 m 1
 280 317 l 1
 429 468 l 1
 497 399 l 1
 346 250 l 1
 497 102 l 1
 428 33 l 1
 280 184 l 1
 132 33 l 1
 62 102 l 1
 213 250 l 1
 63 398 l 1
 132 467 l 1
EndSplineSet
EndChar
StartChar: Oslash
Encoding: 216 216 90
Width: 601
Flags: MW
HStem: -11 97<287 315 287 329.5> 599 97<286 315>
VStem: 45 115<304.5 421.5 304.5 433> 441 115<277.5 388.5>
LayerCount: 2
Back
Fore
SplineSet
140 -118 m 1
 76 -85 l 1
 131 39 l 1
 67 94 45 195 45 349 c 0
 45 517 72 617 150 663 c 0
 188 686 237 696 300 696 c 0
 345 696 383 691 414 680 c 1
 468 801 l 1
 536 776 l 1
 477 643 l 1
 535 591 556 496 556 349 c 0
 556 175 527 68 442 20 c 0
 406 -1 359 -11 300 -11 c 0
 259 -11 224 -6 194 4 c 1
 140 -118 l 1
182 154 m 1
 272 358 l 1
 373 586 l 1
 354 595 330 599 300 599 c 0
 272 599 249 595 231 588 c 0
 171 563 160 494 160 349 c 0
 160 260 165 196 182 154 c 1
300 86 m 0
 330 86 353 91 372 100 c 0
 428 130 441 206 441 349 c 0
 441 428 437 485 424 524 c 1
 337 327 l 1
 235 97 l 1
 252 89 274 86 300 86 c 0
EndSplineSet
Position2: "'cpsp' Capital Spacing in Latin lookup 0 subtable" dx=5 dy=0 dh=10 dv=0
EndChar
StartChar: Ugrave
Encoding: 217 217 115
Width: 597
Flags: MW
HStem: -11 97<255 343 255 380>
VStem: 65 112<222 685> 421 111<213 222 222 685>
LayerCount: 2
Back
Fore
SplineSet
177 685 m 1
 177 213 l 2
 177 123 211 86 299 86 c 0
 387 86 421 122 421 213 c 2
 421 685 l 1
 532 685 l 1
 532 222 l 2
 532 60 461 -11 299 -11 c 0
 136 -11 65 60 65 222 c 2
 65 685 l 1
 177 685 l 1
194 942 m 1
 421 850 l 1
 391 765 l 1
 162 846 l 1
 194 942 l 1
EndSplineSet
Position2: "'cpsp' Capital Spacing in Latin lookup 0 subtable" dx=5 dy=0 dh=10 dv=0
EndChar
StartChar: Udieresis
Encoding: 220 220 114
Width: 597
Flags: MW
HStem: -11 97<255 343 255 380> 802 117<151 250 151 250 349 446 151 349>
VStem: 65 112<222 685> 151 99<802 919 802 919> 349 97<802 919 802 919> 421 111<213 222 222 685>
LayerCount: 2
Back
Fore
SplineSet
151 802 m 1xd8
 151 919 l 1
 250 919 l 1
 250 802 l 1
 151 802 l 1xd8
349 802 m 1
 349 919 l 1
 446 919 l 1
 446 802 l 1
 349 802 l 1
177 685 m 1xe4
 177 213 l 2
 177 123 211 86 299 86 c 0
 387 86 421 122 421 213 c 2
 421 685 l 1
 532 685 l 1
 532 222 l 2
 532 60 461 -11 299 -11 c 0
 136 -11 65 60 65 222 c 2
 65 685 l 1
 177 685 l 1xe4
EndSplineSet
Position2: "'cpsp' Capital Spacing in Latin lookup 0 subtable" dx=5 dy=0 dh=10 dv=0
EndChar
StartChar: Yacute
Encoding: 221 221 129
Width: 501
Flags: MW
HStem: 0 21G<199 303 199 199>
VStem: 199 104<0 281 0 281>
LayerCount: 2
Back
Fore
SplineSet
178 774 m 1
 149 856 l 1
 375 951 l 1
 407 854 l 1
 178 774 l 1
495 685 m 1
 303 281 l 1
 303 0 l 1
 199 0 l 1
 199 281 l 1
 4 685 l 1
 122 685 l 1
 250 400 l 1
 377 685 l 1
 495 685 l 1
EndSplineSet
Position2: "'cpsp' Capital Spacing in Latin lookup 0 subtable" dx=5 dy=0 dh=10 dv=0
EndChar
StartChar: Thorn
Encoding: 222 222 192
Width: 552
Flags: MW
HStem: 0 21G<69 180 69 69> 108 98<180 296 296 297 180 296> 492 97<180 296 180 297>
VStem: 69 111<0 108 206 492 589 693> 410 115<309.5 387>
LayerCount: 2
Back
Fore
SplineSet
296 206 m 2
 374 206 410 268 410 351 c 0
 410 423 378 492 296 492 c 2
 180 492 l 1
 180 206 l 1
 296 206 l 2
297 108 m 2
 180 108 l 1
 180 0 l 1
 69 0 l 1
 69 693 l 1
 180 693 l 1
 180 589 l 1
 297 589 l 2
 426 589 525 518 525 351 c 0
 525 196 444 108 297 108 c 2
EndSplineSet
Position2: "'cpsp' Capital Spacing in Latin lookup 0 subtable" dx=5 dy=0 dh=10 dv=0
EndChar
StartChar: germandbls
Encoding: 223 223 188
Width: 546
Flags: MW
HStem: -11 92<320 363.5 316.5 407.5> 0 81 626 93<232.5 299.5>
VStem: 60 102<0 521 521 524> 223 103<368 393.5 368 404> 362 103<549.5 589> 420 102<132 175>
LayerCount: 2
Back
Fore
SplineSet
162 0 m 1x7c
 60 0 l 1
 60 521 l 2
 60 672 127 719 264 719 c 0
 406 719 465 678 465 569 c 0x7c
 465 498 441 468 381 438 c 0
 340 417 326 406 326 381 c 0
 326 355 347 341 402 315 c 0
 484 273 522 243 522 165 c 0
 522 32 464 -11 351 -11 c 0
 289 -11 211 6 211 6 c 1
 214 86 l 1
 214 86 306 81 327 81 c 0
 400 81 420 108 420 156 c 0xba
 420 194 401 208 333 241 c 0
 262 274 223 305 223 371 c 0
 223 437 238 460 297 491 c 0
 349 518 362 534 362 565 c 0
 362 613 335 626 264 626 c 0
 201 626 162 607 162 524 c 2
 162 0 l 1x7c
EndSplineSet
EndChar
StartChar: aacute
Encoding: 225 225 161
Width: 504
Flags: MW
HStem: -11 92<196 247.5> -3 21G<341 341> 1 21G<449 449> 419 92<211 263> 491 20G<159.5 274.5> 666 21G<427 427> 668 21G<169 169>
VStem: 39 110<194 300.5 194 319> 336 108<53.5 134 166 411 411 411>
LayerCount: 2
Back
Fore
SplineSet
205 -11 m 0x9380
 83 -11 39 75 39 242 c 0
 39 396 78 511 241 511 c 0x9380
 308 511 444 493 444 493 c 1
 444 134 l 2
 444 99 449 1 449 1 c 1x2b80
 341 -3 l 1x5380
 341 -3 336 37 336 70 c 1
 336 70 290 -11 205 -11 c 0x9380
251 419 m 0
 171 419 149 359 149 242 c 0
 149 146 163 81 229 81 c 0
 292 81 336 166 336 166 c 1
 336 411 l 1
 336 411 275 419 251 419 c 0
198 585 m 1x9580
 169 668 l 1
 395 763 l 1x9380
 427 666 l 1
 198 585 l 1x9580
EndSplineSet
EndChar
StartChar: acircumflex
Encoding: 226 226 163
Width: 504
Flags: MW
HStem: -11 92<196 247.5> -3 21G<341 341> 1 21G<449 449> 419 92<211 263> 491 20G<159.5 274.5> 580 165<98 301 98 301 221 315 221 426>
VStem: 39 110<194 300.5 194 319> 336 108<53.5 134 166 411 411 411>
LayerCount: 2
Back
Fore
SplineSet
98 580 m 1x97
 221 745 l 1
 301 745 l 1
 426 580 l 1
 315 580 l 1
 262 652 l 1
 208 580 l 1
 98 580 l 1x97
205 -11 m 0
 83 -11 39 75 39 242 c 0
 39 396 78 511 241 511 c 0x97
 308 511 444 493 444 493 c 1
 444 134 l 2
 444 99 449 1 449 1 c 1x2f
 341 -3 l 1x57
 341 -3 336 37 336 70 c 1
 336 70 290 -11 205 -11 c 0
251 419 m 0
 171 419 149 359 149 242 c 0
 149 146 163 81 229 81 c 0
 292 81 336 166 336 166 c 1
 336 411 l 1
 336 411 275 419 251 419 c 0
EndSplineSet
EndChar
StartChar: atilde
Encoding: 227 227 165
Width: 504
Flags: MW
HStem: -11 92<196 247.5> -3 21G<341 341> 1 21G<449 449> 419 92<211 263> 491 20G<159.5 274.5> 600 96<330 354.5 330 364> 646 95<190.5 218.5> 660 21G
VStem: 39 110<194 300.5 194 319> 336 108<53.5 134 166 411 411 411>
LayerCount: 2
Back
Fore
SplineSet
205 -11 m 0x91c0
 83 -11 39 75 39 242 c 0
 39 396 78 511 241 511 c 0x91c0
 308 511 444 493 444 493 c 1
 444 134 l 2
 444 99 449 1 449 1 c 1x29c0
 341 -3 l 1x51c0
 341 -3 336 37 336 70 c 1
 336 70 290 -11 205 -11 c 0x91c0
251 419 m 0
 171 419 149 359 149 242 c 0
 149 146 163 81 229 81 c 0
 292 81 336 166 336 166 c 1
 336 411 l 1
 336 411 275 419 251 419 c 0
415 735 m 1x94c0
 435 660 l 1x91c0
 435 660 385 600 343 600 c 0x94c0
 297 600 234 646 203 646 c 0
 178 646 129 605 129 605 c 1
 110 681 l 1
 110 681 160 741 205 741 c 0x92c0
 254 741 317 696 343 696 c 0
 366 696 415 735 415 735 c 1x94c0
EndSplineSet
EndChar
StartChar: adieresis
Encoding: 228 228 164
Width: 504
Flags: MW
HStem: -11 92<196 247.5> -3 21G<341 341> 1 21G<449 449> 419 92<211 263> 491 20G<159.5 274.5> 609 117<111 209 111 209 309 406 111 309>
VStem: 39 110<194 300.5 194 319> 111 98<609 726 609 726> 309 97<609 726 609 726> 336 108<53.5 134 166 411 411 411>
LayerCount: 2
Back
Fore
SplineSet
111 609 m 1x9540
 111 726 l 1
 209 726 l 1
 209 609 l 1
 111 609 l 1x9540
309 609 m 1x9680
 309 726 l 1
 406 726 l 1
 406 609 l 1
 309 609 l 1x9680
205 -11 m 0
 83 -11 39 75 39 242 c 0
 39 396 78 511 241 511 c 0x9640
 308 511 444 493 444 493 c 1
 444 134 l 2
 444 99 449 1 449 1 c 1x2d40
 341 -3 l 1x5540
 341 -3 336 37 336 70 c 1x9540
 336 70 290 -11 205 -11 c 0
251 419 m 0x9640
 171 419 149 359 149 242 c 0
 149 146 163 81 229 81 c 0
 292 81 336 166 336 166 c 1
 336 411 l 1
 336 411 275 419 251 419 c 0x9640
EndSplineSet
EndChar
StartChar: aring
Encoding: 229 229 166
Width: 504
Flags: MW
HStem: -11 92<196 247.5> -3 21G<341 341> 1 21G<449 449> 419 92<211 263> 491 20G<159.5 274.5> 555 66<261.5 282 261.5 300.5> 694 68<261.5 282>
VStem: 39 110<194 300.5 194 319> 175 60<647.5 668 647.5 688.5> 308 60<647.5 668> 336 108<53.5 134 166 411 411 411>
LayerCount: 2
Back
Fore
SplineSet
205 -11 m 0x9720
 83 -11 39 75 39 242 c 0
 39 396 78 511 241 511 c 0x9720
 308 511 444 493 444 493 c 1
 444 134 l 2
 444 99 449 1 449 1 c 1x2f20
 341 -3 l 1x5720
 341 -3 336 37 336 70 c 1
 336 70 290 -11 205 -11 c 0x9720
251 419 m 0
 171 419 149 359 149 242 c 0
 149 146 163 81 229 81 c 0
 292 81 336 166 336 166 c 1
 336 411 l 1
 336 411 275 419 251 419 c 0
175 658 m 0x97c0
 175 719 212 762 272 762 c 0
 330 762 368 719 368 658 c 0
 368 593 329 555 272 555 c 0
 212 555 175 593 175 658 c 0x97c0
235 658 m 0
 235 637 251 621 272 621 c 0
 292 621 308 637 308 658 c 0
 308 678 292 694 272 694 c 0
 251 694 235 678 235 658 c 0
EndSplineSet
EndChar
StartChar: ae
Encoding: 230 230 224
Width: 731
Flags: MW
HStem: -11 94<168 200> -11 99<480.5 540.5 480.5 543.5> 203 86<403 593 403 695 403 593> 227 84<299 299> 408 102<208 271> 416 94<475 520.5>
VStem: 30 104<136.5 172 136.5 195> 299 104<192 227 311 329.5> 593 102<203 306>
LayerCount: 2
Back
Fore
SplineSet
507 88 m 0x6780
 574 88 677 97 677 97 c 1
 679 12 l 1
 679 12 588 -11 499 -11 c 0
 436 -11 385 6 353 40 c 1
 288 7 229 -11 171 -11 c 0
 82 -11 30 61 30 147 c 0
 30 243 78 282 147 296 c 0
 191 304 243 308 299 311 c 1
 299 353 300 408 242 408 c 0
 171 408 60 395 60 395 c 1x5b80
 56 492 l 1
 56 492 173 510 243 510 c 0
 300 510 344 494 369 455 c 1
 402 494 447 510 503 510 c 0
 600 510 659 464 683 379 c 0
 691 349 695 318 695 265 c 2
 695 203 l 1
 403 203 l 1
 403 181 406 163 412 146 c 0
 425 109 454 88 507 88 c 0x6780
187 83 m 0x9780
 227 83 289 98 317 105 c 1
 303 138 299 179 299 227 c 1
 267 225 216 221 195 218 c 0
 155 213 134 192 134 152 c 0
 134 121 149 83 187 83 c 0x9780
403 289 m 1x6780
 593 289 l 1
 593 323 589 350 580 370 c 0
 566 401 541 416 500 416 c 0
 431 416 403 370 403 289 c 1x6780
EndSplineSet
EndChar
StartChar: ccedilla
Encoding: 231 231 189
Width: 401
Flags: MW
HStem: -221 75<220.5 225 202 270.5> -91 53<182 234 182 234> -11 94<227 232 227 227> -6 21G<182 182> 416 94<218 267 168 280> 490 20G<168 267>
VStem: 39 110<200 308.5 200 341.5> 182 45<-38 -11 -38 -6 -38 -6> 250 89<-127 -106.5>
LayerCount: 2
Back
Fore
SplineSet
235 510 m 0xab
 299 510 368 492 368 492 c 1xa7
 365 409 l 1
 365 409 298 416 262 416 c 0
 174 416 149 363 149 254 c 0
 149 146 166 83 262 83 c 0
 298 83 365 90 365 90 c 1
 368 8 l 1
 368 8 297 -11 232 -11 c 2
 227 -11 l 1xab
 227 -38 l 1
 234 -38 l 2
 286 -38 339 -51 339 -124 c 0
 339 -188 300 -221 241 -221 c 0
 200 -221 156 -212 156 -212 c 1
 159 -144 l 1
 159 -144 192 -146 212 -146 c 0
 238 -146 250 -137 250 -117 c 0
 250 -96 234 -91 212 -91 c 2xeb80
 182 -91 l 1
 182 -6 l 1xdb
 72 14 39 106 39 254 c 0
 39 429 101 510 235 510 c 0xab
EndSplineSet
EndChar
StartChar: egrave
Encoding: 232 232 168
Width: 459
Flags: MW
HStem: -10 93<214 282.5 214 287> 210 81<147 187 147 187 146 187> 423 87<208.5 269.5> 670 21G<350 350> 671 21G<92 92>
VStem: 37 109<160.5 194 194 210 160.5 314.5> 321 107<331.5 384.5>
LayerCount: 2
Back
Fore
SplineSet
248 83 m 0xee
 317 83 405 98 405 98 c 1
 408 20 l 1
 408 20 334 -10 240 -10 c 0
 99 -10 37 67 37 236 c 0
 37 393 94 510 244 510 c 0
 361 510 428 468 428 362 c 0
 428 237 345 210 187 210 c 2
 146 210 l 1
 146 194 l 2
 146 127 180 83 248 83 c 0xee
147 291 m 1
 187 291 l 2
 280 291 321 302 321 361 c 0
 321 408 295 423 244 423 c 0
 173 423 148 369 147 291 c 1
123 761 m 1
 350 670 l 1
 323 590 l 1xf6
 92 671 l 1
 123 761 l 1
EndSplineSet
EndChar
StartChar: edieresis
Encoding: 235 235 170
Width: 459
Flags: MW
HStem: -10 93<214 282.5 214 287> 210 81<147 187 147 187 146 187> 423 87<208.5 269.5> 609 117<105 203 105 203 303 400 105 303>
VStem: 37 109<160.5 194 194 210 160.5 314.5> 105 98<609 726 609 726> 303 97<609 726 609 726> 321 107<331.5 384.5>
LayerCount: 2
Back
Fore
SplineSet
105 609 m 1xf6
 105 726 l 1
 203 726 l 1
 203 609 l 1
 105 609 l 1xf6
303 609 m 1
 303 726 l 1
 400 726 l 1
 400 609 l 1
 303 609 l 1
248 83 m 0
 317 83 405 98 405 98 c 1
 408 20 l 1
 408 20 334 -10 240 -10 c 0
 99 -10 37 67 37 236 c 0
 37 393 94 510 244 510 c 0
 361 510 428 468 428 362 c 0
 428 237 345 210 187 210 c 2
 146 210 l 1
 146 194 l 2xf9
 146 127 180 83 248 83 c 0
147 291 m 1xf9
 187 291 l 2
 280 291 321 302 321 361 c 0
 321 408 295 423 244 423 c 0
 173 423 148 369 147 291 c 1xf9
EndSplineSet
EndChar
StartChar: igrave
Encoding: 236 236 186
Width: 228
Flags: MW
HStem: 0 21G<60 60 60 168> 480 20G<60 168 168 168> 670 21G<194 194> 671 21G<-64 -64>
VStem: 60 108<0 500 0 500>
LayerCount: 2
Back
Fore
SplineSet
60 0 m 1xd8
 60 500 l 1
 168 500 l 1
 168 0 l 1
 60 0 l 1xd8
-33 761 m 1
 194 670 l 1
 167 590 l 1xe8
 -64 671 l 1
 -33 761 l 1
EndSplineSet
EndChar
StartChar: iacute
Encoding: 237 237 185
Width: 228
Flags: MW
HStem: 0 21G<60 60 60 168> 480 20G<60 168 168 168> 666 21G<298 298> 668 21G<40 40>
VStem: 60 108<0 500 0 500>
LayerCount: 2
Back
Fore
SplineSet
60 0 m 1xd8
 60 500 l 1
 168 500 l 1
 168 0 l 1
 60 0 l 1xd8
69 585 m 1xe8
 40 668 l 1
 266 763 l 1xd8
 298 666 l 1
 69 585 l 1xe8
EndSplineSet
EndChar
StartChar: icircumflex
Encoding: 238 238 187
Width: 228
Flags: MW
HStem: 0 21G<60 60 60 168> 480 20G<60 168 168 168> 580 165<-49 154 -49 154 73 167 73 278>
VStem: 60 108<0 500 0 500>
LayerCount: 2
Back
Fore
SplineSet
-49 580 m 1
 73 745 l 1
 154 745 l 1
 278 580 l 1
 167 580 l 1
 115 652 l 1
 61 580 l 1
 -49 580 l 1
60 0 m 1
 60 500 l 1
 168 500 l 1
 168 0 l 1
 60 0 l 1
EndSplineSet
EndChar
StartChar: idieresis
Encoding: 239 239 171
Width: 228
Flags: MW
HStem: 0 21G<60 60 60 168> 480 20G<60 168 168 168> 609 117<-33 65 -33 65 165 262 -33 165>
VStem: -33 98<609 726 609 726> 60 108<0 500 0 500> 165 97<609 726 609 726>
LayerCount: 2
Back
Fore
SplineSet
-33 609 m 1xf4
 -33 726 l 1
 65 726 l 1
 65 609 l 1
 -33 609 l 1xf4
165 609 m 1
 165 726 l 1
 262 726 l 1
 262 609 l 1
 165 609 l 1
60 0 m 1xe8
 60 500 l 1
 168 500 l 1
 168 0 l 1
 60 0 l 1xe8
EndSplineSet
EndChar
StartChar: eth
Encoding: 240 240 191
Width: 522
Flags: MW
HStem: -9 104<214.5 293.5 214.5 334.5> 336 99<212.5 270 173 277> 688 20G<97 97>
VStem: 36 110<181 254 181 286> 374 108<407 407>
LayerCount: 2
Back
Fore
SplineSet
251 566 m 1
 156 490 l 1
 109 552 l 1
 162 594 l 1
 138 601 110 607 80 613 c 1
 97 708 l 1
 158 701 213 690 260 673 c 1
 346 741 l 1
 394 680 l 1
 339 636 l 1
 432 579 482 488 482 355 c 0
 482 100 417 -9 252 -9 c 0
 106 -9 36 77 36 215 c 0
 36 357 109 435 237 435 c 0
 303 435 374 407 374 407 c 1
 365 486 334 531 251 566 c 1
244 336 m 0
 181 336 146 294 146 214 c 0
 146 148 177 95 252 95 c 0
 335 95 373 154 374 308 c 0
 371 310 310 336 244 336 c 0
EndSplineSet
EndChar
StartChar: ntilde
Encoding: 241 241 172
Width: 512
Flags: MW
HStem: 600 96<326 350.5 326 360> 646 95<186.5 214.5> 660 21G
VStem: 168 181<0 282 0 345 0 345>
LayerCount: 2
Back
Fore
SplineSet
60 0 m 1x30
 168 0 l 1
 168 345 l 1
 168 345 218 419 272 419 c 0
 330 419 349 379 349 282 c 2
 349 0 l 1
 457 0 l 1
 457 310 l 2
 457 424 414 511 298 511 c 0
 219 511 167 440 167 440 c 1
 166 500 l 1
 60 500 l 1
 60 0 l 1x30
411 735 m 1x90
 431 660 l 1x30
 431 660 381 600 339 600 c 0x90
 293 600 230 646 199 646 c 0
 174 646 125 605 125 605 c 1
 106 681 l 1
 106 681 156 741 201 741 c 0x50
 250 741 313 696 339 696 c 0
 362 696 411 735 411 735 c 1x90
EndSplineSet
EndChar
StartChar: otilde
Encoding: 245 245 177
Width: 486
Flags: MW
HStem: -11 92<198.5 287 198.5 327.5> 418 92<202 284> 600 96<302 326.5 302 336> 646 95<162.5 190.5> 660 21G
VStem: 38 104<202 303 202 327.5> 344 104<202 303>
LayerCount: 2
Back
Fore
SplineSet
243 510 m 0xce
 403 510 448 403 448 252 c 0
 448 102 412 -11 243 -11 c 0
 74 -11 38 102 38 252 c 0
 38 403 82 510 243 510 c 0xce
243 81 m 0
 331 81 344 152 344 252 c 0
 344 354 325 418 243 418 c 0
 161 418 142 354 142 252 c 0
 142 152 154 81 243 81 c 0
387 735 m 1xe6
 407 660 l 1xce
 407 660 357 600 315 600 c 0xe6
 269 600 206 646 175 646 c 0
 150 646 101 605 101 605 c 1
 82 681 l 1
 82 681 132 741 177 741 c 0xd6
 226 741 289 696 315 696 c 0
 338 696 387 735 387 735 c 1xe6
EndSplineSet
EndChar
StartChar: odieresis
Encoding: 246 246 176
Width: 486
Flags: MW
HStem: -11 92<198.5 287 198.5 327.5> 418 92<202 284> 609 117<103 192 103 192 292 380 103 292>
VStem: 38 104<202 303 202 327.5> 103 89<609 726 609 726> 292 88<609 726 609 726> 344 104<202 303>
LayerCount: 2
Back
Fore
SplineSet
243 510 m 0xf2
 403 510 448 403 448 252 c 0
 448 102 412 -11 243 -11 c 0
 74 -11 38 102 38 252 c 0
 38 403 82 510 243 510 c 0xf2
243 81 m 0
 331 81 344 152 344 252 c 0
 344 354 325 418 243 418 c 0
 161 418 142 354 142 252 c 0
 142 152 154 81 243 81 c 0
103 609 m 1xec
 103 726 l 1
 192 726 l 1
 192 609 l 1
 103 609 l 1xec
292 609 m 1
 292 726 l 1
 380 726 l 1
 380 609 l 1
 292 609 l 1
EndSplineSet
EndChar
StartChar: divide
Encoding: 247 247 245
Width: 560
Flags: MW
HStem: 23 118<225 333 225 333> 241 110<105 173 105 173 386 455>
VStem: 173 213<351 428 351 428> 225 108<23 141 23 141>
LayerCount: 2
Back
Fore
SplineSet
105 241 m 1xd0
 105 351 l 1
 173 351 l 1
 173 428 l 1
 386 428 l 1
 386 351 l 1
 455 351 l 1
 455 241 l 1xe0
 105 241 l 1xd0
225 23 m 1xd0
 225 141 l 1
 333 141 l 1
 333 23 l 1
 225 23 l 1xd0
EndSplineSet
EndChar
StartChar: oslash
Encoding: 248 248 193
Width: 485
Flags: MW
HStem: -10 92<237 287 237 327.5> -3 21G<178 178> 419 92<202 247.5> 485 20G<303 303>
VStem: 38 104<228 304 228 328.5> 344 104<203 278.5>
LayerCount: 2
Back
Fore
SplineSet
243 511 m 0xac
 265 511 285 509 303 505 c 1
 341 605 l 1
 406 580 l 1
 365 479 l 1
 427 436 448 354 448 253 c 0
 448 103 412 -10 243 -10 c 0x9c
 218 -10 197 -7 178 -3 c 1x6c
 138 -109 l 1
 73 -84 l 1
 116 23 l 1
 54 68 38 152 38 253 c 0
 38 404 82 511 243 511 c 0xac
243 82 m 0
 331 82 344 153 344 253 c 0
 344 304 339 346 324 375 c 1
 270 240 l 1
 211 85 l 1
 220 83 231 82 243 82 c 0
159 130 m 1
 211 261 l 1
 269 416 l 1
 261 418 252 419 243 419 c 0
 161 419 142 355 142 253 c 0
 142 203 145 160 159 130 c 1
EndSplineSet
EndChar
StartChar: ugrave
Encoding: 249 249 179
Width: 513
Flags: MW
HStem: -11 92<212.5 254.5> 0 81<212.5 453 212.5 347> 480 20G<56 164 164 164 345 453 453 453> 670 21G<360 360> 671 21G<102 102>
VStem: 56 108<190 218 218 500> 345 108<155 500 0 500>
LayerCount: 2
Back
Fore
SplineSet
133 761 m 1xae
 360 670 l 1
 333 590 l 1xb6
 102 671 l 1
 133 761 l 1xae
345 500 m 1
 453 500 l 1
 453 0 l 1
 347 0 l 1x6e
 346 60 l 1
 346 60 294 -11 215 -11 c 0
 102 -11 56 60 56 190 c 2
 56 500 l 1
 164 500 l 1
 164 218 l 2
 164 121 184 81 241 81 c 0
 295 81 345 155 345 155 c 1
 345 500 l 1
EndSplineSet
EndChar
StartChar: ucircumflex
Encoding: 251 251 180
Width: 513
Flags: MW
HStem: -11 92<212.5 254.5> 0 81<212.5 453 212.5 347> 480 20G<56 164 164 164 345 453 453 453> 580 165<93 296 93 296 216 310 216 421>
VStem: 56 108<190 218 218 500> 345 108<155 500 0 500>
LayerCount: 2
Back
Fore
SplineSet
93 580 m 1xbc
 216 745 l 1
 296 745 l 1
 421 580 l 1
 310 580 l 1
 257 652 l 1
 203 580 l 1
 93 580 l 1xbc
345 500 m 1
 453 500 l 1
 453 0 l 1
 347 0 l 1x7c
 346 60 l 1
 346 60 294 -11 215 -11 c 0
 102 -11 56 60 56 190 c 2
 56 500 l 1
 164 500 l 1
 164 218 l 2
 164 121 184 81 241 81 c 0
 295 81 345 155 345 155 c 1
 345 500 l 1
EndSplineSet
EndChar
StartChar: udieresis
Encoding: 252 252 181
Width: 513
Flags: MW
HStem: -11 92<212.5 254.5> 0 81<212.5 453 212.5 347> 480 20G<56 164 164 164 345 453 453 453> 609 117<109 208 109 208 307 404 109 307>
VStem: 56 108<190 218 218 500> 109 99<609 726 609 726> 307 97<609 726 609 726> 345 108<155 500 0 500>
LayerCount: 2
Back
Fore
SplineSet
109 609 m 1xb6
 109 726 l 1
 208 726 l 1
 208 609 l 1
 109 609 l 1xb6
307 609 m 1
 307 726 l 1
 404 726 l 1
 404 609 l 1
 307 609 l 1
345 500 m 1xb9
 453 500 l 1
 453 0 l 1
 347 0 l 1x79
 346 60 l 1
 346 60 294 -11 215 -11 c 0
 102 -11 56 60 56 190 c 2
 56 500 l 1
 164 500 l 1
 164 218 l 2
 164 121 184 81 241 81 c 0
 295 81 345 155 345 155 c 1
 345 500 l 1xb9
EndSplineSet
EndChar
StartChar: yacute
Encoding: 253 253 154
Width: 452
Flags: MW
HStem: -215 21G<159 261 159 159> 0 90<216 217 138 238> 480 20G<18 124 124 124 332 436 436 436> 666 21G<382 382> 668 21G<124 124>
VStem: 18 418<500 500>
LayerCount: 2
Back
Fore
SplineSet
18 500 m 1xec
 124 500 l 1
 216 90 l 1
 238 90 l 1
 332 500 l 1
 436 500 l 1
 261 -215 l 1
 159 -215 l 1
 217 0 l 1
 138 0 l 1
 18 500 l 1xec
153 585 m 1xf4
 124 668 l 1
 350 763 l 1xec
 382 666 l 1
 153 585 l 1xf4
EndSplineSet
EndChar
StartChar: thorn
Encoding: 254 254 447
Width: 503
Flags: MW
HStem: -11 97<242.5 289.5 242.5 323> -6 21G<168 168> 413 97<264 301>
VStem: 60 108<-213 -6 94 363 461 706> 355 110<200 288>
LayerCount: 2
Back
Fore
SplineSet
168 363 m 1xb8
 168 94 l 1
 168 94 236 86 249 86 c 0
 330 86 355 147 355 253 c 0
 355 323 337 413 265 413 c 0
 223 413 168 363 168 363 c 1xb8
288 510 m 0
 421 510 465 401 465 253 c 0xb8
 465 58 395 -11 251 -11 c 0
 216 -11 168 -6 168 -6 c 1x78
 168 -213 l 1
 60 -213 l 1
 60 706 l 1
 168 706 l 1
 168 461 l 1
 193 477 240 510 288 510 c 0
EndSplineSet
EndChar
StartChar: ydieresis
Encoding: 255 255 152
Width: 452
Flags: MW
HStem: -215 21G<159 261 159 159> 0 90<216 217 138 238> 480 20G<18 124 124 124 332 436 436 436> 609 117<79 178 79 178 277 374 79 277>
VStem: 79 99<609 726 609 726> 277 97<609 726 609 726>
LayerCount: 2
Back
Fore
SplineSet
79 609 m 1
 79 726 l 1
 178 726 l 1
 178 609 l 1
 79 609 l 1
277 609 m 1
 277 726 l 1
 374 726 l 1
 374 609 l 1
 277 609 l 1
18 500 m 1
 124 500 l 1
 216 90 l 1
 238 90 l 1
 332 500 l 1
 436 500 l 1
 261 -215 l 1
 159 -215 l 1
 217 0 l 1
 138 0 l 1
 18 500 l 1
EndSplineSet
EndChar
StartChar: amacron
Encoding: 257 257 301
Width: 504
Flags: MW
HStem: -11 92<196 247.5> -3 21G<341 341> 1 21G<449 449> 419 92<211 263> 491 20G<159.5 274.5> 632 88<116 410 116 410>
VStem: 39 110<194 300.5 194 319> 116 294<632 720 632 720> 336 108<53.5 134 166 411 411 411>
LayerCount: 2
Back
Fore
SplineSet
205 -11 m 0x9680
 83 -11 39 75 39 242 c 0
 39 396 78 511 241 511 c 0x9680
 308 511 444 493 444 493 c 1
 444 134 l 2
 444 99 449 1 449 1 c 1x2e80
 341 -3 l 1x5680
 341 -3 336 37 336 70 c 1
 336 70 290 -11 205 -11 c 0x9680
251 419 m 0
 171 419 149 359 149 242 c 0
 149 146 163 81 229 81 c 0
 292 81 336 166 336 166 c 1
 336 411 l 1
 336 411 275 419 251 419 c 0
116 632 m 1x95
 116 720 l 1
 410 720 l 1
 410 632 l 1
 116 632 l 1x95
EndSplineSet
EndChar
StartChar: Abreve
Encoding: 258 258 18
Width: 552
Flags: MW
HStem: 0 21G<17 17 17 128 423 423 423 534> 143 98<184 367 184 388 165 367> 588 97<265 265 265 286> 788 137<213.5 219 332 338.5>
VStem: 121 98<907.5 925 907.5 925> 332 98<907.5 925>
LayerCount: 2
Back
Fore
SplineSet
121 925 m 1
 219 925 l 1
 219 890 240 872 276 872 c 0
 309 872 332 890 332 925 c 1
 430 925 l 1
 430 875 401 788 276 788 c 0
 151 788 121 875 121 925 c 1
17 0 m 1
 175 685 l 1
 377 685 l 1
 534 0 l 1
 423 0 l 1
 388 143 l 1
 165 143 l 1
 128 0 l 1
 17 0 l 1
265 588 m 1
 184 241 l 1
 367 241 l 1
 286 588 l 1
 265 588 l 1
EndSplineSet
Position2: "'cpsp' Capital Spacing in Latin lookup 0 subtable" dx=5 dy=0 dh=10 dv=0
EndChar
StartChar: abreve
Encoding: 259 259 302
Width: 504
Flags: MW
HStem: -11 92<196 247.5> -3 21G<341 341> 1 21G<449 449> 419 92<211 263> 491 20G<159.5 274.5> 591 148<104 319>
VStem: 39 110<194 300.5 194 319> 104 97<721.5 739 721.5 739> 326 97<721.5 739> 336 108<53.5 134 166 411 411 411>
LayerCount: 2
Back
Fore
SplineSet
205 -11 m 0x9640
 83 -11 39 75 39 242 c 0
 39 396 78 511 241 511 c 0x9640
 308 511 444 493 444 493 c 1
 444 134 l 2
 444 99 449 1 449 1 c 1x2e40
 341 -3 l 1x5640
 341 -3 336 37 336 70 c 1
 336 70 290 -11 205 -11 c 0x9640
251 419 m 0
 171 419 149 359 149 242 c 0
 149 146 163 81 229 81 c 0
 292 81 336 166 336 166 c 1
 336 411 l 1
 336 411 275 419 251 419 c 0
104 739 m 1x9580
 201 739 l 1
 201 704 224 681 264 681 c 0
 303 681 326 704 326 739 c 1
 423 739 l 1
 423 665 374 591 264 591 c 0
 153 591 104 665 104 739 c 1x9580
EndSplineSet
EndChar
StartChar: Aogonek
Encoding: 260 260 23
Width: 552
Flags: MW
HStem: -210 96<436.5 503.5> 0 21G<17 17 17 128 423 423 423 429 528 528 528 534> 143 98<184 367 184 388 165 367> 588 97<265 265 265 286>
VStem: 17 532<-200 0> 367 107<-149 -77>
LayerCount: 2
Back
Fore
SplineSet
17 0 m 1xf8
 175 685 l 1
 377 685 l 1
 533 5 l 1
 534 0 l 1
 528 0 l 1
 500 -30 474 -64 474 -90 c 0
 474 -105 484 -114 498 -114 c 0
 509 -114 539 -110 539 -110 c 1
 549 -200 l 1
 549 -200 499 -210 463 -210 c 0
 410 -210 367 -178 367 -120 c 0
 367 -76 398 -32 429 0 c 1
 423 0 l 1
 388 143 l 1xf4
 165 143 l 1
 128 0 l 1
 17 0 l 1xf8
265 588 m 1
 184 241 l 1
 367 241 l 1
 286 588 l 1
 265 588 l 1
EndSplineSet
Position2: "'cpsp' Capital Spacing in Latin lookup 0 subtable" dx=5 dy=0 dh=10 dv=0
EndChar
StartChar: aogonek
Encoding: 261 261 304
Width: 504
Flags: MW
HStem: -210 96<347.5 414.5> -11 92<196 247.5> 0 21G<439 439> 1 21G<449 449> 419 92<211 263> 491 20G<159.5 274.5>
VStem: 39 110<194 300.5 194 319> 278 107<-149 -77> 336 108<55.5 134 166 411 411 411>
LayerCount: 2
Back
Fore
SplineSet
450 -110 m 1x9b
 460 -200 l 1
 460 -200 410 -210 374 -210 c 0
 321 -210 278 -178 278 -120 c 0xcb
 278 -76 309 -32 340 0 c 1xaa80
 339 9 336 41 336 70 c 1
 336 70 290 -11 205 -11 c 0
 83 -11 39 75 39 242 c 0
 39 396 78 511 241 511 c 0xca80
 308 511 444 493 444 493 c 1
 444 134 l 2x9680
 444 99 449 1 449 1 c 1
 439 0 l 1
 412 -29 385 -64 385 -90 c 0
 385 -105 395 -114 409 -114 c 0
 420 -114 450 -110 450 -110 c 1x9b
251 419 m 0xca80
 171 419 149 359 149 242 c 0
 149 146 163 81 229 81 c 0
 292 81 336 166 336 166 c 1
 336 411 l 1
 336 411 275 419 251 419 c 0xca80
EndSplineSet
EndChar
StartChar: Cacute
Encoding: 262 262 30
Width: 498
Flags: MW
HStem: -11 97<245.5 326.5> 599 97<247.5 323 196.5 331.5>
VStem: 45 115<263.5 430.5 263.5 463>
LayerCount: 2
Back
Fore
SplineSet
460 100 m 1
 464 10 l 1
 464 10 368 -11 285 -11 c 0
 92 -11 45 121 45 344 c 0
 45 582 108 696 285 696 c 0
 361 696 465 673 465 673 c 1
 460 585 l 1
 460 585 361 599 302 599 c 0
 193 599 160 517 160 344 c 0
 160 183 186 86 305 86 c 0
 358 86 460 100 460 100 c 1
202 774 m 1
 173 856 l 1
 399 951 l 1
 431 854 l 1
 202 774 l 1
EndSplineSet
Position2: "'cpsp' Capital Spacing in Latin lookup 0 subtable" dx=5 dy=0 dh=10 dv=0
EndChar
StartChar: cacute
Encoding: 263 263 306
Width: 401
Flags: MW
HStem: -11 94<213 263.5> 416 94<217 266 167 279> 490 20G<167 266> 666 21G<379 379> 668 21G<121 121>
VStem: 38 110<200 308.5 200 341.5>
LayerCount: 2
Back
Fore
SplineSet
234 510 m 0xcc
 298 510 367 492 367 492 c 1xac
 364 409 l 1
 364 409 297 416 261 416 c 0
 173 416 148 363 148 254 c 0
 148 146 165 83 261 83 c 0
 297 83 364 90 364 90 c 1
 367 8 l 1
 367 8 296 -11 231 -11 c 0
 81 -11 38 86 38 254 c 0
 38 429 100 510 234 510 c 0xcc
150 585 m 1xd4
 121 668 l 1
 347 763 l 1xcc
 379 666 l 1
 150 585 l 1xd4
EndSplineSet
EndChar
StartChar: Cdotaccent
Encoding: 266 266 34
Width: 498
Flags: MW
HStem: -11 97<245.5 326.5> 599 97<247.5 323 196.5 331.5> 780 118<234 327 234 327>
VStem: 45 115<263.5 430.5 263.5 463> 234 93<780 898 780 898>
LayerCount: 2
Back
Fore
SplineSet
460 100 m 1
 464 10 l 1
 464 10 368 -11 285 -11 c 0
 92 -11 45 121 45 344 c 0
 45 582 108 696 285 696 c 0
 361 696 465 673 465 673 c 1
 460 585 l 1
 460 585 361 599 302 599 c 0
 193 599 160 517 160 344 c 0
 160 183 186 86 305 86 c 0
 358 86 460 100 460 100 c 1
234 780 m 1
 234 898 l 1
 327 898 l 1
 327 780 l 1
 234 780 l 1
EndSplineSet
Position2: "'cpsp' Capital Spacing in Latin lookup 0 subtable" dx=5 dy=0 dh=10 dv=0
EndChar
StartChar: cdotaccent
Encoding: 267 267 309
Width: 401
Flags: MW
HStem: -11 94<213 263.5> 416 94<217 266 167 279> 490 20G<167 266> 592 116<175 268 175 268>
VStem: 38 110<200 308.5 200 341.5> 175 93<592 708 592 708>
LayerCount: 2
Back
Fore
SplineSet
234 510 m 0xd4
 298 510 367 492 367 492 c 1xb4
 364 409 l 1
 364 409 297 416 261 416 c 0
 173 416 148 363 148 254 c 0
 148 146 165 83 261 83 c 0
 297 83 364 90 364 90 c 1
 367 8 l 1
 367 8 296 -11 231 -11 c 0
 81 -11 38 86 38 254 c 0xdc
 38 429 100 510 234 510 c 0xd4
175 592 m 1
 175 708 l 1
 268 708 l 1
 268 592 l 1
 175 592 l 1
EndSplineSet
EndChar
StartChar: ccaron
Encoding: 269 269 308
Width: 401
Flags: MW
HStem: -11 94<213 263.5> 416 94<217 266 167 279> 490 20G<167 266> 580 165<75 264 75 197>
VStem: 38 110<200 308.5 200 341.5>
LayerCount: 2
Back
Fore
SplineSet
264 580 m 1xd8
 197 580 l 1
 75 745 l 1
 179 745 l 1
 231 671 l 1
 282 745 l 1
 386 745 l 1
 264 580 l 1xd8
234 510 m 0
 298 510 367 492 367 492 c 1xb8
 364 409 l 1
 364 409 297 416 261 416 c 0
 173 416 148 363 148 254 c 0
 148 146 165 83 261 83 c 0
 297 83 364 90 364 90 c 1
 367 8 l 1
 367 8 296 -11 231 -11 c 0
 81 -11 38 86 38 254 c 0
 38 429 100 510 234 510 c 0
EndSplineSet
EndChar
StartChar: dcaron
Encoding: 271 271 310
Width: 590
Flags: MW
HStem: -11 92<198 245.5> 0 81<198 444 198 338> 418 92<208 255.5 162 265.5> 442 251<500 599 500 599> 688 20G<336 444 444 444>
VStem: 39 110<195 299.5 195 330> 336 108<56 56 156 408 408 408 497 708 0 708> 500 99<442 693 442 693>
LayerCount: 2
Back
Fore
SplineSet
599 693 m 1x97
 599 442 l 1
 500 442 l 1
 500 693 l 1
 599 693 l 1x97
444 708 m 1xaf
 444 0 l 1
 338 0 l 1x6f
 336 56 l 1
 336 56 290 -11 201 -11 c 0
 84 -11 39 82 39 244 c 0
 39 416 91 510 233 510 c 0
 278 510 336 497 336 497 c 1
 336 708 l 1
 444 708 l 1xaf
336 156 m 1xaf
 336 408 l 1
 336 408 286 418 245 418 c 0
 171 418 149 355 149 244 c 0
 149 146 164 81 232 81 c 0
 291 81 336 156 336 156 c 1xaf
EndSplineSet
EndChar
StartChar: Dcroat
Encoding: 272 272 37
Width: 598
Flags: MW
HStem: 0 98<184 296 184 296> 290 110<11 72 11 72 184 306> 588 97<184 296 184 184>
VStem: 72 112<98 290 98 290 98 290 400 588> 437 115<280 435.5>
LayerCount: 2
Back
Fore
SplineSet
296 0 m 2
 72 0 l 1
 72 290 l 1
 11 290 l 1
 11 400 l 1
 72 400 l 1
 72 685 l 1
 296 685 l 2
 500 685 552 582 552 359 c 0
 552 123 503 0 296 0 c 2
437 359 m 0
 437 512 421 588 296 588 c 2
 184 588 l 1
 184 400 l 1
 306 400 l 1
 306 290 l 1
 184 290 l 1
 184 98 l 1
 296 98 l 2
 421 98 437 201 437 359 c 0
EndSplineSet
Position2: "'cpsp' Capital Spacing in Latin lookup 0 subtable" dx=5 dy=0 dh=10 dv=0
EndChar
StartChar: dcroat
Encoding: 273 273 311
Width: 504
Flags: MW
HStem: -11 92<198 245.5> 0 81<198 444 198 338> 418 92<208 255.5 162 265.5> 562 98<188 336 188 336 444 482> 562 146<188 444 336 482 336 444>
VStem: 39 110<195 299.5 195 330> 336 108<56 56 156 408 408 408 497 562 0 562 660 708>
LayerCount: 2
Back
Fore
SplineSet
444 708 m 1xae
 444 660 l 1
 482 660 l 1xb6
 482 562 l 1
 444 562 l 1
 444 0 l 1
 338 0 l 1x6e
 336 56 l 1
 336 56 290 -11 201 -11 c 0
 84 -11 39 82 39 244 c 0
 39 416 91 510 233 510 c 0
 278 510 336 497 336 497 c 1
 336 562 l 1
 188 562 l 1xae
 188 660 l 1
 336 660 l 1xb6
 336 708 l 1
 444 708 l 1xae
336 156 m 1
 336 408 l 1
 336 408 286 418 245 418 c 0
 171 418 149 355 149 244 c 0
 149 146 164 81 232 81 c 0
 291 81 336 156 336 156 c 1
EndSplineSet
EndChar
StartChar: Ebreve
Encoding: 276 276 40
Width: 504
Flags: MW
HStem: 0 97<181 466 181 466> 296 98<181 410 181 410> 588 97<181 466 181 181> 788 137<202.5 208 321 327.5>
VStem: 69 112<97 296 394 588> 110 98<907.5 925 907.5 925> 321 98<907.5 925>
LayerCount: 2
Back
Fore
SplineSet
110 925 m 1xf6
 208 925 l 1
 208 890 229 872 265 872 c 0
 298 872 321 890 321 925 c 1
 419 925 l 1
 419 875 390 788 265 788 c 0
 140 788 110 875 110 925 c 1xf6
69 0 m 1xf8
 69 685 l 1
 466 685 l 1
 466 588 l 1
 181 588 l 1
 181 394 l 1
 410 394 l 1
 410 296 l 1
 181 296 l 1
 181 97 l 1
 466 97 l 1
 466 0 l 1
 69 0 l 1xf8
EndSplineSet
Position2: "'cpsp' Capital Spacing in Latin lookup 0 subtable" dx=5 dy=0 dh=10 dv=0
EndChar
StartChar: ebreve
Encoding: 277 277 314
Width: 459
Flags: MW
HStem: -10 93<214 282.5 214 287> 210 81<147 187 147 187 146 187> 423 87<208.5 269.5> 591 148<87 302>
VStem: 37 109<160.5 194 194 210 160.5 314.5> 87 97<721.5 739 721.5 739> 309 97<721.5 739> 321 107<331.5 384.5>
LayerCount: 2
Back
Fore
SplineSet
248 83 m 0xf9
 317 83 405 98 405 98 c 1
 408 20 l 1
 408 20 334 -10 240 -10 c 0
 99 -10 37 67 37 236 c 0
 37 393 94 510 244 510 c 0
 361 510 428 468 428 362 c 0
 428 237 345 210 187 210 c 2
 146 210 l 1
 146 194 l 2
 146 127 180 83 248 83 c 0xf9
147 291 m 1
 187 291 l 2
 280 291 321 302 321 361 c 0
 321 408 295 423 244 423 c 0
 173 423 148 369 147 291 c 1
87 739 m 1xf6
 184 739 l 1
 184 704 207 681 247 681 c 0
 286 681 309 704 309 739 c 1
 406 739 l 1
 406 665 357 591 247 591 c 0
 136 591 87 665 87 739 c 1xf6
EndSplineSet
EndChar
StartChar: Edotaccent
Encoding: 278 278 44
Width: 504
Flags: MW
HStem: 0 97<181 466 181 466> 296 98<181 410 181 410> 588 97<181 466 181 181> 796 118<225 318 225 318>
VStem: 69 112<97 296 394 588> 225 93<796 914 796 914>
LayerCount: 2
Back
Fore
SplineSet
225 796 m 1
 225 914 l 1
 318 914 l 1
 318 796 l 1
 225 796 l 1
69 0 m 1
 69 685 l 1
 466 685 l 1
 466 588 l 1
 181 588 l 1
 181 394 l 1
 410 394 l 1
 410 296 l 1
 181 296 l 1
 181 97 l 1
 466 97 l 1
 466 0 l 1
 69 0 l 1
EndSplineSet
Position2: "'cpsp' Capital Spacing in Latin lookup 0 subtable" dx=5 dy=0 dh=10 dv=0
EndChar
StartChar: edotaccent
Encoding: 279 279 315
Width: 459
Flags: MW
HStem: -10 93<214 282.5 214 287> 210 81<147 187 147 187 146 187> 423 87<208.5 269.5> 592 116<194 287 194 287>
VStem: 37 109<160.5 194 194 210 160.5 314.5> 194 93<592 708 592 708> 321 107<331.5 384.5>
LayerCount: 2
Back
Fore
SplineSet
248 83 m 0
 317 83 405 98 405 98 c 1
 408 20 l 1
 408 20 334 -10 240 -10 c 0
 99 -10 37 67 37 236 c 0
 37 393 94 510 244 510 c 0
 361 510 428 468 428 362 c 0
 428 237 345 210 187 210 c 2
 146 210 l 1
 146 194 l 2
 146 127 180 83 248 83 c 0
147 291 m 1
 187 291 l 2
 280 291 321 302 321 361 c 0
 321 408 295 423 244 423 c 0
 173 423 148 369 147 291 c 1
194 592 m 1
 194 708 l 1
 287 708 l 1
 287 592 l 1
 194 592 l 1
EndSplineSet
EndChar
StartChar: Eogonek
Encoding: 280 280 47
Width: 504
Flags: MW
HStem: -210 96<359.5 426.5> 0 97<181 352 451 451 451 466> 296 98<181 410 181 410> 588 97<181 466 181 181>
VStem: 69 112<97 296 394 588> 290 107<-149 -77>
LayerCount: 2
Back
Fore
SplineSet
69 0 m 1
 69 685 l 1
 466 685 l 1
 466 588 l 1
 181 588 l 1
 181 394 l 1
 410 394 l 1
 410 296 l 1
 181 296 l 1
 181 97 l 1
 466 97 l 1
 466 0 l 1
 451 0 l 1
 423 -30 397 -64 397 -90 c 0
 397 -105 407 -114 421 -114 c 0
 432 -114 462 -110 462 -110 c 1
 472 -200 l 1
 472 -200 422 -210 386 -210 c 0
 333 -210 290 -178 290 -120 c 0
 290 -76 321 -32 352 0 c 1
 69 0 l 1
EndSplineSet
Position2: "'cpsp' Capital Spacing in Latin lookup 0 subtable" dx=5 dy=0 dh=10 dv=0
EndChar
StartChar: eogonek
Encoding: 281 281 316
Width: 460
Flags: MW
HStem: -190 96<310.5 377.5> -10 93<214 247> 210 81<147 187 147 187 146 187> 423 87<208.5 269.5>
VStem: 37 109<160.5 194 194 210 160.5 314.5> 241 107<-129 -57.5> 321 107<331.5 384.5>
LayerCount: 2
Back
Fore
SplineSet
413 -90 m 1xfc
 423 -180 l 1
 423 -180 373 -190 337 -190 c 0
 284 -190 241 -158 241 -100 c 0
 241 -67 258 -35 279 -8 c 1xfc
 266 -9 254 -10 240 -10 c 0
 99 -10 37 67 37 236 c 0
 37 393 94 510 244 510 c 0
 361 510 428 468 428 362 c 0x7a
 428 237 345 210 187 210 c 2
 146 210 l 1
 146 194 l 2
 146 127 180 83 248 83 c 0
 317 83 405 98 405 98 c 1
 408 20 l 1
 408 20 403 18 399 16 c 0
 372 -12 348 -45 348 -70 c 0
 348 -85 358 -94 372 -94 c 0
 383 -94 413 -90 413 -90 c 1xfc
147 291 m 1
 187 291 l 2
 280 291 321 302 321 361 c 0x7a
 321 408 295 423 244 423 c 0
 173 423 148 369 147 291 c 1
EndSplineSet
EndChar
StartChar: ecaron
Encoding: 283 283 312
Width: 459
Flags: MW
HStem: -10 93<214 282.5 214 287> 210 81<147 187 147 187 146 187> 423 87<208.5 269.5> 580 165<86 275 86 208>
VStem: 37 109<160.5 194 194 210 160.5 314.5> 321 107<331.5 384.5>
LayerCount: 2
Back
Fore
SplineSet
248 83 m 0
 317 83 405 98 405 98 c 1
 408 20 l 1
 408 20 334 -10 240 -10 c 0
 99 -10 37 67 37 236 c 0
 37 393 94 510 244 510 c 0
 361 510 428 468 428 362 c 0
 428 237 345 210 187 210 c 2
 146 210 l 1
 146 194 l 2
 146 127 180 83 248 83 c 0
147 291 m 1
 187 291 l 2
 280 291 321 302 321 361 c 0
 321 408 295 423 244 423 c 0
 173 423 148 369 147 291 c 1
275 580 m 1
 208 580 l 1
 86 745 l 1
 190 745 l 1
 242 671 l 1
 293 745 l 1
 397 745 l 1
 275 580 l 1
EndSplineSet
EndChar
StartChar: Gbreve
Encoding: 286 286 50
Width: 573
Flags: MW
HStem: -11 97<249.5 331.5 249.5 336.5> 278 92<328 518 328 407> 599 97<249 356.5> 670 21G<518 518> 775 157<143 364.5>
VStem: 44 115<273 419.5 273 459> 407 111<94 278 278 278>
LayerCount: 2
Back
Fore
SplineSet
143 932 m 1xde
 248 932 l 1
 248 926 249 921 251 916 c 0
 258 891 280 875 312 875 c 0
 351 875 372 896 375 932 c 1
 481 932 l 1
 474 842 417 775 312 775 c 0
 222 775 170 824 151 890 c 0
 147 903 144 917 143 932 c 1xde
328 278 m 1
 328 370 l 1
 518 370 l 1
 518 9 l 1
 518 9 374 -11 299 -11 c 0
 101 -11 44 141 44 347 c 0
 44 571 108 696 306 696 c 0xee
 418 696 518 670 518 670 c 1xde
 514 583 l 1
 514 583 396 599 317 599 c 0xee
 181 599 159 492 159 347 c 0
 159 199 185 86 314 86 c 0
 349 86 407 94 407 94 c 1
 407 278 l 1
 328 278 l 1
EndSplineSet
Position2: "'cpsp' Capital Spacing in Latin lookup 0 subtable" dx=5 dy=0 dh=10 dv=0
EndChar
StartChar: gbreve
Encoding: 287 287 318
Width: 476
Flags: MW
HStem: -232 92<205.5 277 205.5 299.5> -8 92<243.5 287.5> -2 21G 162 90<214.5 250 193 280.5> 411 89<384 455 384 455> 421 90<194 239 163.5 250.5> 591 148<51 266>
VStem: 32 100<-100 -69> 39 101<308.5 363.5 308.5 393> 51 97<721.5 739 721.5 739> 90 99<110 118.5> 273 97<721.5 739> 307 100<308.5 350 278.5 363.5> 310 145<497 497> 356 102<-86.5 -37.5>
LayerCount: 2
Back
Fore
SplineSet
238 -232 m 0xdb02
 111 -232 32 -203 32 -98 c 0xdb02
 32 -40 72 2 118 34 c 1
 101 49 90 67 90 101 c 0xda22
 90 136 128 182 128 182 c 1
 63 212 39 268 39 335 c 0
 39 451 106 511 221 511 c 0xd684
 257 511 310 497 310 497 c 1xda84
 455 500 l 1
 455 411 l 1
 384 411 l 1
 398 396 407 365 407 335 c 0
 407 222 341 162 220 162 c 0
 209 162 199 163 199 163 c 1
 199 163 189 134 189 118 c 0xda28
 189 102 192 84 261 84 c 0
 379 84 458 66 458 -61 c 0
 458 -166 361 -232 238 -232 c 0xdb02
257 -8 m 0
 230 -8 193 -5 176 -2 c 1xbb02
 156 -16 132 -46 132 -77 c 0
 132 -123 167 -140 244 -140 c 0
 310 -140 356 -112 356 -61 c 0
 356 -14 318 -8 257 -8 c 0
220 252 m 0xd688
 280 252 307 282 307 335 c 0
 307 392 280 421 221 421 c 0
 167 421 140 392 140 335 c 0
 140 282 166 252 220 252 c 0xd688
51 739 m 1xda50
 148 739 l 1
 148 704 171 681 211 681 c 0
 250 681 273 704 273 739 c 1
 370 739 l 1
 370 665 321 591 211 591 c 0
 100 591 51 665 51 739 c 1xda50
EndSplineSet
EndChar
StartChar: Gdotaccent
Encoding: 288 288 53
Width: 573
Flags: MW
HStem: -11 97<249.5 331.5 249.5 336.5> 278 92<328 518 328 407> 599 97<249 356.5> 670 21G<518 518> 767 117<267 369 267 369>
VStem: 44 115<273 419.5 273 459> 267 102<767 884 767 884> 407 111<94 278 278 278>
LayerCount: 2
Back
Fore
SplineSet
267 767 m 1xdf
 267 884 l 1
 369 884 l 1
 369 767 l 1
 267 767 l 1xdf
328 278 m 1
 328 370 l 1
 518 370 l 1
 518 9 l 1
 518 9 374 -11 299 -11 c 0
 101 -11 44 141 44 347 c 0
 44 571 108 696 306 696 c 0xef
 418 696 518 670 518 670 c 1xdf
 514 583 l 1
 514 583 396 599 317 599 c 0xef
 181 599 159 492 159 347 c 0
 159 199 185 86 314 86 c 0
 349 86 407 94 407 94 c 1
 407 278 l 1
 328 278 l 1
EndSplineSet
Position2: "'cpsp' Capital Spacing in Latin lookup 0 subtable" dx=5 dy=0 dh=10 dv=0
EndChar
StartChar: gdotaccent
Encoding: 289 289 319
Width: 476
Flags: MW
HStem: -232 92<205.5 277 205.5 299.5> -8 92<243.5 287.5> -2 21G 162 90<214.5 250 193 280.5> 411 89<384 455 384 455> 421 90<194 239 163.5 250.5> 592 116<172 265 172 265>
VStem: 32 100<-100 -69> 39 101<308.5 363.5 308.5 393> 90 99<110 118.5> 172 93<592 708 592 708> 307 100<308.5 350 278.5 363.5> 310 145<497 497> 356 102<-86.5 -37.5>
LayerCount: 2
Back
Fore
SplineSet
238 -232 m 0xdb24
 111 -232 32 -203 32 -98 c 0xdb24
 32 -40 72 2 118 34 c 1
 101 49 90 67 90 101 c 0xda44
 90 136 128 182 128 182 c 1
 63 212 39 268 39 335 c 0
 39 451 106 511 221 511 c 0xd6a8
 257 511 310 497 310 497 c 1xdaa8
 455 500 l 1
 455 411 l 1
 384 411 l 1
 398 396 407 365 407 335 c 0
 407 222 341 162 220 162 c 0
 209 162 199 163 199 163 c 1
 199 163 189 134 189 118 c 0xda50
 189 102 192 84 261 84 c 0
 379 84 458 66 458 -61 c 0
 458 -166 361 -232 238 -232 c 0xdb24
257 -8 m 0
 230 -8 193 -5 176 -2 c 1xbb24
 156 -16 132 -46 132 -77 c 0
 132 -123 167 -140 244 -140 c 0
 310 -140 356 -112 356 -61 c 0
 356 -14 318 -8 257 -8 c 0
220 252 m 0xd6b0
 280 252 307 282 307 335 c 0
 307 392 280 421 221 421 c 0
 167 421 140 392 140 335 c 0
 140 282 166 252 220 252 c 0xd6b0
172 592 m 1
 172 708 l 1
 265 708 l 1
 265 592 l 1
 172 592 l 1
EndSplineSet
EndChar
StartChar: Hcircumflex
Encoding: 292 292 56
Width: 616
Flags: MW
HStem: 0 21G<69 181 69 69 435 546 435 435> 300 97<181 435 181 435> 785 146<141 338 141 338 274 370 274 472>
VStem: 69 112<0 300 0 397 397 685> 435 111<0 300 300 300 397 685 0 685>
LayerCount: 2
Back
Fore
SplineSet
435 0 m 1
 435 300 l 1
 181 300 l 1
 181 0 l 1
 69 0 l 1
 69 685 l 1
 181 685 l 1
 181 397 l 1
 435 397 l 1
 435 685 l 1
 546 685 l 1
 546 0 l 1
 435 0 l 1
141 785 m 1
 274 931 l 1
 338 931 l 1
 472 785 l 1
 370 785 l 1
 307 855 l 1
 243 785 l 1
 141 785 l 1
EndSplineSet
Position2: "'cpsp' Capital Spacing in Latin lookup 0 subtable" dx=5 dy=0 dh=10 dv=0
EndChar
StartChar: Hbar
Encoding: 294 294 55
Width: 632
Flags: MW
HStem: 0 21G<76 180 76 76 449 553 449 449> 296 107<180 449 180 449> 490 98<7 76 7 76 180 449 553 628>
VStem: 76 104<0 296 403 490 588 685> 449 104<0 296 296 296 403 490 0 490 588 685>
LayerCount: 2
Back
Fore
SplineSet
7 490 m 1
 7 588 l 1
 76 588 l 1
 76 685 l 1
 180 685 l 1
 180 588 l 1
 449 588 l 1
 449 685 l 1
 553 685 l 1
 553 588 l 1
 628 588 l 1
 628 490 l 1
 553 490 l 1
 553 0 l 1
 449 0 l 1
 449 296 l 1
 180 296 l 1
 180 0 l 1
 76 0 l 1
 76 490 l 1
 7 490 l 1
180 403 m 1
 449 403 l 1
 449 490 l 1
 180 490 l 1
 180 403 l 1
EndSplineSet
Position2: "'cpsp' Capital Spacing in Latin lookup 0 subtable" dx=5 dy=0 dh=10 dv=0
EndChar
StartChar: hbar
Encoding: 295 295 322
Width: 512
Flags: MW
HStem: 0 21G<60 168 60 60 349 457 349 349> 419 92<258.5 301.5> 551 94<7 60 7 60 168 301> 551 157<7 168 7 168 60 168 60 301>
VStem: 60 108<0 348 443 551 645 708> 349 108<0 282 282 311 0 330.5>
LayerCount: 2
Back
Fore
SplineSet
7 551 m 1xdc
 7 645 l 1
 60 645 l 1xec
 60 708 l 1
 168 708 l 1xdc
 168 645 l 1
 301 645 l 1xec
 301 551 l 1
 168 551 l 1
 168 443 l 1
 168 443 219 511 298 511 c 0
 415 511 457 424 457 311 c 2
 457 0 l 1
 349 0 l 1
 349 282 l 2
 349 379 330 419 273 419 c 0
 218 419 168 348 168 348 c 1
 168 0 l 1
 60 0 l 1
 60 551 l 1
 7 551 l 1xdc
EndSplineSet
EndChar
StartChar: Itilde
Encoding: 296 296 66
Width: 250
Flags: MW
HStem: 0 21G<69 69 69 181> 782 96<187.5 212.5 187.5 223> 830 96<32 62.5>
VStem: 69 112<0 685 0 685>
LayerCount: 2
Back
Fore
SplineSet
276 919 m 1xd0
 297 844 l 1
 297 844 244 782 202 782 c 0xd0
 155 782 80 830 45 830 c 0
 19 830 -31 788 -31 788 c 1
 -51 863 l 1
 -51 863 2 926 46 926 c 0xb0
 100 926 174 878 201 878 c 0
 224 878 276 919 276 919 c 1xd0
69 0 m 1
 69 685 l 1
 181 685 l 1
 181 0 l 1
 69 0 l 1
EndSplineSet
Position2: "'cpsp' Capital Spacing in Latin lookup 0 subtable" dx=5 dy=0 dh=10 dv=0
EndChar
StartChar: itilde
Encoding: 297 297 323
Width: 228
Flags: MW
HStem: 0 21G<60 60 60 168> 480 20G<60 168 168 168> 600 96<170 194.5 170 204> 646 95<30.5 58.5> 660 21G
VStem: 60 108<0 500 0 500>
LayerCount: 2
Back
Fore
SplineSet
60 0 m 1xcc
 60 500 l 1
 168 500 l 1
 168 0 l 1
 60 0 l 1xcc
255 735 m 1xe4
 275 660 l 1xcc
 275 660 225 600 183 600 c 0xe4
 137 600 74 646 43 646 c 0
 18 646 -31 605 -31 605 c 1
 -50 681 l 1
 -50 681 0 741 45 741 c 0xd4
 94 741 157 696 183 696 c 0
 206 696 255 735 255 735 c 1xe4
EndSplineSet
EndChar
StartChar: Imacron
Encoding: 298 298 64
Width: 250
Flags: MW
HStem: 0 21G<69 69 69 181> 825 87<-33 279 -33 279>
VStem: 69 112<0 685 0 685>
LayerCount: 2
Back
Fore
SplineSet
-33 825 m 1
 -33 912 l 1
 279 912 l 1
 279 825 l 1
 -33 825 l 1
69 0 m 1
 69 685 l 1
 181 685 l 1
 181 0 l 1
 69 0 l 1
EndSplineSet
Position2: "'cpsp' Capital Spacing in Latin lookup 0 subtable" dx=5 dy=0 dh=10 dv=0
EndChar
StartChar: imacron
Encoding: 299 299 324
Width: 228
Flags: MW
HStem: 0 21G<60 60 60 168> 480 20G<60 168 168 168> 632 88<-35 259 -35 259>
VStem: 60 108<0 500 0 500>
LayerCount: 2
Back
Fore
SplineSet
60 0 m 1
 60 500 l 1
 168 500 l 1
 168 0 l 1
 60 0 l 1
-35 632 m 1
 -35 720 l 1
 259 720 l 1
 259 632 l 1
 -35 632 l 1
EndSplineSet
EndChar
StartChar: Ibreve
Encoding: 300 300 59
Width: 250
Flags: MW
HStem: 0 21G<69 69 69 181> 788 137<59.5 65 178 184.5>
VStem: -33 98<907.5 925 907.5 925> 69 112<0 685 0 685> 178 98<907.5 925>
LayerCount: 2
Back
Fore
SplineSet
-33 925 m 1xe8
 65 925 l 1
 65 890 86 872 122 872 c 0
 155 872 178 890 178 925 c 1
 276 925 l 1
 276 875 247 788 122 788 c 0
 -3 788 -33 875 -33 925 c 1xe8
69 0 m 1xd0
 69 685 l 1
 181 685 l 1
 181 0 l 1
 69 0 l 1xd0
EndSplineSet
Position2: "'cpsp' Capital Spacing in Latin lookup 0 subtable" dx=5 dy=0 dh=10 dv=0
EndChar
StartChar: ibreve
Encoding: 301 301 325
Width: 228
Flags: MW
HStem: 0 21G<60 60 60 168> 480 20G<60 168 168 168> 591 148<-48 167>
VStem: -48 97<721.5 739 721.5 739> 60 108<0 500 0 500> 174 97<721.5 739>
LayerCount: 2
Back
Fore
SplineSet
60 0 m 1
 60 500 l 1
 168 500 l 1
 168 0 l 1
 60 0 l 1
-48 739 m 1xf4
 49 739 l 1
 49 704 72 681 112 681 c 0
 151 681 174 704 174 739 c 1
 271 739 l 1
 271 665 222 591 112 591 c 0
 1 591 -48 665 -48 739 c 1xf4
EndSplineSet
EndChar
StartChar: Iogonek
Encoding: 302 302 65
Width: 250
Flags: MW
HStem: -210 96<79.5 147> 0 21G<69 69 69 77 181 181>
VStem: 69 112<0 685 0 685>
LayerCount: 2
Back
Fore
SplineSet
69 0 m 1
 69 685 l 1
 181 685 l 1
 181 0 l 1
 144 -31 117 -63 117 -90 c 0
 117 -105 128 -114 141 -114 c 0
 153 -114 183 -110 183 -110 c 1
 193 -200 l 1
 193 -200 142 -210 106 -210 c 0
 53 -210 10 -178 10 -120 c 0
 10 -75 45 -32 77 0 c 1
 69 0 l 1
EndSplineSet
Position2: "'cpsp' Capital Spacing in Latin lookup 0 subtable" dx=5 dy=0 dh=10 dv=0
EndChar
StartChar: iogonek
Encoding: 303 303 326
Width: 228
Flags: MW
HStem: -210 96<63.5 131.5> 0 21G<168 168> 480 20G<60 168 168 168> 575 116<59 169 59 169>
VStem: 60 108<1 500 0 500>
LayerCount: 2
Back
Fore
SplineSet
167 -110 m 1
 177 -200 l 1
 177 -200 127 -210 90 -210 c 0
 37 -210 -5 -178 -5 -120 c 0
 -5 -75 28 -31 60 1 c 1
 60 500 l 1
 168 500 l 1
 168 0 l 1
 133 -26 102 -63 102 -90 c 0
 102 -105 112 -114 126 -114 c 0
 137 -114 167 -110 167 -110 c 1
59 575 m 1
 59 691 l 1
 169 691 l 1
 169 575 l 1
 59 575 l 1
EndSplineSet
EndChar
StartChar: Idotaccent
Encoding: 304 304 62
Width: 250
Flags: MW
HStem: 0 21G<69 69 69 181> 796 118<78 171 78 171>
VStem: 69 112<0 685 0 685> 78 93<796 914 796 914>
LayerCount: 2
Back
Fore
SplineSet
78 796 m 1xd0
 78 914 l 1
 171 914 l 1
 171 796 l 1
 78 796 l 1xd0
69 0 m 1xe0
 69 685 l 1
 181 685 l 1
 181 0 l 1
 69 0 l 1xe0
EndSplineSet
Position2: "'cpsp' Capital Spacing in Latin lookup 0 subtable" dx=5 dy=0 dh=10 dv=0
EndChar
StartChar: dotlessi
Encoding: 305 305 184
Width: 228
Flags: MW
HStem: 0 21G<60 60 60 168> 480 20G<60 168 168 168>
VStem: 60 108<0 500 0 500>
LayerCount: 2
Back
Fore
SplineSet
60 0 m 1
 60 500 l 1
 168 500 l 1
 168 0 l 1
 60 0 l 1
EndSplineSet
EndChar
StartChar: Jcircumflex
Encoding: 308 308 68
Width: 276
Flags: MW
HStem: 785 146<-16 181 -16 181 117 213 117 315>
VStem: 98 112<50 685>
LayerCount: 2
Back
Fore
SplineSet
209 685 m 1
 210 121 l 2
 210 -21 191 -70 16 -70 c 1
 16 28 l 1
 93 29 98 54 98 124 c 2
 98 685 l 1
 209 685 l 1
-16 785 m 1
 117 931 l 1
 181 931 l 1
 315 785 l 1
 213 785 l 1
 150 855 l 1
 86 785 l 1
 -16 785 l 1
EndSplineSet
Position2: "'cpsp' Capital Spacing in Latin lookup 0 subtable" dx=5 dy=0 dh=10 dv=0
EndChar
StartChar: jcircumflex
Encoding: 309 309 327
Width: 228
Flags: MW
HStem: -232 21G<-5 -5> 480 20G<60 168 168 168> 580 165<-41 145 -41 145 81 167 81 269>
VStem: 60 108<0 500>
LayerCount: 2
Back
Fore
SplineSet
60 0 m 2
 60 500 l 1
 168 500 l 1
 168 0 l 2
 168 -129 154 -154 -5 -232 c 1
 -44 -150 l 1
 56 -88 60 -78 60 0 c 2
-41 580 m 1
 81 745 l 1
 145 745 l 1
 269 580 l 1
 167 580 l 1
 114 652 l 1
 60 580 l 1
 -41 580 l 1
EndSplineSet
EndChar
StartChar: Lacute
Encoding: 313 313 72
Width: 430
Flags: MW
HStem: 0 97<181 421 181 421>
VStem: 69 112<97 685 97 685 97 685>
LayerCount: 2
Back
Fore
SplineSet
126 774 m 1
 97 856 l 1
 323 951 l 1
 355 854 l 1
 126 774 l 1
421 0 m 1
 69 0 l 1
 69 685 l 1
 181 685 l 1
 181 97 l 1
 421 97 l 1
 421 0 l 1
EndSplineSet
Position2: "'cpsp' Capital Spacing in Latin lookup 0 subtable" dx=5 dy=0 dh=10 dv=0
EndChar
StartChar: lacute
Encoding: 314 314 329
Width: 231
Flags: MW
HStem: 0 21G<61 61 61 170> 688 20G<61 170 170 170>
VStem: 61 109<0 708 0 708>
LayerCount: 2
Back
Fore
SplineSet
61 0 m 1
 61 708 l 1
 170 708 l 1
 170 0 l 1
 61 0 l 1
62 774 m 1
 33 856 l 1
 259 951 l 1
 291 854 l 1
 62 774 l 1
EndSplineSet
EndChar
StartChar: Lcommaaccent
Encoding: 315 315 74
Width: 430
Flags: MW
HStem: -72 169<196 196 196 295> 0 97<181 421 181 421>
VStem: 69 112<97 685 97 685 97 685>
LayerCount: 2
Back
Fore
SplineSet
196 -72 m 1xa0
 155 -298 l 1
 246 -298 l 1
 295 -72 l 1
 196 -72 l 1xa0
421 0 m 1x60
 69 0 l 1
 69 685 l 1
 181 685 l 1
 181 97 l 1
 421 97 l 1
 421 0 l 1x60
EndSplineSet
Position2: "'cpsp' Capital Spacing in Latin lookup 0 subtable" dx=5 dy=0 dh=10 dv=0
EndChar
StartChar: Lcaron
Encoding: 317 317 73
Width: 459
Flags: MW
HStem: 0 97<181 421 181 421> 442 251<319 419 319 419>
VStem: 69 112<97 685 97 685 97 685> 319 100<442 693 442 693>
LayerCount: 2
Back
Fore
SplineSet
419 693 m 1
 419 442 l 1
 319 442 l 1
 319 693 l 1
 419 693 l 1
421 0 m 1
 69 0 l 1
 69 685 l 1
 181 685 l 1
 181 97 l 1
 421 97 l 1
 421 0 l 1
EndSplineSet
Position2: "'cpsp' Capital Spacing in Latin lookup 0 subtable" dx=5 dy=0 dh=10 dv=0
EndChar
StartChar: lcaron
Encoding: 318 318 330
Width: 317
Flags: MW
HStem: 0 21G<61 61 61 170> 442 251<227 326 227 326> 688 20G<61 170 170 170>
VStem: 61 109<0 708 0 708> 227 99<442 693 442 693>
LayerCount: 2
Back
Fore
SplineSet
326 693 m 1xd8
 326 442 l 1
 227 442 l 1
 227 693 l 1
 326 693 l 1xd8
61 0 m 1
 61 708 l 1
 170 708 l 1xb8
 170 0 l 1
 61 0 l 1
EndSplineSet
EndChar
StartChar: Lslash
Encoding: 321 321 75
Width: 436
Flags: MW
HStem: 0 97<186 426 186 426>
VStem: 74 112<97 238 238 238 434 685>
LayerCount: 2
Back
Fore
SplineSet
426 0 m 1
 74 0 l 1
 74 238 l 1
 36 210 l 1
 -14 286 l 1
 74 351 l 1
 74 685 l 1
 186 685 l 1
 186 434 l 1
 301 520 l 1
 353 445 l 1
 186 321 l 1
 186 97 l 1
 426 97 l 1
 426 0 l 1
EndSplineSet
Position2: "'cpsp' Capital Spacing in Latin lookup 0 subtable" dx=5 dy=0 dh=10 dv=0
EndChar
StartChar: lslash
Encoding: 322 322 190
Width: 291
Flags: MW
HStem: 0 21G<90 90 90 199> 688 20G<90 199 199 199>
VStem: 90 109<0 241 241 241 434 708>
LayerCount: 2
Back
Fore
SplineSet
90 0 m 1
 90 241 l 1
 47 210 l 1
 -4 286 l 1
 90 355 l 1
 90 708 l 1
 199 708 l 1
 199 434 l 1
 242 466 l 1
 294 391 l 1
 199 321 l 1
 199 0 l 1
 90 0 l 1
EndSplineSet
EndChar
StartChar: nacute
Encoding: 324 324 332
Width: 512
Flags: MW
HStem: 666 21G<401 401> 668 21G<143 143>
VStem: 168 181<0 282 0 345 0 345>
LayerCount: 2
Back
Fore
SplineSet
60 0 m 1x60
 168 0 l 1
 168 345 l 1
 168 345 218 419 272 419 c 0
 330 419 349 379 349 282 c 2
 349 0 l 1
 457 0 l 1
 457 310 l 2
 457 424 414 511 298 511 c 0
 219 511 167 440 167 440 c 1
 166 500 l 1
 60 500 l 1
 60 0 l 1x60
172 585 m 1xa0
 143 668 l 1
 369 763 l 1x60
 401 666 l 1
 172 585 l 1xa0
EndSplineSet
EndChar
StartChar: ncommaaccent
Encoding: 326 326 334
Width: 512
Flags: MW
HStem: -298 226<177 317 218 268> 0 21G<60 168 60 60 349 349 349 457> 419 92<258.5 301> 440 60<60 167>
VStem: 60 108<0 345> 349 108<0 282 282 310 0 330.5>
LayerCount: 2
Back
Fore
SplineSet
168 0 m 1xec
 60 0 l 1
 60 500 l 1
 166 500 l 1xdc
 167 440 l 1
 167 440 219 511 298 511 c 0
 414 511 457 424 457 310 c 2
 457 0 l 1
 349 0 l 1
 349 282 l 2
 349 379 330 419 272 419 c 0
 218 419 168 345 168 345 c 1
 168 0 l 1xec
177 -298 m 1
 218 -72 l 1
 317 -72 l 1
 268 -298 l 1
 177 -298 l 1
EndSplineSet
EndChar
StartChar: Ncaron
Encoding: 327 327 79
Width: 640
Flags: MW
HStem: 0 117<396 464 451 464 451 571> 574 111<181 195 181 181> 781 145<159 357 159 286>
VStem: 69 112<0 574 0 685 0 685> 464 107<117 685 0 685>
LayerCount: 2
Back
Fore
SplineSet
484 926 m 1
 357 781 l 1
 286 781 l 1
 159 926 l 1
 267 926 l 1
 321 859 l 1
 376 926 l 1
 484 926 l 1
69 0 m 1
 69 685 l 1
 250 685 l 1
 451 117 l 1
 464 117 l 1
 464 685 l 1
 571 685 l 1
 571 0 l 1
 396 0 l 1
 195 574 l 1
 181 574 l 1
 181 0 l 1
 69 0 l 1
EndSplineSet
Position2: "'cpsp' Capital Spacing in Latin lookup 0 subtable" dx=5 dy=0 dh=10 dv=0
EndChar
StartChar: ncaron
Encoding: 328 328 333
Width: 512
Flags: MW
HStem: 0 21G<60 168 60 60 349 349 349 457> 419 92<258.5 301> 440 60<60 167> 580 165<112 301 112 234>
VStem: 60 108<0 345> 349 108<0 282 282 310 0 330.5>
LayerCount: 2
Back
Fore
SplineSet
168 0 m 1xdc
 60 0 l 1
 60 500 l 1
 166 500 l 1xbc
 167 440 l 1
 167 440 219 511 298 511 c 0
 414 511 457 424 457 310 c 2
 457 0 l 1
 349 0 l 1
 349 282 l 2
 349 379 330 419 272 419 c 0
 218 419 168 345 168 345 c 1
 168 0 l 1xdc
301 580 m 1
 234 580 l 1
 112 745 l 1
 216 745 l 1
 268 671 l 1
 319 745 l 1
 423 745 l 1
 301 580 l 1
EndSplineSet
EndChar
StartChar: Eng
Encoding: 330 330 300
Width: 640
Flags: MW
HStem: 0 117<396 464 451 464 451 464> 582 111<181 195 181 181>
VStem: 69 112<0 582 0 693 0 693> 464 107<-6 0 0 0 117 693>
LayerCount: 2
Back
Fore
SplineSet
69 0 m 1
 69 693 l 1
 250 693 l 1
 451 117 l 1
 464 117 l 1
 464 693 l 1
 571 693 l 1
 571 -10 l 2
 571 -151 552 -200 383 -200 c 1
 383 -102 l 1
 459 -101 464 -76 464 -6 c 2
 464 0 l 1
 396 0 l 1
 195 582 l 1
 181 582 l 1
 181 0 l 1
 69 0 l 1
EndSplineSet
Position2: "'cpsp' Capital Spacing in Latin lookup 0 subtable" dx=5 dy=0 dh=10 dv=0
EndChar
StartChar: eng
Encoding: 331 331 448
Width: 500
Flags: MW
HStem: 0 21G<59 162 59 59 343 343> 409 101<260.5 278.5> 479 20G<59 162 162 162>
VStem: 59 103<0 355 447 499> 343 101<0 228>
LayerCount: 2
Back
Fore
SplineSet
162 0 m 1xb8
 59 0 l 1
 59 499 l 1
 162 499 l 1xb8
 162 447 l 1
 186 469 235 510 286 510 c 0
 399 510 435 436 440 339 c 0
 445 306 444 278 444 228 c 2
 444 -1 l 2
 444 -135 417 -173 284 -241 c 1
 238 -149 l 1
 328 -96 343 -76 343 0 c 2
 343 228 l 2
 343 272 341 305 337 338 c 0
 332 395 291 409 266 409 c 0
 223 409 162 355 162 355 c 1xd8
 162 0 l 1xb8
EndSplineSet
EndChar
StartChar: obreve
Encoding: 335 335 336
Width: 486
Flags: MW
HStem: -11 92<198.5 287 198.5 327.5> 418 92<202 284> 591 148<85 300>
VStem: 38 104<202 303 202 327.5> 85 97<721.5 739 721.5 739> 307 97<721.5 739> 344 104<202 303>
LayerCount: 2
Back
Fore
SplineSet
243 510 m 0xf2
 403 510 448 403 448 252 c 0
 448 102 412 -11 243 -11 c 0
 74 -11 38 102 38 252 c 0
 38 403 82 510 243 510 c 0xf2
243 81 m 0
 331 81 344 152 344 252 c 0
 344 354 325 418 243 418 c 0
 161 418 142 354 142 252 c 0
 142 152 154 81 243 81 c 0
85 739 m 1xec
 182 739 l 1
 182 704 205 681 245 681 c 0
 284 681 307 704 307 739 c 1
 404 739 l 1
 404 665 355 591 245 591 c 0
 134 591 85 665 85 739 c 1xec
EndSplineSet
EndChar
StartChar: OE
Encoding: 338 338 93
Width: 844
Flags: MW
HStem: -11 107<264 307> 0 96 0 107<515 806 515 806 413 806> 294 102<515 750 515 750> 586 107<515 806 515 515> 596 108<248 307 205 316>
VStem: 44 108<317 435 317 467.5> 411 104<107 294 396 586>
LayerCount: 2
Back
Fore
SplineSet
806 0 m 1x3b
 413 0 l 1x3b
 374 -6 324 -11 290 -11 c 0
 168 -11 99 45 67 150 c 0
 51 203 44 268 44 345 c 0
 44 590 120 704 290 704 c 0x97
 324 704 374 698 411 693 c 1
 806 693 l 1
 806 586 l 1
 515 586 l 1
 515 396 l 1
 750 396 l 1
 750 294 l 1
 515 294 l 1
 515 107 l 1
 806 107 l 1
 806 0 l 1x3b
304 96 m 0x5b
 324 96 377 100 411 103 c 1
 411 589 l 1
 380 592 330 596 302 596 c 0
 194 596 152 524 152 346 c 0
 152 288 156 241 165 205 c 0
 183 131 224 96 304 96 c 0x5b
EndSplineSet
Position2: "'cpsp' Capital Spacing in Latin lookup 0 subtable" dx=5 dy=0 dh=10 dv=0
EndChar
StartChar: oe
Encoding: 339 339 226
Width: 779
Flags: MW
HStem: -11 97<223 281> 203 86<450 641 449 742 450 450> 413 97<203.5 270>
VStem: 38 103<227 304 227 330> 347 102<210.5 289> 641 101<203 307>
LayerCount: 2
Back
Fore
SplineSet
554 88 m 0
 622 88 724 97 724 97 c 1
 726 12 l 1
 726 12 636 -11 546 -11 c 0
 479 -11 428 14 397 54 c 1
 365 12 317 -11 245 -11 c 0
 143 -11 88 30 61 100 c 0
 43 146 38 195 38 253 c 0
 38 407 87 510 245 510 c 0
 317 510 368 484 400 439 c 1
 434 486 484 510 547 510 c 0
 641 510 701 468 726 391 c 0
 736 360 742 324 742 282 c 2
 742 203 l 1
 450 203 l 1
 450 179 454 158 461 141 c 0
 475 106 504 88 554 88 c 0
245 86 m 0
 338 86 347 169 347 252 c 0
 347 281 346 312 337 347 c 0
 324 391 295 413 245 413 c 0
 162 413 141 355 141 253 c 0
 141 201 146 159 160 130 c 0
 175 101 201 86 245 86 c 0
449 289 m 1
 641 289 l 1
 641 325 638 351 629 370 c 0
 617 399 592 411 550 411 c 0
 481 411 450 372 449 289 c 1
EndSplineSet
EndChar
StartChar: Racute
Encoding: 340 340 97
Width: 564
Flags: MW
HStem: 339 250<181 299 181 299> 685 21G<69 299 69 69>
VStem: 181 222<0 509.5 243 509.5 423.5 509.5 423.5 589 423.5 589>
LayerCount: 2
Back
Fore
SplineSet
314 243 m 1
 415 0 l 1
 533 0 l 1
 418 267 l 1
 475 294 518 347 518 467 c 0
 518 625 440 685 299 685 c 2
 69 685 l 1
 69 0 l 1
 181 0 l 1
 181 243 l 1
 314 243 l 1
403 467 m 0
 403 380 371 339 299 339 c 2
 181 339 l 1
 181 589 l 1
 299 589 l 2
 371 589 403 552 403 467 c 0
174 774 m 1
 145 856 l 1
 371 951 l 1
 403 854 l 1
 174 774 l 1
EndSplineSet
Position2: "'cpsp' Capital Spacing in Latin lookup 0 subtable" dx=5 dy=0 dh=10 dv=0
EndChar
StartChar: racute
Encoding: 341 341 338
Width: 323
Flags: MW
HStem: 0 21G<60 60 60 168> 427 73<60 167> 491 20G<308 308> 666 21G<295 295> 668 21G<37 37>
VStem: 60 108<0 336 0 500> 167 141<427 500 427 427>
LayerCount: 2
Back
Fore
SplineSet
60 0 m 1xac
 60 500 l 1
 167 500 l 1
 167 427 l 1xd4
 167 427 230 492 308 511 c 1
 308 398 l 1xaa
 242 382 168 336 168 336 c 1
 168 0 l 1
 60 0 l 1xac
66 585 m 1
 37 668 l 1
 263 763 l 1xac
 295 666 l 1
 66 585 l 1
EndSplineSet
EndChar
StartChar: Rcommaaccent
Encoding: 342 342 99
Width: 564
Flags: MW
HStem: -298 226<199 339 240 290> 0 21G<69 181 69 69 415 533 415 415> 243 96<181 299 299 314 181 299> 589 96<181 299 181 181>
VStem: 69 112<0 243 0 339 339 589> 403 115<423.5 509.5>
LayerCount: 2
Back
Fore
SplineSet
199 -298 m 1
 240 -72 l 1
 339 -72 l 1
 290 -298 l 1
 199 -298 l 1
415 0 m 1
 314 243 l 1
 181 243 l 1
 181 0 l 1
 69 0 l 1
 69 685 l 1
 299 685 l 2
 440 685 518 625 518 467 c 0
 518 347 475 294 418 267 c 1
 533 0 l 1
 415 0 l 1
403 467 m 0
 403 552 371 589 299 589 c 2
 181 589 l 1
 181 339 l 1
 299 339 l 2
 371 339 403 380 403 467 c 0
EndSplineSet
Position2: "'cpsp' Capital Spacing in Latin lookup 0 subtable" dx=5 dy=0 dh=10 dv=0
EndChar
StartChar: Rcaron
Encoding: 344 344 98
Width: 564
Flags: MW
HStem: 339 250<181 299 181 299> 685 242<102 210 102 299 69 210> 782 145<102 300 102 229>
VStem: 181 222<0 509.5 243 509.5 423.5 509.5 423.5 589 423.5 589>
LayerCount: 2
Back
Fore
SplineSet
427 927 m 1xd0
 300 782 l 1
 229 782 l 1xb0
 102 927 l 1
 210 927 l 1
 264 860 l 1
 319 927 l 1
 427 927 l 1xd0
314 243 m 1
 415 0 l 1
 533 0 l 1
 418 267 l 1
 475 294 518 347 518 467 c 0
 518 625 440 685 299 685 c 2
 69 685 l 1xd0
 69 0 l 1
 181 0 l 1
 181 243 l 1
 314 243 l 1
403 467 m 0
 403 380 371 339 299 339 c 2
 181 339 l 1
 181 589 l 1
 299 589 l 2
 371 589 403 552 403 467 c 0
EndSplineSet
Position2: "'cpsp' Capital Spacing in Latin lookup 0 subtable" dx=5 dy=0 dh=10 dv=0
EndChar
StartChar: rcaron
Encoding: 345 345 340
Width: 323
Flags: MW
HStem: 0 21G<60 60 60 168> 427 73<60 167> 491 20G<308 308> 580 165<6 195 6 128>
VStem: 60 108<0 336 0 500> 167 141<427 500 427 427>
LayerCount: 2
Back
Fore
SplineSet
60 0 m 1xb8
 60 500 l 1
 167 500 l 1
 167 427 l 1xd8
 167 427 230 492 308 511 c 1
 308 398 l 1xb4
 242 382 168 336 168 336 c 1
 168 0 l 1
 60 0 l 1xb8
195 580 m 1
 128 580 l 1
 6 745 l 1
 110 745 l 1
 162 671 l 1
 213 745 l 1
 317 745 l 1
 195 580 l 1
EndSplineSet
EndChar
StartChar: Scircumflex
Encoding: 348 348 104
Width: 502
Flags: MW
HStem: -11 21G -11 97<215.5 283.5 215.5 322.5> 599 97<224.5 296.5> 785 146<91 288 91 288 224 320 224 422>
VStem: 36 113<477 542 477 564.5> 354 113<154.5 226>
LayerCount: 2
Back
Fore
SplineSet
446 673 m 1x7c
 441 585 l 1
 441 585 328 599 265 599 c 0
 184 599 149 575 149 509 c 0
 149 445 182 432 283 401 c 0
 412 360 467 327 467 200 c 0
 467 57 398 -11 247 -11 c 0x7c
 162 -11 49 10 49 10 c 1xbc
 55 100 l 1
 55 100 184 86 247 86 c 0
 320 86 354 118 354 191 c 0
 354 261 319 277 228 303 c 0
 98 340 36 386 36 494 c 0
 36 635 109 696 258 696 c 0
 343 696 446 673 446 673 c 1x7c
91 785 m 1
 224 931 l 1
 288 931 l 1
 422 785 l 1
 320 785 l 1
 257 855 l 1
 193 785 l 1
 91 785 l 1
EndSplineSet
Position2: "'cpsp' Capital Spacing in Latin lookup 0 subtable" dx=5 dy=0 dh=10 dv=0
EndChar
StartChar: Scedilla
Encoding: 350 350 103
Width: 502
Flags: MW
HStem: -221 75<264.5 269 246 314.5> -91 53<226 278 226 278> -10 21G<226 226 271 271> -10 96<226 226 271 271> 599 97<224.5 296.5>
VStem: 36 113<477 542 477 564.5> 226 45<-38 -10 -38 -10 -38 -10> 294 89<-127 -106.5> 354 113<154.5 226>
LayerCount: 2
Back
Fore
SplineSet
446 673 m 1xae80
 441 585 l 1
 441 585 328 599 265 599 c 0
 184 599 149 575 149 509 c 0
 149 445 182 432 283 401 c 0
 412 360 467 327 467 200 c 0
 467 65 405 -3 271 -10 c 1xae80
 271 -38 l 1
 278 -38 l 2
 330 -38 383 -51 383 -124 c 0
 383 -188 344 -221 285 -221 c 0
 244 -221 200 -212 200 -212 c 1
 203 -144 l 1
 203 -144 236 -146 256 -146 c 0
 282 -146 294 -137 294 -117 c 0
 294 -96 278 -91 256 -91 c 2xef
 226 -91 l 1xee80
 226 -10 l 1
 144 -7 49 10 49 10 c 1xae80
 55 100 l 1
 55 100 184 86 247 86 c 0x9e80
 320 86 354 118 354 191 c 0
 354 261 319 277 228 303 c 0
 98 340 36 386 36 494 c 0
 36 635 109 696 258 696 c 0
 343 696 446 673 446 673 c 1xae80
EndSplineSet
Substitution2: "'locl' Localized Forms in Latin lookup 0 subtable" Scommaaccent
Position2: "'cpsp' Capital Spacing in Latin lookup 0 subtable" dx=5 dy=0 dh=10 dv=0
EndChar
StartChar: scedilla
Encoding: 351 351 343
Width: 430
Flags: MW
HStem: -221 75<219.5 224 201 269.5> -91 53<181 233 181 233> -11 92<226 226> 418 92<197.5 248>
VStem: 38 108<343.5 382.5 343.5 410.5> 181 45<-38 -11 -38 -10 -38 -10> 249 89<-127 -106.5> 289 109<117.5 159.5>
LayerCount: 2
Back
Fore
SplineSet
338 -124 m 0xfe
 338 -188 299 -221 240 -221 c 0
 199 -221 155 -212 155 -212 c 1
 158 -144 l 1
 158 -144 191 -146 211 -146 c 0
 237 -146 249 -137 249 -117 c 0
 249 -96 233 -91 211 -91 c 2xfe
 181 -91 l 1xfd
 181 -10 l 1
 109 -5 37 14 37 14 c 1
 43 97 l 1
 43 97 153 81 200 81 c 0
 264 81 289 96 289 139 c 0
 289 180 264 188 202 201 c 0
 97 224 38 253 38 354 c 0
 38 467 123 510 208 510 c 0
 300 510 381 487 381 487 c 1
 377 404 l 1
 377 404 281 418 215 418 c 0
 180 418 146 402 146 363 c 0
 146 324 167 313 233 297 c 0
 337 272 398 255 398 149 c 0
 398 31 331 -7 226 -11 c 1xbd
 226 -38 l 1
 233 -38 l 2
 285 -38 338 -51 338 -124 c 0xfe
EndSplineSet
Substitution2: "'locl' Localized Forms in Latin lookup 0 subtable" scommaaccent
EndChar
StartChar: Tcedilla
Encoding: 354 354 450
Width: 463
Flags: MW
HStem: -221 75<250.5 255 232 300.5> -91 53<212 264 212 264> 0 21G<178 212 178 178 257 257 257 289> 588 97<11 178 11 452 289 289 289 452>
VStem: 178 111<0 588 0 588> 280 89<-127 -106.5>
LayerCount: 2
Back
Fore
SplineSet
369 -124 m 0xf4
 369 -188 330 -221 271 -221 c 0
 230 -221 186 -212 186 -212 c 1
 189 -144 l 1
 189 -144 222 -146 242 -146 c 0
 268 -146 280 -137 280 -117 c 0
 280 -96 264 -91 242 -91 c 2xf4
 212 -91 l 1
 212 0 l 1
 178 0 l 1
 178 588 l 1
 11 588 l 1
 11 685 l 1
 452 685 l 1
 452 588 l 1
 289 588 l 1
 289 0 l 1
 257 0 l 1xf8
 257 -38 l 1
 264 -38 l 2
 316 -38 369 -51 369 -124 c 0xf4
EndSplineSet
Substitution2: "'locl' Localized Forms in Latin lookup 0 subtable" Tcommaaccent
EndChar
StartChar: tcedilla
Encoding: 355 355 451
Width: 328
Flags: MW
HStem: -221 75<207.5 212 189 257.5> -91 53<169 221 169 221> -11 92<214.5 218 214 249> -6 21G<169 169> 407 93<22 79 22 79 187 309>
VStem: 79 108<148 154 154 407 500 637> 169 45<-38 -11 -38 -6 -38 -6> 237 89<-127 -106.5>
LayerCount: 2
Back
Fore
SplineSet
326 -124 m 0xdd
 326 -188 287 -221 228 -221 c 0
 187 -221 143 -212 143 -212 c 1
 146 -144 l 1
 146 -144 179 -146 199 -146 c 0
 225 -146 237 -137 237 -117 c 0
 237 -96 221 -91 199 -91 c 2xdd
 169 -91 l 1
 169 -6 l 1xdb
 97 9 79 63 79 148 c 2
 79 407 l 1
 22 407 l 1
 22 500 l 1
 79 500 l 1
 79 637 l 1
 187 637 l 1
 187 500 l 1
 309 500 l 1
 309 407 l 1
 187 407 l 1
 187 154 l 2
 187 110 196 81 233 81 c 0xed
 265 81 308 87 308 87 c 1
 313 4 l 1
 313 4 252 -11 218 -11 c 2
 214 -11 l 1xeb
 214 -38 l 1
 221 -38 l 2
 273 -38 326 -51 326 -124 c 0xdd
EndSplineSet
Substitution2: "'locl' Localized Forms in Latin lookup 0 subtable" tcommaaccent
EndChar
StartChar: tcaron
Encoding: 357 357 345
Width: 439
Flags: MW
HStem: -11 92<214.5 235> 407 93<22 79 22 79 187 309> 442 58
VStem: 79 108<148 154 154 407 500 637> 346 99<442 693 442 693>
LayerCount: 2
Back
Fore
SplineSet
309 407 m 1xd8
 187 407 l 1
 187 154 l 2
 187 110 196 81 233 81 c 0
 265 81 308 87 308 87 c 1
 313 4 l 1
 313 4 252 -11 218 -11 c 0
 106 -11 79 46 79 148 c 2
 79 407 l 1
 22 407 l 1
 22 500 l 1
 79 500 l 1
 79 637 l 1
 187 637 l 1
 187 500 l 1
 309 500 l 1
 309 407 l 1xd8
445 693 m 1
 445 442 l 1
 346 442 l 1xb8
 346 693 l 1
 445 693 l 1
EndSplineSet
EndChar
StartChar: Tbar
Encoding: 358 358 107
Width: 468
Flags: MW
HStem: 0 21G<180 291 180 180> 269 97<46 180 46 180 291 430> 588 97<13 454 13 180 291 291 291 454>
VStem: 180 111<0 269 0 269 366 588>
LayerCount: 2
Back
Fore
SplineSet
13 588 m 1
 13 685 l 1
 454 685 l 1
 454 588 l 1
 291 588 l 1
 291 366 l 1
 430 366 l 1
 430 269 l 1
 291 269 l 1
 291 0 l 1
 180 0 l 1
 180 269 l 1
 46 269 l 1
 46 366 l 1
 180 366 l 1
 180 588 l 1
 13 588 l 1
EndSplineSet
Position2: "'cpsp' Capital Spacing in Latin lookup 0 subtable" dx=5 dy=0 dh=10 dv=0
EndChar
StartChar: tbar
Encoding: 359 359 347
Width: 332
Flags: MW
HStem: -11 92<216.5 237> 218 95<31 81 31 81 189 302> 407 93<24 81 24 81 189 311>
VStem: 81 108<148 154 154 218 132 218 313 407 500 637>
LayerCount: 2
Back
Fore
SplineSet
311 407 m 1
 189 407 l 1
 189 313 l 1
 302 313 l 1
 302 218 l 1
 189 218 l 1
 189 154 l 2
 189 110 198 81 235 81 c 0
 267 81 310 87 310 87 c 1
 315 4 l 1
 315 4 254 -11 220 -11 c 0
 108 -11 81 46 81 148 c 2
 81 218 l 1
 31 218 l 1
 31 313 l 1
 81 313 l 1
 81 407 l 1
 24 407 l 1
 24 500 l 1
 81 500 l 1
 81 637 l 1
 189 637 l 1
 189 500 l 1
 311 500 l 1
 311 407 l 1
EndSplineSet
EndChar
StartChar: Utilde
Encoding: 360 360 120
Width: 597
Flags: MW
HStem: -11 97<255 343 255 380> 789 96<363.5 388.5 363.5 399> 837 96<208 238.5>
VStem: 65 112<222 685> 421 111<213 222 222 685>
LayerCount: 2
Back
Fore
SplineSet
177 685 m 1xb8
 177 213 l 2
 177 123 211 86 299 86 c 0
 387 86 421 122 421 213 c 2
 421 685 l 1
 532 685 l 1
 532 222 l 2
 532 60 461 -11 299 -11 c 0
 136 -11 65 60 65 222 c 2
 65 685 l 1
 177 685 l 1xb8
452 926 m 1xd8
 473 851 l 1
 473 851 420 789 378 789 c 0xd8
 331 789 256 837 221 837 c 0
 195 837 145 795 145 795 c 1
 125 870 l 1
 125 870 178 933 222 933 c 0xb8
 276 933 350 885 377 885 c 0
 400 885 452 926 452 926 c 1xd8
EndSplineSet
Position2: "'cpsp' Capital Spacing in Latin lookup 0 subtable" dx=5 dy=0 dh=10 dv=0
EndChar
StartChar: Ubreve
Encoding: 364 364 112
Width: 597
Flags: MW
HStem: -11 97<255 343 255 380> 788 137<236.5 242 355 361.5>
VStem: 65 112<222 685> 144 98<907.5 925 907.5 925> 355 98<907.5 925> 421 111<213 222 222 685>
LayerCount: 2
Back
Fore
SplineSet
177 685 m 1xe4
 177 213 l 2
 177 123 211 86 299 86 c 0
 387 86 421 122 421 213 c 2
 421 685 l 1
 532 685 l 1
 532 222 l 2
 532 60 461 -11 299 -11 c 0
 136 -11 65 60 65 222 c 2
 65 685 l 1
 177 685 l 1xe4
144 925 m 1xd8
 242 925 l 1
 242 890 263 872 299 872 c 0
 332 872 355 890 355 925 c 1
 453 925 l 1
 453 875 424 788 299 788 c 0
 174 788 144 875 144 925 c 1xd8
EndSplineSet
Position2: "'cpsp' Capital Spacing in Latin lookup 0 subtable" dx=5 dy=0 dh=10 dv=0
EndChar
StartChar: ubreve
Encoding: 365 365 350
Width: 513
Flags: MW
HStem: -11 92<212.5 254.5> 0 81<212.5 453 212.5 347> 480 20G<56 164 164 164 345 453 453 453> 591 148<90 305>
VStem: 56 108<190 218 218 500> 90 97<721.5 739 721.5 739> 312 97<721.5 739> 345 108<155 500 0 500>
LayerCount: 2
Back
Fore
SplineSet
345 500 m 1xb9
 453 500 l 1
 453 0 l 1
 347 0 l 1x75
 346 60 l 1
 346 60 294 -11 215 -11 c 0
 102 -11 56 60 56 190 c 2
 56 500 l 1
 164 500 l 1
 164 218 l 2
 164 121 184 81 241 81 c 0
 295 81 345 155 345 155 c 1
 345 500 l 1xb9
90 739 m 1
 187 739 l 1
 187 704 210 681 250 681 c 0
 289 681 312 704 312 739 c 1
 409 739 l 1xb6
 409 665 360 591 250 591 c 0
 139 591 90 665 90 739 c 1
EndSplineSet
EndChar
StartChar: uring
Encoding: 367 367 351
Width: 513
Flags: MW
HStem: -11 92<212.5 254.5> 0 81<212.5 453 212.5 347> 480 20G<56 164 164 164 345 453 453 453> 535 66<242.5 263 242.5 281.5> 674 68<242.5 263>
VStem: 56 108<190 218 218 500> 156 60<627.5 648 627.5 668.5> 289 60<627.5 648> 345 108<155 500 0 500>
LayerCount: 2
Back
Fore
SplineSet
156 638 m 0xbb
 156 699 193 742 253 742 c 0
 311 742 349 699 349 638 c 0
 349 573 310 535 253 535 c 0
 193 535 156 573 156 638 c 0xbb
216 638 m 0
 216 617 232 601 253 601 c 0
 273 601 289 617 289 638 c 0
 289 658 273 674 253 674 c 0
 232 674 216 658 216 638 c 0
345 500 m 1xbc80
 453 500 l 1
 453 0 l 1
 347 0 l 1x7c80
 346 60 l 1
 346 60 294 -11 215 -11 c 0
 102 -11 56 60 56 190 c 2
 56 500 l 1
 164 500 l 1
 164 218 l 2
 164 121 184 81 241 81 c 0
 295 81 345 155 345 155 c 1
 345 500 l 1xbc80
EndSplineSet
EndChar
StartChar: uhungarumlaut
Encoding: 369 369 352
Width: 513
Flags: MW
HStem: -11 92<212.5 254.5> 0 81<212.5 453 212.5 347> 480 20G<56 164 164 164 345 453 453 453>
VStem: 56 108<190 218 218 500> 345 108<155 500 0 500>
LayerCount: 2
Back
Fore
SplineSet
355 568 m 1xb8
 280 622 l 1
 402 791 l 1
 483 735 l 1
 355 568 l 1xb8
167 568 m 1
 93 622 l 1
 215 791 l 1
 295 735 l 1
 167 568 l 1
345 500 m 1
 453 500 l 1
 453 0 l 1
 347 0 l 1x78
 346 60 l 1
 346 60 294 -11 215 -11 c 0
 102 -11 56 60 56 190 c 2
 56 500 l 1
 164 500 l 1
 164 218 l 2
 164 121 184 81 241 81 c 0
 295 81 345 155 345 155 c 1
 345 500 l 1
EndSplineSet
EndChar
StartChar: Uogonek
Encoding: 370 370 118
Width: 598
Flags: MW
HStem: -210 96<286.5 353.5> -10 96
VStem: 65 112<222 685> 217 107<-149 -78> 421 111<213 222 222 685>
LayerCount: 2
Back
Fore
SplineSet
177 685 m 1
 177 213 l 2
 177 123 211 86 299 86 c 0
 387 86 421 122 421 213 c 2
 421 685 l 1
 532 685 l 1
 532 222 l 2
 532 87 483 15 374 -5 c 1
 348 -33 324 -66 324 -90 c 0
 324 -105 334 -114 348 -114 c 0
 359 -114 389 -110 389 -110 c 1
 399 -200 l 1
 399 -200 349 -210 313 -210 c 0
 260 -210 217 -178 217 -120 c 0
 217 -80 242 -41 270 -10 c 1
 127 -2 65 70 65 222 c 2
 65 685 l 1
 177 685 l 1
EndSplineSet
Position2: "'cpsp' Capital Spacing in Latin lookup 0 subtable" dx=5 dy=0 dh=10 dv=0
EndChar
StartChar: uogonek
Encoding: 371 371 353
Width: 513
Flags: MW
HStem: -210 96<351.5 419.5> -11 92<212.5 254.5> 0 21G<453 453> 1 21G<347 347> 480 20G<56 164 164 164 345 453 453 453>
VStem: 56 108<190 218 218 500> 282 108<-149 -76.5> 345 108<155 500 0 500>
LayerCount: 2
Back
Fore
SplineSet
345 500 m 1xcd
 453 500 l 1
 453 0 l 1xad
 418 -30 390 -63 390 -90 c 0
 390 -105 400 -114 414 -114 c 0
 425 -114 455 -110 455 -110 c 1
 465 -200 l 1
 465 -200 415 -210 378 -210 c 0
 325 -210 282 -178 282 -120 c 0xce
 282 -75 315 -31 347 1 c 1x9d
 346 60 l 1
 346 60 294 -11 215 -11 c 0
 102 -11 56 60 56 190 c 2
 56 500 l 1
 164 500 l 1
 164 218 l 2
 164 121 184 81 241 81 c 0
 295 81 345 155 345 155 c 1
 345 500 l 1xcd
EndSplineSet
EndChar
StartChar: Wcircumflex
Encoding: 372 372 124
Width: 849
Flags: MW
HStem: 0 103<235 255 235 328 155 255 594 614> 784 146<259 456 259 456 392 488 392 590>
VStem: 22 804<685 685>
LayerCount: 2
Back
Fore
SplineSet
259 784 m 1
 392 930 l 1
 456 930 l 1
 590 784 l 1
 488 784 l 1
 425 854 l 1
 361 784 l 1
 259 784 l 1
22 685 m 1
 132 685 l 1
 235 103 l 1
 255 103 l 1
 364 675 l 1
 484 675 l 1
 594 103 l 1
 614 103 l 1
 716 685 l 1
 826 685 l 1
 695 0 l 1
 521 0 l 1
 423 534 l 1
 328 0 l 1
 155 0 l 1
 22 685 l 1
EndSplineSet
Position2: "'cpsp' Capital Spacing in Latin lookup 0 subtable" dx=5 dy=0 dh=10 dv=0
EndChar
StartChar: ycircumflex
Encoding: 375 375 359
Width: 452
Flags: MW
HStem: -215 21G<159 261 159 159> 0 90<216 217 138 238> 480 20G<18 124 124 124 332 436 436 436> 580 165<70 256 70 256 192 278 192 380>
VStem: 18 418<500 500>
LayerCount: 2
Back
Fore
SplineSet
18 500 m 1
 124 500 l 1
 216 90 l 1
 238 90 l 1
 332 500 l 1
 436 500 l 1
 261 -215 l 1
 159 -215 l 1
 217 0 l 1
 138 0 l 1
 18 500 l 1
70 580 m 1
 192 745 l 1
 256 745 l 1
 380 580 l 1
 278 580 l 1
 225 652 l 1
 171 580 l 1
 70 580 l 1
EndSplineSet
EndChar
StartChar: Zacute
Encoding: 377 377 134
Width: 491
Flags: MW
HStem: 0 97<167 453 167 453> 588 97<38 453 38 323>
VStem: 38 129<97 115 115 115> 323 130<569 588 588 588>
LayerCount: 2
Back
Fore
SplineSet
164 774 m 1
 135 856 l 1
 361 951 l 1
 393 854 l 1
 164 774 l 1
38 588 m 1
 38 685 l 1
 453 685 l 1
 453 569 l 1
 167 121 l 1
 167 97 l 1
 453 97 l 1
 453 0 l 1
 38 0 l 1
 38 115 l 1
 323 563 l 1
 323 588 l 1
 38 588 l 1
EndSplineSet
Position2: "'cpsp' Capital Spacing in Latin lookup 0 subtable" dx=5 dy=0 dh=10 dv=0
EndChar
StartChar: zacute
Encoding: 378 378 360
Width: 419
Flags: MW
HStem: 93 314<156 266 36 383 156 156> 666 21G<352 352> 668 21G<94 94>
VStem: 36 347<0 91 0 93 411 500 0 407>
LayerCount: 2
Back
Fore
SplineSet
36 500 m 1xb0
 36 407 l 1
 266 407 l 1
 36 91 l 1
 36 0 l 1
 383 0 l 1
 383 93 l 1
 156 93 l 1
 383 411 l 1
 383 500 l 1
 36 500 l 1xb0
123 585 m 1xd0
 94 668 l 1
 320 763 l 1xb0
 352 666 l 1
 123 585 l 1xd0
EndSplineSet
EndChar
StartChar: Zdotaccent
Encoding: 379 379 136
Width: 491
Flags: MW
HStem: 0 97<167 453 167 453> 588 97<38 453 38 323> 796 118<198 291 198 291>
VStem: 38 129<97 115 115 115> 198 93<796 914 796 914> 323 130<569 588 588 588>
LayerCount: 2
Back
Fore
SplineSet
198 796 m 1
 198 914 l 1
 291 914 l 1
 291 796 l 1
 198 796 l 1
38 588 m 1
 38 685 l 1
 453 685 l 1
 453 569 l 1
 167 121 l 1
 167 97 l 1
 453 97 l 1
 453 0 l 1
 38 0 l 1
 38 115 l 1
 323 563 l 1
 323 588 l 1
 38 588 l 1
EndSplineSet
Position2: "'cpsp' Capital Spacing in Latin lookup 0 subtable" dx=5 dy=0 dh=10 dv=0
EndChar
StartChar: zdotaccent
Encoding: 380 380 361
Width: 419
Flags: MW
HStem: 93 314<156 266 36 383 156 156> 500 208<36 257 164 257 164 383> 592 116<164 257 164 257>
VStem: 164 93<592 708 592 708>
LayerCount: 2
Back
Fore
SplineSet
36 500 m 1xd0
 36 407 l 1
 266 407 l 1
 36 91 l 1
 36 0 l 1
 383 0 l 1
 383 93 l 1
 156 93 l 1
 383 411 l 1
 383 500 l 1
 36 500 l 1xd0
164 592 m 1x30
 164 708 l 1
 257 708 l 1
 257 592 l 1
 164 592 l 1x30
EndSplineSet
EndChar
StartChar: Zcaron
Encoding: 381 381 135
Width: 491
Flags: MW
HStem: 0 97<167 453 167 453> 588 97<38 453 38 323> 781 145<94 292 94 221>
VStem: 38 129<97 115 115 115> 323 130<569 588 588 588>
LayerCount: 2
Back
Fore
SplineSet
419 926 m 1
 292 781 l 1
 221 781 l 1
 94 926 l 1
 202 926 l 1
 256 859 l 1
 311 926 l 1
 419 926 l 1
38 588 m 1
 38 685 l 1
 453 685 l 1
 453 569 l 1
 167 121 l 1
 167 97 l 1
 453 97 l 1
 453 0 l 1
 38 0 l 1
 38 115 l 1
 323 563 l 1
 323 588 l 1
 38 588 l 1
EndSplineSet
Position2: "'cpsp' Capital Spacing in Latin lookup 0 subtable" dx=5 dy=0 dh=10 dv=0
EndChar
StartChar: zcaron
Encoding: 382 382 155
Width: 419
Flags: MW
HStem: 0 93<156 383 156 383> 407 93<36 383 36 266> 580 165<63 252 63 185>
VStem: 36 347<0 91 91 91 411 500>
LayerCount: 2
Back
Fore
SplineSet
252 580 m 1
 185 580 l 1
 63 745 l 1
 167 745 l 1
 219 671 l 1
 270 745 l 1
 374 745 l 1
 252 580 l 1
36 407 m 1
 36 500 l 1
 383 500 l 1
 383 411 l 1
 156 93 l 1
 383 93 l 1
 383 0 l 1
 36 0 l 1
 36 91 l 1
 266 407 l 1
 36 407 l 1
EndSplineSet
EndChar
StartChar: florin
Encoding: 402 402 225
Width: 560
Flags: MW
HStem: -243 95<136.5 166.5 136.5 199> -232 21G<78 78> 368 101<111 206 111 206 311 453> 598 101<340.5 359.5 292 381> 688 21G<460 460>
VStem: 206 105<-63 368 469 491>
LayerCount: 2
Back
Fore
SplineSet
311 368 m 1x6c
 311 -63 l 2
 311 -204 248 -243 150 -243 c 0xac
 117 -243 78 -232 78 -232 c 1x6c
 78 -145 l 1
 78 -145 123 -148 150 -148 c 0
 183 -148 206 -127 206 -63 c 2
 206 368 l 1
 111 368 l 1
 111 469 l 1
 206 469 l 1
 206 503 l 2
 206 654 243 699 341 699 c 0xb4
 378 699 435 693 460 688 c 1x6c
 459 596 l 1
 459 596 396 598 366 598 c 0x74
 315 598 311 563 311 491 c 2
 311 469 l 1
 453 469 l 1
 453 368 l 1
 311 368 l 1x6c
EndSplineSet
EndChar
StartChar: aringacute
Encoding: 507 507 303
Width: 504
Flags: MW
HStem: -11 92<196 247.5> -3 21G<341 341> 1 21G<449 449> 419 92<211 263> 491 20G<159.5 274.5> 535 66<241.5 262 241.5 280.5> 674 68<241.5 262>
VStem: 39 110<194 300.5 194 319> 155 60<627.5 648 627.5 668.5> 288 60<627.5 648> 336 108<53.5 134 166 411 411 411>
LayerCount: 2
Back
Fore
SplineSet
153 761 m 1x9320
 121 853 l 1
 347 947 l 1
 382 842 l 1
 153 761 l 1x9320
205 -11 m 0
 83 -11 39 75 39 242 c 0
 39 396 78 511 241 511 c 0x9320
 308 511 444 493 444 493 c 1
 444 134 l 2
 444 99 449 1 449 1 c 1x2b20
 341 -3 l 1x5320
 341 -3 336 37 336 70 c 1
 336 70 290 -11 205 -11 c 0
251 419 m 0
 171 419 149 359 149 242 c 0
 149 146 163 81 229 81 c 0
 292 81 336 166 336 166 c 1
 336 411 l 1
 336 411 275 419 251 419 c 0
155 638 m 0x96c0
 155 699 192 742 252 742 c 0
 310 742 348 699 348 638 c 0
 348 573 309 535 252 535 c 0
 192 535 155 573 155 638 c 0x96c0
215 638 m 0
 215 617 231 601 252 601 c 0
 272 601 288 617 288 638 c 0
 288 658 272 674 252 674 c 0
 231 674 215 658 215 638 c 0
EndSplineSet
EndChar
StartChar: Oslashacute
Encoding: 510 510 91
Width: 602
Flags: MW
HStem: -11 97<288 316 288 330.5> 599 97<287 316>
VStem: 46 115<304.5 421.5 304.5 433> 442 115<277.5 388.5>
LayerCount: 2
Back
Fore
SplineSet
141 -118 m 1
 77 -85 l 1
 132 39 l 1
 68 94 46 195 46 349 c 0
 46 517 73 617 151 663 c 0
 189 686 238 696 301 696 c 0
 346 696 384 691 415 680 c 1
 469 801 l 1
 536 776 l 1
 477 644 l 1
 536 591 557 496 557 349 c 0
 557 175 528 68 443 20 c 0
 407 -1 360 -11 301 -11 c 0
 260 -11 225 -6 195 4 c 1
 141 -118 l 1
183 154 m 1
 273 358 l 1
 374 586 l 1
 355 595 331 599 301 599 c 0
 273 599 250 595 232 588 c 0
 172 563 161 494 161 349 c 0
 161 260 166 196 183 154 c 1
301 86 m 0
 331 86 354 91 373 100 c 0
 429 130 442 206 442 349 c 0
 442 428 438 485 425 524 c 1
 338 327 l 1
 236 97 l 1
 253 89 275 86 301 86 c 0
229 765 m 1
 197 856 l 1
 424 951 l 1
 459 846 l 1
 229 765 l 1
EndSplineSet
Position2: "'cpsp' Capital Spacing in Latin lookup 0 subtable" dx=5 dy=0 dh=10 dv=0
EndChar
StartChar: oslashacute
Encoding: 511 511 280
Width: 486
Flags: MW
HStem: -11 92<237 287 237 327.5> -4 21G<177 177> 418 92<202 247.5> 484 20G<303 303> 666 21G<370 370> 668 21G<112 112>
VStem: 38 104<227 303 227 327.5> 344 104<202 277.5>
LayerCount: 2
Back
Fore
SplineSet
243 510 m 0xa7
 265 510 285 508 303 504 c 1
 341 605 l 1
 406 580 l 1
 365 478 l 1
 427 435 448 353 448 252 c 0
 448 102 412 -11 243 -11 c 0x97
 218 -11 196 -8 177 -4 c 1x67
 138 -109 l 1
 73 -84 l 1
 116 23 l 1
 54 67 38 151 38 252 c 0
 38 403 82 510 243 510 c 0xa7
141 585 m 1xab
 112 668 l 1
 338 763 l 1xa7
 370 666 l 1
 141 585 l 1xab
243 81 m 0
 331 81 344 152 344 252 c 0
 344 303 339 345 324 374 c 1
 270 240 l 1
 211 84 l 1
 220 82 231 81 243 81 c 0
158 130 m 1
 211 261 l 1
 269 415 l 1
 261 417 252 418 243 418 c 0
 161 418 142 354 142 252 c 0
 142 202 145 160 158 130 c 1
EndSplineSet
EndChar
StartChar: tcommaaccent
Encoding: 539 539 346
Width: 328
Flags: MW
HStem: -72 153<136 249 214.5 235> -11 92<214.5 235> 407 93<22 79 22 79 187 309>
VStem: 79 108<148 154 154 407 500 637>
LayerCount: 2
Back
Fore
SplineSet
309 407 m 1x70
 187 407 l 1
 187 154 l 2
 187 110 196 81 233 81 c 0
 265 81 308 87 308 87 c 1
 313 4 l 1
 313 4 252 -11 218 -11 c 0
 106 -11 79 46 79 148 c 2
 79 407 l 1
 22 407 l 1
 22 500 l 1
 79 500 l 1
 79 637 l 1
 187 637 l 1
 187 500 l 1
 309 500 l 1
 309 407 l 1x70
136 -72 m 1xb0
 95 -298 l 1
 186 -298 l 1
 235 -72 l 1
 136 -72 l 1xb0
EndSplineSet
EndChar
StartChar: circumflex
Encoding: 710 710 6
Width: 791
Flags: MW
HStem: 580 165<231 417 231 417 353 439 353 541>
VStem: 231 310<580 580>
LayerCount: 2
Back
Fore
SplineSet
231 580 m 1
 353 745 l 1
 417 745 l 1
 541 580 l 1
 439 580 l 1
 386 652 l 1
 332 580 l 1
 231 580 l 1
EndSplineSet
EndChar
StartChar: caron
Encoding: 711 711 4
Width: 791
Flags: MW
HStem: 580 165<230 419 230 352>
VStem: 230 311<745 745>
LayerCount: 2
Back
Fore
SplineSet
419 580 m 1
 352 580 l 1
 230 745 l 1
 334 745 l 1
 386 671 l 1
 437 745 l 1
 541 745 l 1
 419 580 l 1
EndSplineSet
EndChar
StartChar: breve
Encoding: 728 728 3
Width: 452
Flags: MW
HStem: 591 148<49 264>
VStem: 49 97<721.5 739 721.5 739> 271 97<721.5 739>
LayerCount: 2
Back
Fore
SplineSet
49 739 m 1
 146 739 l 1
 146 704 169 681 209 681 c 0
 248 681 271 704 271 739 c 1
 368 739 l 1
 368 665 319 591 209 591 c 0
 98 591 49 665 49 739 c 1
EndSplineSet
EndChar
StartChar: dotaccent
Encoding: 729 729 9
Width: 242
Flags: MW
HStem: 592 116<73 166 73 166>
VStem: 73 93<592 708 592 708>
LayerCount: 2
Back
Fore
SplineSet
73 592 m 1
 73 708 l 1
 166 708 l 1
 166 592 l 1
 73 592 l 1
EndSplineSet
EndChar
StartChar: ring
Encoding: 730 730 14
Width: 791
Flags: MW
HStem: 535 66<242.5 263 242.5 281.5> 674 68<242.5 263>
VStem: 156 60<627.5 648 627.5 668.5> 289 60<627.5 648>
LayerCount: 2
Back
Fore
SplineSet
156 638 m 0
 156 699 193 742 253 742 c 0
 311 742 349 699 349 638 c 0
 349 573 310 535 253 535 c 0
 193 535 156 573 156 638 c 0
216 638 m 0
 216 617 232 601 253 601 c 0
 273 601 289 617 289 638 c 0
 289 658 273 674 253 674 c 0
 232 674 216 658 216 638 c 0
EndSplineSet
EndChar
StartChar: ogonek
Encoding: 731 731 13
Width: 440
Flags: MW
HStem: -210 96<263.5 330.5>
VStem: 194 107<-97.5 -94.5>
LayerCount: 2
Back
Fore
SplineSet
366 -110 m 1
 376 -200 l 1
 376 -200 326 -210 290 -210 c 0
 237 -210 194 -178 194 -120 c 0
 194 -69 236 -19 271 14 c 1
 360 5 l 1
 331 -26 301 -63 301 -90 c 0
 301 -105 311 -114 325 -114 c 0
 336 -114 366 -110 366 -110 c 1
EndSplineSet
EndChar
StartChar: tilde
Encoding: 732 732 15
Width: 438
Flags: MW
HStem: 600 96<267 291.5 267 301> 646 95<127.5 155.5> 660 21G
VStem: 47 325<660 681>
LayerCount: 2
Back
Fore
SplineSet
352 735 m 1x90
 372 660 l 1x30
 372 660 322 600 280 600 c 0x90
 234 600 171 646 140 646 c 0
 115 646 66 605 66 605 c 1
 47 681 l 1
 47 681 97 741 142 741 c 0x50
 191 741 254 696 280 696 c 0
 303 696 352 735 352 735 c 1x90
EndSplineSet
EndChar
StartChar: hungarumlaut
Encoding: 733 733 10
Width: 679
Flags: MW
HStem: 568 223<201 249 249 389>
VStem: 127 390<622 735>
LayerCount: 2
Back
Fore
SplineSet
389 568 m 1
 314 622 l 1
 436 791 l 1
 517 735 l 1
 389 568 l 1
201 568 m 1
 127 622 l 1
 249 791 l 1
 329 735 l 1
 201 568 l 1
EndSplineSet
EndChar
StartChar: pi
Encoding: 960 960 206
Width: 560
Flags: MW
HStem: -7 92<490.5 522 490.5 522> 0 21G<85 194 85 85> 407 93<93.5 410 221 337 221 221>
VStem: 337 108<154 407 407 407>
LayerCount: 2
Back
Fore
SplineSet
337 154 m 2xb0
 337 407 l 1
 221 407 l 1
 194 0 l 1
 85 0 l 1x70
 116 407 l 1
 71 407 20 394 20 394 c 1
 20 483 l 1
 20 483 81 500 166 500 c 2
 410 500 l 2
 474 500 529 513 529 513 c 1
 529 423 l 1
 529 423 503 412 445 409 c 1
 445 154 l 2
 445 103 459 85 522 85 c 1
 522 -7 l 1
 361 -7 337 23 337 154 c 2xb0
EndSplineSet
EndChar
StartChar: wgrave
Encoding: 7809 7809 354
Width: 743
Flags: MW
HStem: 0 93<205 227 205 300 118 227 516 538> 480 20G<25 132 132 132 611 718 718 718> 670 21G<488 488> 671 21G<230 230>
VStem: 25 693<500 500>
LayerCount: 2
Back
Fore
SplineSet
261 761 m 1xd8
 488 670 l 1
 461 590 l 1xe8
 230 671 l 1
 261 761 l 1xd8
25 500 m 1
 132 500 l 1
 205 93 l 1
 227 93 l 1
 314 490 l 1
 429 490 l 1
 516 93 l 1
 538 93 l 1
 611 500 l 1
 718 500 l 1
 624 0 l 1
 442 0 l 1
 371 342 l 1
 300 0 l 1
 118 0 l 1
 25 500 l 1
EndSplineSet
EndChar
StartChar: wacute
Encoding: 7811 7811 355
Width: 743
Flags: MW
HStem: 0 93<205 227 205 300 118 227 516 538> 480 20G<25 132 132 132 611 718 718 718> 666 21G<508 508> 668 21G<250 250>
VStem: 25 693<500 500>
LayerCount: 2
Back
Fore
SplineSet
25 500 m 1xd8
 132 500 l 1
 205 93 l 1
 227 93 l 1
 314 490 l 1
 429 490 l 1
 516 93 l 1
 538 93 l 1
 611 500 l 1
 718 500 l 1
 624 0 l 1
 442 0 l 1
 371 342 l 1
 300 0 l 1
 118 0 l 1
 25 500 l 1xd8
279 585 m 1xe8
 250 668 l 1
 476 763 l 1xd8
 508 666 l 1
 279 585 l 1xe8
EndSplineSet
EndChar
StartChar: wdieresis
Encoding: 7813 7813 357
Width: 743
Flags: MW
HStem: 0 93<205 227 205 300 118 227 516 538> 480 20G<25 132 132 132 611 718 718 718> 609 117<232 321 232 321 421 509 232 421>
VStem: 232 89<609 726 609 726> 421 88<609 726 609 726>
LayerCount: 2
Back
Fore
SplineSet
25 500 m 1
 132 500 l 1
 205 93 l 1
 227 93 l 1
 314 490 l 1
 429 490 l 1
 516 93 l 1
 538 93 l 1
 611 500 l 1
 718 500 l 1
 624 0 l 1
 442 0 l 1
 371 342 l 1
 300 0 l 1
 118 0 l 1
 25 500 l 1
232 609 m 1
 232 726 l 1
 321 726 l 1
 321 609 l 1
 232 609 l 1
421 609 m 1
 421 726 l 1
 509 726 l 1
 509 609 l 1
 421 609 l 1
EndSplineSet
EndChar
StartChar: uni1EAB
Encoding: 7851 7851 369
Width: 504
Flags: MW
HStem: -11 92<196 247.5> -3 21G<341 341> 1 21G<449 449> 419 92<211 263> 491 20G<159.5 274.5> 550 165<103 289 103 289 225 311 225 413> 622 93<258 258> 744 96<325 349.5 325 359> 790 95<185.5 213.5>
VStem: 39 110<194 300.5 194 319> 336 108<53.5 134 166 411 411 411>
LayerCount: 2
Back
Fore
SplineSet
205 -11 m 0x94e0
 83 -11 39 75 39 242 c 0
 39 396 78 511 241 511 c 0x94e0
 308 511 444 493 444 493 c 1
 444 134 l 2
 444 99 449 1 449 1 c 1x2ce0
 341 -3 l 1x54e0
 341 -3 336 37 336 70 c 1
 336 70 290 -11 205 -11 c 0x94e0
251 419 m 0
 171 419 149 359 149 242 c 0
 149 146 163 81 229 81 c 0
 292 81 336 166 336 166 c 1
 336 411 l 1
 336 411 275 419 251 419 c 0
410 879 m 1x9560
 430 804 l 1
 430 804 380 744 338 744 c 0x9560
 292 744 229 790 198 790 c 0
 173 790 124 749 124 749 c 1
 105 825 l 1
 105 825 155 885 200 885 c 0x94e0
 249 885 312 840 338 840 c 0
 361 840 410 879 410 879 c 1x9560
103 550 m 1x94e0
 225 715 l 1
 289 715 l 1
 413 550 l 1
 311 550 l 1x94e0
 258 622 l 1x92e0
 204 550 l 1
 103 550 l 1x94e0
EndSplineSet
EndChar
StartChar: uni1EB0
Encoding: 7856 7856 365
Width: 552
Flags: MW
HStem: 0 21G<17 17 17 128 423 423 423 534> 143 98<184 367 184 388 165 367> 588 97<265 265 265 286> 748 137<213.5 219 332 338.5>
VStem: 121 98<867.5 885 867.5 885> 332 98<867.5 885>
LayerCount: 2
Back
Fore
SplineSet
179 1114 m 1
 406 1023 l 1
 379 943 l 1
 148 1024 l 1
 179 1114 l 1
17 0 m 1
 175 685 l 1
 377 685 l 1
 534 0 l 1
 423 0 l 1
 388 143 l 1
 165 143 l 1
 128 0 l 1
 17 0 l 1
265 588 m 1
 184 241 l 1
 367 241 l 1
 286 588 l 1
 265 588 l 1
121 885 m 1
 219 885 l 1
 219 850 240 832 276 832 c 0
 309 832 332 850 332 885 c 1
 430 885 l 1
 430 835 401 748 276 748 c 0
 151 748 121 835 121 885 c 1
EndSplineSet
EndChar
StartChar: uni1EC5
Encoding: 7877 7877 367
Width: 459
Flags: MW
HStem: -10 93<214 282.5 214 287> 210 81<147 187 147 187 146 187> 423 87<208.5 269.5> 550 165<85 271 85 271 207 293 207 395> 622 93<240 240> 744 96<298 322.5 298 332> 790 95<158.5 186.5>
VStem: 37 109<160.5 194 194 210 160.5 314.5> 321 107<331.5 384.5>
LayerCount: 2
Back
Fore
SplineSet
248 83 m 0xf180
 317 83 405 98 405 98 c 1
 408 20 l 1
 408 20 334 -10 240 -10 c 0
 99 -10 37 67 37 236 c 0
 37 393 94 510 244 510 c 0
 361 510 428 468 428 362 c 0
 428 237 345 210 187 210 c 2
 146 210 l 1
 146 194 l 2
 146 127 180 83 248 83 c 0xf180
383 879 m 1xf580
 403 804 l 1
 403 804 353 744 311 744 c 0xf580
 265 744 202 790 171 790 c 0
 146 790 97 749 97 749 c 1
 78 825 l 1
 78 825 128 885 173 885 c 0xf380
 222 885 285 840 311 840 c 0
 334 840 383 879 383 879 c 1xf580
85 550 m 1xf180
 207 715 l 1
 271 715 l 1
 395 550 l 1
 293 550 l 1xf180
 240 622 l 1xe980
 186 550 l 1
 85 550 l 1xf180
147 291 m 1
 187 291 l 2
 280 291 321 302 321 361 c 0
 321 408 295 423 244 423 c 0
 173 423 148 369 147 291 c 1
EndSplineSet
EndChar
StartChar: uni1ED7
Encoding: 7895 7895 368
Width: 486
Flags: MW
HStem: -11 92<198.5 287 198.5 327.5> 418 92<202 284> 550 165<85 271 85 271 207 293 207 395> 622 93<240 240> 744 96<303 327.5 303 337> 790 95<163.5 191.5>
VStem: 38 104<202 303 202 327.5> 344 104<202 303>
LayerCount: 2
Back
Fore
SplineSet
243 510 m 0xe7
 403 510 448 403 448 252 c 0
 448 102 412 -11 243 -11 c 0
 74 -11 38 102 38 252 c 0
 38 403 82 510 243 510 c 0xe7
243 81 m 0
 331 81 344 152 344 252 c 0
 344 354 325 418 243 418 c 0
 161 418 142 354 142 252 c 0
 142 152 154 81 243 81 c 0
388 879 m 1xeb
 408 804 l 1
 408 804 358 744 316 744 c 0xeb
 270 744 207 790 176 790 c 0
 151 790 102 749 102 749 c 1
 83 825 l 1
 83 825 133 885 178 885 c 0xe7
 227 885 290 840 316 840 c 0
 339 840 388 879 388 879 c 1xeb
85 550 m 1xe7
 207 715 l 1
 271 715 l 1
 395 550 l 1
 293 550 l 1xe7
 240 622 l 1xd7
 186 550 l 1
 85 550 l 1xe7
EndSplineSet
EndChar
StartChar: uni1EF9
Encoding: 7929 7929 364
Width: 452
Flags: MW
HStem: -215 21G<159 261 159 159> 0 90<216 217 138 238> 480 20G<18 124 124 124 332 436 436 436> 600 96<292 316.5 292 326> 646 95<152.5 180.5> 660 21G
VStem: 18 418<500 500>
LayerCount: 2
Back
Fore
SplineSet
377 735 m 1xf2
 397 660 l 1xe6
 397 660 347 600 305 600 c 0xf2
 259 600 196 646 165 646 c 0
 140 646 91 605 91 605 c 1
 72 681 l 1
 72 681 122 741 167 741 c 0xea
 216 741 279 696 305 696 c 0
 328 696 377 735 377 735 c 1xf2
18 500 m 1
 124 500 l 1
 216 90 l 1
 238 90 l 1
 332 500 l 1
 436 500 l 1
 261 -215 l 1
 159 -215 l 1
 217 0 l 1
 138 0 l 1
 18 500 l 1
EndSplineSet
EndChar
StartChar: endash
Encoding: 8211 8211 143
Width: 612
Flags: MW
HStem: 220 93<56 556 56 556>
VStem: 56 500<220 313 220 313>
LayerCount: 2
Back
Fore
SplineSet
56 313 m 1
 556 313 l 1
 556 220 l 1
 56 220 l 1
 56 313 l 1
EndSplineSet
Substitution2: "'case' Case-Sensitive Forms in Latin lookup 4 subtable" endash.cap
EndChar
StartChar: quoteleft
Encoding: 8216 8216 243
Width: 214
Flags: MW
HStem: 444 241<97 140 36 176>
VStem: 36 140
LayerCount: 2
Back
Fore
SplineSet
97 685 m 1
 176 685 l 1
 140 444 l 1
 36 444 l 1
 97 685 l 1
EndSplineSet
EndChar
StartChar: quoteright
Encoding: 8217 8217 244
Width: 214
Flags: MW
HStem: 444 241<78 121 42 182>
VStem: 42 140
LayerCount: 2
Back
Fore
SplineSet
121 444 m 1
 42 444 l 1
 78 685 l 1
 182 685 l 1
 121 444 l 1
EndSplineSet
EndChar
StartChar: quotesinglbase
Encoding: 8218 8218 283
Width: 213
Flags: MW
HStem: -81 116<67 88 50 117>
VStem: 50 67
LayerCount: 2
Back
Fore
SplineSet
88 -81 m 1
 50 -81 l 1
 67 35 l 1
 117 35 l 1
 88 -81 l 1
EndSplineSet
EndChar
StartChar: quotedblleft
Encoding: 8220 8220 210
Width: 392
Flags: MW
HStem: 445 241<98 141 37 177 98 213 274 317>
VStem: 37 316<445 686>
LayerCount: 2
Back
Fore
SplineSet
98 686 m 1
 177 686 l 1
 141 445 l 1
 37 445 l 1
 98 686 l 1
274 686 m 1
 353 686 l 1
 317 445 l 1
 213 445 l 1
 274 686 l 1
EndSplineSet
EndChar
StartChar: quotedblright
Encoding: 8221 8221 255
Width: 390
Flags: MW
HStem: 444 241<78 121 42 182 78 218 254 297>
VStem: 42 316<444 685>
LayerCount: 2
Back
Fore
SplineSet
121 444 m 1
 42 444 l 1
 78 685 l 1
 182 685 l 1
 121 444 l 1
297 444 m 1
 218 444 l 1
 254 685 l 1
 358 685 l 1
 297 444 l 1
EndSplineSet
EndChar
StartChar: quotedblbase
Encoding: 8222 8222 380
Width: 372
Flags: MW
HStem: -165 241<93 136 32 172 152 172 213 256 152 152>
VStem: 32 260<-165 76>
LayerCount: 2
Back
Fore
SplineSet
213 76 m 1
 292 76 l 1
 256 -165 l 1
 152 -165 l 1
 213 76 l 1
93 76 m 1
 172 76 l 1
 136 -165 l 1
 32 -165 l 1
 93 76 l 1
EndSplineSet
EndChar
StartChar: dagger
Encoding: 8224 8224 251
Width: 447
Flags: MW
HStem: 389 108<27 173 27 173 27 274 274 420>
VStem: 173 101<-72 389 -72 389 497 676>
LayerCount: 2
Back
Fore
SplineSet
27 389 m 1
 27 497 l 1
 173 497 l 1
 173 676 l 1
 274 676 l 1
 274 497 l 1
 420 497 l 1
 420 389 l 1
 274 389 l 1
 274 -72 l 1
 173 -72 l 1
 173 389 l 1
 27 389 l 1
EndSplineSet
EndChar
StartChar: daggerdbl
Encoding: 8225 8225 227
Width: 479
Flags: MW
HStem: 106 108<43 189 43 189 43 290 290 436> 389 108<43 189 43 189 43 290 290 435>
VStem: 189 101<-72 106 -72 106 214 389 497 676>
LayerCount: 2
Back
Fore
SplineSet
189 -72 m 1
 189 106 l 1
 43 106 l 1
 43 214 l 1
 189 214 l 1
 189 389 l 1
 43 389 l 1
 43 497 l 1
 189 497 l 1
 189 676 l 1
 290 676 l 1
 290 497 l 1
 435 497 l 1
 435 389 l 1
 290 389 l 1
 290 214 l 1
 436 214 l 1
 436 106 l 1
 290 106 l 1
 290 -72 l 1
 189 -72 l 1
EndSplineSet
EndChar
StartChar: bullet
Encoding: 8226 8226 207
Width: 446
Flags: MW
HStem: 103 282<98 348 98 348>
VStem: 98 250<103 385 103 385>
LayerCount: 2
Back
Fore
SplineSet
98 103 m 1
 98 385 l 1
 348 385 l 1
 348 103 l 1
 98 103 l 1
EndSplineSet
EndChar
StartChar: ellipsis
Encoding: 8230 8230 268
Width: 687
Flags: MW
HStem: 0 135<55 165 55 165 288 398 55 288 521 631>
VStem: 55 110<0 135 0 135> 288 110<0 135 0 135> 521 110<0 135 0 135>
LayerCount: 2
Back
Fore
SplineSet
55 0 m 1
 55 135 l 1
 165 135 l 1
 165 0 l 1
 55 0 l 1
288 0 m 1
 288 135 l 1
 398 135 l 1
 398 0 l 1
 288 0 l 1
521 0 m 1
 521 135 l 1
 631 135 l 1
 631 0 l 1
 521 0 l 1
EndSplineSet
EndChar
StartChar: perthousand
Encoding: 8240 8240 274
Width: 833
Flags: MW
HStem: 0 68<420 446 420 469 677 703> 219 67<420 446 677 703> 482 151<131 157> 696 21G<421 421>
VStem: 110 68<533 585> 317 82<118 170 118 192.5> 467 81<118 170> 574 82<118 170 118 192.5> 724 81<118 170>
LayerCount: 2
Back
Fore
SplineSet
144 633 m 0
 170 633 178 611 178 559 c 0
 178 507 170 482 144 482 c 0
 118 482 110 507 110 559 c 0
 110 611 118 633 144 633 c 0
159 1 m 1
 349 715 l 1
 421 696 l 1
 231 -17 l 1
 159 1 l 1
28 559 m 0
 28 462 71 415 144 415 c 0
 217 415 260 462 260 559 c 0
 260 656 217 701 144 701 c 0
 71 701 28 656 28 559 c 0
317 144 m 0
 317 241 359 286 433 286 c 0
 505 286 548 241 548 144 c 0
 548 47 505 0 433 0 c 0
 360 0 317 47 317 144 c 0
399 144 m 0
 399 92 407 68 433 68 c 0
 459 68 467 92 467 144 c 0
 467 196 459 219 433 219 c 0
 407 219 399 196 399 144 c 0
574 144 m 0xc180
 574 241 617 286 690 286 c 0
 763 286 805 241 805 144 c 0
 805 47 762 0 690 0 c 0
 617 0 574 47 574 144 c 0xc180
656 144 m 0
 656 92 664 68 690 68 c 0
 716 68 724 92 724 144 c 0
 724 196 716 219 690 219 c 0
 664 219 656 196 656 144 c 0
EndSplineSet
EndChar
StartChar: guilsinglleft
Encoding: 8249 8249 381
Width: 284
Flags: MW
HStem: 58 366<228 228>
VStem: 32 196<58 271 58 271>
LayerCount: 2
Back
Fore
SplineSet
228 424 m 1
 228 327 l 1
 120 246 l 1
 228 155 l 1
 228 58 l 1
 32 218 l 1
 32 271 l 1
 228 424 l 1
EndSplineSet
EndChar
StartChar: guilsinglright
Encoding: 8250 8250 382
Width: 284
Flags: MW
HStem: 157 176<56 56>
VStem: 56 196<157 259 203 259 234 333 234 333>
LayerCount: 2
Back
Fore
SplineSet
56 286 m 1
 56 333 l 1
 252 259 l 1
 252 234 l 1
 56 157 l 1
 56 203 l 1
 164 247 l 1
 56 286 l 1
EndSplineSet
EndChar
StartChar: fraction
Encoding: 8260 8260 419
Width: 36
Flags: MW
HStem: 693 20G<104 104>
VStem: -161 364
LayerCount: 2
Back
Fore
SplineSet
-62 -19 m 1
 -161 17 l 1
 104 713 l 1
 203 678 l 1
 -62 -19 l 1
EndSplineSet
EndChar
StartChar: zerosuperior
Encoding: 8304 8304 256
Width: 280
Flags: MW
HStem: 468 79<129 151.5 129 157.5> 721 79<128.5 152>
VStem: 15 91<596 669> 174 91<596.5 669>
LayerCount: 2
Back
Fore
SplineSet
140 800 m 0
 221 800 265 759 265 633 c 0
 265 560 250 517 223 493 c 0
 203 475 175 468 140 468 c 0
 60 468 15 505 15 633 c 0
 15 705 30 750 57 774 c 0
 78 793 106 800 140 800 c 0
140 721 m 0
 117 721 106 706 106 633 c 0
 106 559 118 547 140 547 c 0
 163 547 174 559 174 633 c 0
 174 705 164 721 140 721 c 0
EndSplineSet
Substitution2: "Single Substitution lookup 5 subtable" zeroinferior
EndChar
StartChar: fivesuperior
Encoding: 8309 8309 261
Width: 280
Flags: MW
HStem: 470 76<118 141.5 111.5 179.5> 604 75<131.5 192.5> 669 21G<114 114> 714 76<118 246 118 118>
VStem: 42 74 165 92<566 586.5>
LayerCount: 2
Back
Fore
SplineSet
47 790 m 1xbc
 246 790 l 1
 246 714 l 1
 118 714 l 1
 114 669 l 1xbc
 114 669 140 679 163 679 c 0
 222 679 257 653 257 576 c 0
 257 507 216 470 143 470 c 0
 93 470 30 484 30 484 c 1
 37 556 l 1
 37 556 92 546 131 546 c 0
 152 546 165 556 165 576 c 0
 165 597 155 604 140 604 c 0
 123 604 103 596 103 596 c 1
 37 604 l 1xdc
 47 790 l 1xbc
EndSplineSet
Substitution2: "Single Substitution lookup 5 subtable" fiveinferior
EndChar
StartChar: sixsuperior
Encoding: 8310 8310 262
Width: 280
Flags: MW
HStem: 468 76<132 153 132 179.5> 613 72<150.5 153.5> 723 77<139.5 171 104 171.5>
VStem: 21 90<584 601 677 682.5> 173 89<569.5 591.5>
LayerCount: 2
Back
Fore
SplineSet
251 789 m 1
 246 717 l 1
 246 717 187 723 156 723 c 0
 123 723 111 706 111 677 c 1
 123 680 143 685 158 685 c 0
 231 685 262 649 262 581 c 0
 262 509 213 468 146 468 c 0
 59 468 21 522 21 625 c 0
 21 740 55 800 153 800 c 0
 189 800 251 789 251 789 c 1
144 613 m 0
 129 613 116 604 111 601 c 1
 111 567 121 544 143 544 c 0
 163 544 173 559 173 580 c 0
 173 603 163 613 144 613 c 0
EndSplineSet
Substitution2: "Single Substitution lookup 5 subtable" sixinferior
EndChar
StartChar: sevensuperior
Encoding: 8311 8311 263
Width: 280
Flags: MW
HStem: 703 87<28 246 28 144>
VStem: 144 102<699 703 703 703>
LayerCount: 2
Back
Fore
SplineSet
28 703 m 1
 28 790 l 1
 246 790 l 1
 246 699 l 1
 147 469 l 1
 47 485 l 1
 144 687 l 1
 144 703 l 1
 28 703 l 1
EndSplineSet
Substitution2: "Single Substitution lookup 5 subtable" seveninferior
EndChar
StartChar: eightsuperior
Encoding: 8312 8312 264
Width: 280
Flags: MW
HStem: 468 71<129 151 129 179.5> 605 64<130 150 130 150> 729 71<129.5 151>
VStem: 16 90<560.5 578.5 560.5 592.5> 21 87<694.5 711 694.5 741.5> 172 88<694.5 710.5> 174 90<560.5 578>
LayerCount: 2
Back
Fore
SplineSet
140 800 m 0xec
 220 800 260 771 260 713 c 0xf4
 260 668 237 644 226 641 c 1
 236 637 264 620 264 569 c 0
 264 493 219 468 140 468 c 0
 61 468 16 493 16 569 c 0xf2
 16 616 45 637 55 641 c 1
 46 645 21 664 21 713 c 0
 21 770 59 800 140 800 c 0xec
140 539 m 0xf2
 162 539 174 551 174 570 c 0
 174 586 165 598 150 605 c 1
 130 605 l 1
 116 598 106 587 106 570 c 0
 106 551 118 539 140 539 c 0xf2
140 729 m 0xec
 119 729 108 720 108 702 c 0
 108 687 117 676 130 669 c 1
 150 669 l 1
 164 676 172 687 172 702 c 0
 172 719 162 729 140 729 c 0xec
EndSplineSet
Substitution2: "Single Substitution lookup 5 subtable" eightinferior
EndChar
StartChar: ninesuperior
Encoding: 8313 8313 265
Width: 280
Flags: MW
HStem: 468 79<109.5 138.5 102 178> 583 70<128.5 132> 662 21G<171 171> 723 77<129 149.5>
VStem: 19 89<677.5 699 677.5 723.5> 171 89<662 682>
LayerCount: 2
Back
Fore
SplineSet
31 480 m 1
 36 553 l 1
 36 553 83 547 121 547 c 0
 156 547 167 565 167 590 c 0
 167 591 143 583 121 583 c 0xfc
 54 583 19 620 19 687 c 0
 19 760 66 800 135 800 c 0
 223 800 260 744 260 635 c 0
 260 520 224 468 132 468 c 0
 87 468 31 480 31 480 c 1
137 653 m 0
 151 653 171 662 171 662 c 1xbc
 171 702 161 723 138 723 c 0
 120 723 108 710 108 688 c 0
 108 667 120 653 137 653 c 0
EndSplineSet
Substitution2: "Single Substitution lookup 5 subtable" nineinferior
EndChar
StartChar: zeroinferior
Encoding: 8320 8320 422
Width: 280
Flags: MW
HStem: -10 79<129 151.5 129 157.5> 243 79<128.5 152>
VStem: 15 91<118 191> 174 91<118.5 191>
LayerCount: 2
Back
Fore
SplineSet
140 322 m 0
 221 322 265 281 265 155 c 0
 265 82 250 39 223 15 c 0
 203 -3 175 -10 140 -10 c 0
 60 -10 15 27 15 155 c 0
 15 227 30 272 57 296 c 0
 78 315 106 322 140 322 c 0
140 243 m 0
 117 243 106 228 106 155 c 0
 106 81 118 69 140 69 c 0
 163 69 174 81 174 155 c 0
 174 227 164 243 140 243 c 0
EndSplineSet
Substitution2: "'frac' Diagonal Fractions in Latin lookup 1 subtable" zerosuperior
EndChar
StartChar: oneinferior
Encoding: 8321 8321 423
Width: 280
Flags: MW
HStem: -74 312<139 219 139 219 131 219>
VStem: 131 88<-74 141 141 141>
LayerCount: 2
Back
Fore
SplineSet
34 165 m 1
 139 238 l 1
 219 238 l 1
 219 -74 l 1
 131 -74 l 1
 131 141 l 1
 75 103 l 1
 34 165 l 1
EndSplineSet
Substitution2: "'frac' Diagonal Fractions in Latin lookup 1 subtable" onesuperior
EndChar
StartChar: twoinferior
Encoding: 8322 8322 424
Width: 280
Flags: MW
HStem: -74 79<145 253 145 253> 164 84<123 130>
VStem: 31 222<-74 1 1 1> 159 92<129.5 149>
LayerCount: 2
Back
Fore
SplineSet
253 -74 m 1xa0
 31 -74 l 1
 31 1 l 1xa0
 111 72 l 2
 143 100 159 119 159 140 c 0
 159 158 143 164 117 164 c 0
 91 164 37 157 37 157 c 1
 33 238 l 1
 33 238 101 248 145 248 c 0
 222 248 251 220 251 152 c 0
 251 107 232 79 193 47 c 2xd0
 145 5 l 1
 253 5 l 1
 253 -74 l 1xa0
EndSplineSet
Substitution2: "'frac' Diagonal Fractions in Latin lookup 1 subtable" twosuperior
EndChar
StartChar: threeinferior
Encoding: 8323 8323 425
Width: 280
Flags: MW
HStem: -84 79<116.5 138.5 106.5 176> 48 72<62 127 127 128 62 127> 169 79<112.5 131.5>
VStem: 155 92<141.5 154.5> 163 91<13 32>
LayerCount: 2
Back
Fore
SplineSet
27 239 m 1xe8
 27 239 92 248 133 248 c 0
 209 248 247 222 247 162 c 0xf0
 247 121 227 98 213 90 c 1
 239 80 254 62 254 15 c 0
 254 -53 211 -84 141 -84 c 0
 92 -84 23 -76 23 -76 c 1
 29 1 l 1
 29 1 88 -5 125 -5 c 0
 152 -5 163 4 163 22 c 0
 163 42 150 48 128 48 c 2xe8
 62 48 l 1
 62 120 l 1
 127 120 l 2
 142 120 155 130 155 146 c 0
 155 163 143 169 120 169 c 0xf0
 80 169 33 163 33 163 c 1
 27 239 l 1xe8
EndSplineSet
Substitution2: "'frac' Diagonal Fractions in Latin lookup 1 subtable" threesuperior
EndChar
StartChar: fourinferior
Encoding: 8324 8324 426
Width: 280
Flags: MW
HStem: -33 79<112 159 112 159 246 264>
VStem: 164 82
LayerCount: 2
Back
Fore
SplineSet
159 -74 m 1
 159 -33 l 1
 23 -33 l 1
 23 40 l 1
 75 238 l 1
 173 238 l 1
 112 46 l 1
 159 46 l 1
 169 135 l 1
 246 135 l 1
 246 46 l 1
 264 46 l 1
 264 -33 l 1
 246 -33 l 1
 246 -74 l 1
 159 -74 l 1
EndSplineSet
Substitution2: "'frac' Diagonal Fractions in Latin lookup 1 subtable" foursuperior
EndChar
StartChar: fiveinferior
Encoding: 8325 8325 427
Width: 280
Flags: MW
HStem: -82 76<111 134.5 104.5 172.5> 52 75<124.5 185.5> 162 76<111 239 111 111>
VStem: 35 74 158 92<14 34.5>
LayerCount: 2
Back
Fore
SplineSet
40 238 m 1
 239 238 l 1
 239 162 l 1
 111 162 l 1
 107 117 l 1
 107 117 133 127 156 127 c 0
 215 127 250 101 250 24 c 0
 250 -45 209 -82 136 -82 c 0
 86 -82 23 -68 23 -68 c 1
 30 4 l 1
 30 4 85 -6 124 -6 c 0
 145 -6 158 4 158 24 c 0
 158 45 148 52 133 52 c 0
 116 52 96 44 96 44 c 1
 30 52 l 1
 40 238 l 1
EndSplineSet
Substitution2: "'frac' Diagonal Fractions in Latin lookup 1 subtable" fivesuperior
EndChar
StartChar: sixinferior
Encoding: 8326 8326 428
Width: 280
Flags: MW
HStem: -84 76<129 150 129 176.5> 61 72<147.5 150.5> 171 77<136.5 168 101 168.5>
VStem: 18 90<32 49 125 130.5> 170 89<17.5 39.5>
LayerCount: 2
Back
Fore
SplineSet
248 237 m 1
 243 165 l 1
 243 165 184 171 153 171 c 0
 120 171 108 154 108 125 c 1
 120 128 140 133 155 133 c 0
 228 133 259 97 259 29 c 0
 259 -43 210 -84 143 -84 c 0
 56 -84 18 -30 18 73 c 0
 18 188 52 248 150 248 c 0
 186 248 248 237 248 237 c 1
141 61 m 0
 126 61 113 52 108 49 c 1
 108 15 118 -8 140 -8 c 0
 160 -8 170 7 170 28 c 0
 170 51 160 61 141 61 c 0
EndSplineSet
Substitution2: "'frac' Diagonal Fractions in Latin lookup 1 subtable" sixsuperior
EndChar
StartChar: seveninferior
Encoding: 8327 8327 429
Width: 280
Flags: MW
HStem: 151 87<30 248 30 146>
VStem: 146 102<147 151 151 151>
LayerCount: 2
Back
Fore
SplineSet
30 151 m 1
 30 238 l 1
 248 238 l 1
 248 147 l 1
 149 -83 l 1
 49 -67 l 1
 146 135 l 1
 146 151 l 1
 30 151 l 1
EndSplineSet
Substitution2: "'frac' Diagonal Fractions in Latin lookup 1 subtable" sevensuperior
EndChar
StartChar: eightinferior
Encoding: 8328 8328 430
Width: 280
Flags: MW
HStem: -84 71<129 151 129 179.5> 53 64<130 150 130 150> 177 71<129.5 151>
VStem: 16 90<8.5 26.5 8.5 40.5> 21 87<142.5 159 142.5 189.5> 172 88<142.5 158.5> 174 90<8.5 26>
LayerCount: 2
Back
Fore
SplineSet
140 248 m 0xec
 220 248 260 219 260 161 c 0xf4
 260 116 237 92 226 89 c 1
 236 85 264 68 264 17 c 0
 264 -59 219 -84 140 -84 c 0
 61 -84 16 -59 16 17 c 0xf2
 16 64 45 85 55 89 c 1
 46 93 21 112 21 161 c 0
 21 218 59 248 140 248 c 0xec
140 -13 m 0xf2
 162 -13 174 -1 174 18 c 0
 174 34 165 46 150 53 c 1
 130 53 l 1
 116 46 106 35 106 18 c 0
 106 -1 118 -13 140 -13 c 0xf2
140 177 m 0xec
 119 177 108 168 108 150 c 0
 108 135 117 124 130 117 c 1
 150 117 l 1
 164 124 172 135 172 150 c 0
 172 167 162 177 140 177 c 0xec
EndSplineSet
Substitution2: "'frac' Diagonal Fractions in Latin lookup 1 subtable" eightsuperior
EndChar
StartChar: nineinferior
Encoding: 8329 8329 431
Width: 280
Flags: MW
HStem: -84 79<107.5 136.5 100 176> 31 70<126.5 130> 171 77<127 147.5>
VStem: 17 89<125.5 147 125.5 171.5> 169 89<110 130>
LayerCount: 2
Back
Fore
SplineSet
29 -72 m 1
 34 1 l 1
 34 1 81 -5 119 -5 c 0
 154 -5 165 13 165 38 c 0
 165 39 141 31 119 31 c 0
 52 31 17 68 17 135 c 0
 17 208 64 248 133 248 c 0
 221 248 258 192 258 83 c 0
 258 -32 222 -84 130 -84 c 0
 85 -84 29 -72 29 -72 c 1
135 101 m 0
 149 101 169 110 169 110 c 1
 169 150 159 171 136 171 c 0
 118 171 106 158 106 136 c 0
 106 115 118 101 135 101 c 0
EndSplineSet
Substitution2: "'frac' Diagonal Fractions in Latin lookup 1 subtable" ninesuperior
EndChar
StartChar: Euro
Encoding: 8364 8364 246
Width: 560
Flags: MW
HStem: -11 94<304 363> 194 86<54 92 54 100 54 92 213 213 213 444> 365 86<54 91 54 98 210 444> 578 93<301 359.5 254 367.5>
VStem: 91 111<332 365 323 365>
LayerCount: 2
Back
Fore
SplineSet
492 96 m 1
 495 10 l 1
 495 10 403 -11 323 -11 c 0
 181 -11 120 63 100 194 c 1
 54 194 l 1
 54 280 l 1
 92 280 l 1
 91 296 91 314 91 332 c 2
 91 365 l 1
 54 365 l 1
 54 451 l 1
 98 451 l 1
 118 599 185 671 323 671 c 0
 396 671 496 649 496 649 c 1
 492 564 l 1
 492 564 396 578 339 578 c 0
 263 578 225 537 210 451 c 1
 444 451 l 1
 444 365 l 1
 202 365 l 1
 202 332 l 2
 202 314 202 296 203 280 c 1
 444 280 l 1
 444 194 l 1
 213 194 l 1
 230 122 266 83 342 83 c 0
 393 83 492 96 492 96 c 1
EndSplineSet
EndChar
StartChar: trademark
Encoding: 8482 8482 159
Width: 651
Flags: MW
HStem: 331 307<76 304 304 373 521 521 521 590> 571 67<76 276 76 151 225 225 225 276>
VStem: 151 74<332 571 332 571> 304 69<331 527 331 638> 521 69<331 527 527 527>
LayerCount: 2
Back
Fore
SplineSet
76 571 m 1x78
 76 638 l 1
 276 638 l 1
 276 571 l 1
 225 571 l 1
 225 332 l 1
 151 332 l 1
 151 571 l 1
 76 571 l 1x78
304 331 m 1
 304 638 l 1
 393 638 l 1x78
 445 458 l 1
 501 638 l 1
 590 638 l 1
 590 331 l 1
 521 331 l 1xb8
 521 527 l 1
 473 349 l 1
 423 349 l 1
 373 527 l 1
 373 331 l 1
 304 331 l 1
EndSplineSet
EndChar
StartChar: Omega
Encoding: 8486 8486 279
Width: 560
Flags: MW
HStem: -9 93<49 147 49 252 49 147 413 511> 574 97<229 331>
VStem: 48 115<302 430 293.5 480> 397 115<302 430> 413 98<-9 84>
LayerCount: 2
Back
Fore
SplineSet
49 84 m 1xf0
 147 84 l 1
 147 84 48 223 48 381 c 0
 48 579 107 671 280 671 c 0
 453 671 512 579 512 381 c 0xf0
 512 223 413 84 413 84 c 1
 511 84 l 1
 511 -9 l 1xe8
 308 -9 l 1
 308 72 l 1
 308 72 397 234 397 353 c 0
 397 507 382 574 280 574 c 0
 178 574 163 507 163 353 c 0
 163 234 252 72 252 72 c 1
 252 -9 l 1
 49 -9 l 1
 49 84 l 1xf0
EndSplineSet
EndChar
StartChar: product
Encoding: 8719 8719 409
Width: 560
Flags: MW
HStem: 660 97<31 91 31 530 202 356 202 202 467 467 467 530>
VStem: 91 111<-172 660 -172 660> 356 111<-172 660 -172 660>
LayerCount: 2
Back
Fore
SplineSet
356 -172 m 1
 356 660 l 1
 202 660 l 1
 202 -172 l 1
 91 -172 l 1
 91 660 l 1
 31 660 l 1
 31 757 l 1
 530 757 l 1
 530 660 l 1
 467 660 l 1
 467 -172 l 1
 356 -172 l 1
EndSplineSet
EndChar
StartChar: summation
Encoding: 8721 8721 146
Width: 560
Flags: MW
HStem: -172 97<155 524 155 524> 659 98<155 524 155 155>
VStem: 37 118<-75 -55 -75 -50 -75 -50 641 659>
LayerCount: 2
Back
Fore
SplineSet
287 302 m 1
 37 635 l 1
 37 757 l 1
 524 757 l 1
 524 659 l 1
 155 659 l 1
 155 641 l 1
 388 340 l 1
 388 263 l 1
 155 -55 l 1
 155 -75 l 1
 524 -75 l 1
 524 -172 l 1
 37 -172 l 1
 37 -50 l 1
 287 302 l 1
EndSplineSet
EndChar
StartChar: minus
Encoding: 8722 8722 182
Width: 560
Flags: MW
HStem: 202 98<64 496 64 496>
VStem: 64 432<202 300 202 300>
LayerCount: 2
Back
Fore
SplineSet
64 202 m 1
 64 300 l 1
 496 300 l 1
 496 202 l 1
 64 202 l 1
EndSplineSet
EndChar
StartChar: radical
Encoding: 8730 8730 408
Width: 560
Flags: MW
HStem: -133 93<256 268 256 348 174 268> 345 98<2 149 2 58>
VStem: 2 567<345 785 443 785>
LayerCount: 2
Back
Fore
SplineSet
2 345 m 1
 2 443 l 1
 149 443 l 1
 256 -40 l 1
 268 -40 l 1
 458 785 l 1
 569 785 l 1
 348 -133 l 1
 174 -133 l 1
 58 345 l 1
 2 345 l 1
EndSplineSet
EndChar
StartChar: approxequal
Encoding: 8776 8776 363
Width: 560
Flags: MW
HStem: 62 98<361.5 404.5 361.5 412> 113 98<157 199.5> 267 98<361.5 404.5 361.5 412> 318 98<157 199.5>
VStem: 61 436<114 159 114 364>
LayerCount: 2
Back
Fore
SplineSet
488 406 m 1xa8
 497 319 l 1
 497 319 441 267 383 267 c 0xa8
 328 267 219 318 180 318 c 0
 134 318 72 276 72 276 c 1
 61 364 l 1
 61 364 124 416 182 416 c 0x98
 237 416 338 365 385 365 c 0
 424 365 488 406 488 406 c 1xa8
488 201 m 1
 497 114 l 1
 497 114 441 62 383 62 c 0xa8
 328 62 219 113 180 113 c 0
 134 113 72 71 72 71 c 1
 61 159 l 1
 61 159 124 211 182 211 c 0x68
 237 211 338 160 385 160 c 0
 424 160 488 201 488 201 c 1
EndSplineSet
EndChar
StartChar: notequal
Encoding: 8800 8800 222
Width: 560
Flags: MW
HStem: -10 21G<108 108> 103 98<60 157 60 200 300 498 60 257> 301 98<60 287 60 244 60 344 387 498>
VStem: 60 438<103 201 103 201 301 399 103 399>
LayerCount: 2
Back
Fore
SplineSet
60 301 m 1
 60 399 l 1
 287 399 l 1
 356 554 l 1
 441 520 l 1
 387 399 l 1
 498 399 l 1
 498 301 l 1
 344 301 l 1
 300 201 l 1
 498 201 l 1
 498 103 l 1
 257 103 l 1
 193 -44 l 1
 108 -10 l 1
 157 103 l 1
 60 103 l 1
 60 201 l 1
 200 201 l 1
 244 301 l 1
 60 301 l 1
EndSplineSet
EndChar
StartChar: lessequal
Encoding: 8804 8804 275
Width: 560
Flags: MW
HStem: 20 98<66 488 66 488> 488 20G<488 488>
VStem: 66 422<20 118 20 118 20 373 20 373>
LayerCount: 2
Back
Fore
SplineSet
488 402 m 1
 188 330 l 1
 488 251 l 1
 488 145 l 1
 66 278 l 1
 66 373 l 1
 488 508 l 1
 488 402 l 1
66 20 m 1
 66 118 l 1
 488 118 l 1
 488 20 l 1
 66 20 l 1
EndSplineSet
EndChar
StartChar: dotlessj
Encoding: 63166 63166 406
Width: 228
Flags: MW
HStem: -232 21G<-5 -5> 480 20G<60 168 168 168>
VStem: 60 108<0 500>
LayerCount: 2
Back
Fore
SplineSet
60 0 m 2
 60 500 l 1
 168 500 l 1
 168 0 l 2
 168 -129 154 -154 -5 -232 c 1
 -44 -150 l 1
 56 -88 60 -78 60 0 c 2
EndSplineSet
EndChar
StartChar: commaaccent
Encoding: 63171 63171 7
Width: 161
Flags: MW
HStem: -298 226<7 147 48 98>
VStem: 7 140
LayerCount: 2
Back
Fore
SplineSet
7 -298 m 1
 48 -72 l 1
 147 -72 l 1
 98 -298 l 1
 7 -298 l 1
EndSplineSet
EndChar
StartChar: acute.cap.001
Encoding: 65593 -1 452
Width: 518
Flags: MW
HStem: 774 177
VStem: 99 258<854 856>
LayerCount: 2
Back
Fore
SplineSet
128 774 m 1
 99 856 l 1
 325 951 l 1
 357 854 l 1
 128 774 l 1
EndSplineSet
EndChar
StartChar: at.cap
Encoding: 65581 -1 420
Width: 916
Flags: MW
HStem: -121 91<347 489 347 492.5> 83 91<688 729 688 775.5> 495 92<422.5 473> 705 91<352.5 600.5>
VStem: 37 100<223.5 474.5 223.5 506> 253 111<285 386 285 404> 550 109<260 487 487 487> 788 99<283.5 479.5>
LayerCount: 2
Back
Fore
SplineSet
474 796 m 0
 780 796 887 660 887 353 c 0
 887 211 847 83 704 83 c 0
 632 83 594 99 571 178 c 1
 544 129 484 83 422 83 c 0
 299 83 253 166 253 327 c 0
 253 481 292 587 455 587 c 0
 522 587 659 569 659 569 c 1
 659 231 l 2
 659 189 672 174 704 174 c 0
 754 174 788 214 788 353 c 0
 788 606 727 705 474 705 c 0
 231 705 137 603 137 346 c 0
 137 101 224 -30 470 -30 c 0
 508 -30 605 -21 605 -21 c 1
 608 -112 l 1
 608 -112 515 -121 470 -121 c 0
 162 -121 37 38 37 346 c 0
 37 666 168 796 474 796 c 0
444 175 m 0
 506 175 550 260 550 260 c 1
 550 487 l 2
 547 488 483 495 463 495 c 0
 382 495 364 434 364 338 c 0
 364 232 378 175 444 175 c 0
EndSplineSet
Position2: "'cpsp' Capital Spacing in Latin lookup 0 subtable" dx=5 dy=0 dh=10 dv=0
EndChar
StartChar: braceleft.cap
Encoding: 65559 -1 288
Width: 333
Flags: MW
HStem: -100 94<297 298> 692 94<297 298>
VStem: 102 117<3 240> 109 103<39.5 229.5>
LayerCount: 2
Back
Fore
SplineSet
219 205 m 0xd0
 219 170 212 105 212 66 c 0
 212 13 248 -3 298 -6 c 1
 297 -100 l 1
 192 -97 102 -63 102 69 c 0
 102 105 109 160 109 198 c 0
 109 261 63 283 19 298 c 1
 19 385 l 1xd0
 68 397 109 426 109 486 c 0
 109 519 102 572 102 610 c 0
 102 737 163 783 297 786 c 1
 298 692 l 1
 227 688 212 670 212 617 c 0
 212 611 219 485 219 478 c 0
 219 397 192 366 130 342 c 1xe0
 192 320 219 275 219 205 c 0xd0
EndSplineSet
Position2: "'cpsp' Capital Spacing in Latin lookup 0 subtable" dx=5 dy=0 dh=10 dv=0
EndChar
StartChar: braceright.cap
Encoding: 65560 -1 289
Width: 333
Flags: MW
HStem: -102 94<35 36> 690 94<35 36>
VStem: 114 117<10.5 246.5> 121 103
LayerCount: 2
Back
Fore
SplineSet
114 479 m 0xd0
 114 514 121 579 121 618 c 0
 121 671 85 687 35 690 c 1
 36 784 l 1
 141 781 231 747 231 615 c 0
 231 579 224 524 224 486 c 0
 224 423 270 401 314 386 c 1
 314 299 l 1xd0
 265 287 224 258 224 198 c 0
 224 165 231 112 231 74 c 0
 231 -53 170 -99 36 -102 c 1
 35 -8 l 1
 106 -4 121 14 121 67 c 0
 121 73 114 199 114 206 c 0
 114 287 141 318 203 342 c 1xe0
 141 364 114 409 114 479 c 0xd0
EndSplineSet
Position2: "'cpsp' Capital Spacing in Latin lookup 0 subtable" dx=5 dy=0 dh=10 dv=0
EndChar
StartChar: bracketleft.cap
Encoding: 65557 -1 286
Width: 320
Flags: MW
HStem: -92 93<171 287 171 287> 684 93<171 287 171 171>
VStem: 66 105<1 684 1 777 1 777>
LayerCount: 2
Back
Fore
SplineSet
66 777 m 1
 287 777 l 1
 287 684 l 1
 171 684 l 1
 171 1 l 1
 287 1 l 1
 287 -92 l 1
 66 -92 l 1
 66 777 l 1
EndSplineSet
Position2: "'cpsp' Capital Spacing in Latin lookup 0 subtable" dx=5 dy=0 dh=10 dv=0
EndChar
StartChar: bracketright.cap
Encoding: 65558 -1 287
Width: 320
Flags: MW
HStem: -92 93<33 149 33 254 33 149> 684 93<33 149 33 254>
VStem: 149 105<1 684 684 684>
LayerCount: 2
Back
Fore
SplineSet
254 -92 m 1
 33 -92 l 1
 33 1 l 1
 149 1 l 1
 149 684 l 1
 33 684 l 1
 33 777 l 1
 254 777 l 1
 254 -92 l 1
EndSplineSet
Position2: "'cpsp' Capital Spacing in Latin lookup 0 subtable" dx=5 dy=0 dh=10 dv=0
EndChar
StartChar: breve.cap
Encoding: 65566 -1 295
Width: 452
Flags: MW
HStem: 788 137<146.5 152 265 271.5>
VStem: 54 98<907.5 925 907.5 925> 265 98<907.5 925>
LayerCount: 2
Back
Fore
SplineSet
54 925 m 1
 152 925 l 1
 152 890 173 872 209 872 c 0
 242 872 265 890 265 925 c 1
 363 925 l 1
 363 875 334 788 209 788 c 0
 84 788 54 875 54 925 c 1
EndSplineSet
EndChar
StartChar: caron.cap
Encoding: 65562 -1 291
Width: 452
Flags: MW
HStem: 783 145<44 242 44 171>
VStem: 44 325<928 928>
LayerCount: 2
Back
Fore
SplineSet
369 928 m 1
 242 783 l 1
 171 783 l 1
 44 928 l 1
 152 928 l 1
 206 861 l 1
 261 928 l 1
 369 928 l 1
EndSplineSet
EndChar
StartChar: circumflex.cap.001
Encoding: 65594 -1 453
Width: 452
Flags: MW
HStem: 785 146<41 238 41 238 174 270 174 372>
VStem: 41 331<785 785>
LayerCount: 2
Back
Fore
SplineSet
41 785 m 1
 174 931 l 1
 238 931 l 1
 372 785 l 1
 270 785 l 1
 207 855 l 1
 143 785 l 1
 41 785 l 1
EndSplineSet
EndChar
StartChar: dieresis.cap
Encoding: 65564 -1 293
Width: 400
Flags: MW
HStem: 799 117<81 169 81 169 275 363 81 275>
VStem: 81 88<799 916 799 916> 275 88<799 916 799 916>
LayerCount: 2
Back
Fore
SplineSet
81 799 m 1
 81 916 l 1
 169 916 l 1
 169 799 l 1
 81 799 l 1
275 799 m 1
 275 916 l 1
 363 916 l 1
 363 799 l 1
 275 799 l 1
EndSplineSet
EndChar
StartChar: dotaccent.cap
Encoding: 65569 -1 298
Width: 242
Flags: MW
HStem: 780 118<73 166 73 166>
VStem: 73 93<780 898 780 898>
LayerCount: 2
Back
Fore
SplineSet
73 780 m 1
 73 898 l 1
 166 898 l 1
 166 780 l 1
 73 780 l 1
EndSplineSet
EndChar
StartChar: eight.dnom
Encoding: 65590 -1 440
Width: 280
Flags: MW
HStem: -110 71<128 150 128 178.5> 27 64<129 149 129 149> 151 71<128.5 150>
VStem: 15 90<-17.5 0.5 -17.5 14.5> 20 87<116.5 133 116.5 163.5> 171 88<116.5 132.5> 173 90<-17.5 0>
LayerCount: 2
Back
Fore
SplineSet
139 222 m 0xec
 219 222 259 193 259 135 c 0xf4
 259 90 236 66 225 63 c 1
 235 59 263 42 263 -9 c 0
 263 -85 218 -110 139 -110 c 0
 60 -110 15 -85 15 -9 c 0xf2
 15 38 44 59 54 63 c 1
 45 67 20 86 20 135 c 0
 20 192 58 222 139 222 c 0xec
139 -39 m 0xf2
 161 -39 173 -27 173 -8 c 0
 173 8 164 20 149 27 c 1
 129 27 l 1
 115 20 105 9 105 -8 c 0
 105 -27 117 -39 139 -39 c 0xf2
139 151 m 0xec
 118 151 107 142 107 124 c 0
 107 109 116 98 129 91 c 1
 149 91 l 1
 163 98 171 109 171 124 c 0
 171 141 161 151 139 151 c 0xec
EndSplineSet
Substitution2: "'frac' Diagonal Fractions in Latin lookup 1 subtable" eightsuperior
EndChar
StartChar: eight.numr
Encoding: 65578 -1 378
Width: 280
Flags: MW
HStem: 368 71<129 151 129 179.5> 505 64<130 150 130 150> 629 71<129.5 151>
VStem: 16 90<460.5 478.5 460.5 492.5> 21 87<594.5 611 594.5 641.5> 172 88<594.5 610.5> 174 90<460.5 478>
LayerCount: 2
Back
Fore
SplineSet
140 700 m 0xec
 220 700 260 671 260 613 c 0xf4
 260 568 237 544 226 541 c 1
 236 537 264 520 264 469 c 0
 264 393 219 368 140 368 c 0
 61 368 16 393 16 469 c 0xf2
 16 516 45 537 55 541 c 1
 46 545 21 564 21 613 c 0
 21 670 59 700 140 700 c 0xec
140 439 m 0xf2
 162 439 174 451 174 470 c 0
 174 486 165 498 150 505 c 1
 130 505 l 1
 116 498 106 487 106 470 c 0
 106 451 118 439 140 439 c 0xf2
140 629 m 0xec
 119 629 108 620 108 602 c 0
 108 587 117 576 130 569 c 1
 150 569 l 1
 164 576 172 587 172 602 c 0
 172 619 162 629 140 629 c 0xec
EndSplineSet
Substitution2: "'frac' Diagonal Fractions in Latin lookup 1 subtable" eightsuperior
EndChar
StartChar: eight.pnum
Encoding: 65548 -1 202
Width: 529
Flags: MW
HStem: -10 102<230 298.5 230 332.5> 212 95<220 308 220 308> 414 95<232.5 296>
VStem: 41 119<130 165.5 130 166> 51 119<349.5 381 349.5 416> 360 118<349.5 381> 369 118<130 165.5>
LayerCount: 2
Back
Fore
SplineSet
264 509 m 0xec
 394 509 478 464 478 369 c 0xf4
 478 323 460 289 400 264 c 1
 456 241 487 208 487 138 c 0
 487 30 401 -10 264 -10 c 0
 127 -10 41 38 41 138 c 0xf2
 41 194 75 240 130 264 c 1
 72 289 51 323 51 369 c 0
 51 463 134 509 264 509 c 0xec
264 92 m 0xf2
 333 92 369 109 369 151 c 0
 369 180 356 203 308 212 c 1
 220 212 l 1
 173 203 160 180 160 151 c 0
 160 109 196 92 264 92 c 0xf2
264 414 m 0xec
 201 414 170 400 170 362 c 0
 170 337 179 321 220 307 c 1
 308 307 l 1
 350 320 360 337 360 362 c 0
 360 400 328 414 264 414 c 0xec
EndSplineSet
Substitution2: "'frac' Diagonal Fractions in Latin lookup 1 subtable" eightsuperior
EndChar
StartChar: emdash.cap
Encoding: 65552 -1 270
Width: 1112
Flags: MW
HStem: 250 93<56 1056 56 1056>
VStem: 56 1000<250 343 250 343>
LayerCount: 2
Back
Fore
SplineSet
56 343 m 1
 1056 343 l 1
 1056 250 l 1
 56 250 l 1
 56 343 l 1
EndSplineSet
Position2: "'cpsp' Capital Spacing in Latin lookup 0 subtable" dx=5 dy=0 dh=10 dv=0
EndChar
StartChar: endash.cap
Encoding: 65551 -1 269
Width: 612
Flags: MW
HStem: 250 93<56 556 56 556>
VStem: 56 500<250 343 250 343>
LayerCount: 2
Back
Fore
SplineSet
56 343 m 1
 556 343 l 1
 556 250 l 1
 56 250 l 1
 56 343 l 1
EndSplineSet
Position2: "'cpsp' Capital Spacing in Latin lookup 0 subtable" dx=5 dy=0 dh=10 dv=0
EndChar
StartChar: exclamdown.cap
Encoding: 65554 -1 282
Width: 250
Flags: MW
HStem: -7 21G<70 180 70 70> 558 135<70 180 70 180>
VStem: 71.5 107.5
LayerCount: 2
Back
Fore
SplineSet
178 447 m 1
 180 -7 l 1
 70 -7 l 1
 73 447 l 1
 178 447 l 1
180 693 m 1
 180 558 l 1
 70 558 l 1
 70 693 l 1
 180 693 l 1
EndSplineSet
EndChar
StartChar: five.dnom
Encoding: 65587 -1 437
Width: 280
Flags: MW
HStem: -108 76<111 134.5 104.5 172.5> 26 75<124.5 185.5> 136 76<111 239 111 111>
VStem: 35 74 158 92<-12 8.5>
LayerCount: 2
Back
Fore
SplineSet
40 212 m 1
 239 212 l 1
 239 136 l 1
 111 136 l 1
 107 91 l 1
 107 91 133 101 156 101 c 0
 215 101 250 75 250 -2 c 0
 250 -71 209 -108 136 -108 c 0
 86 -108 23 -94 23 -94 c 1
 30 -22 l 1
 30 -22 85 -32 124 -32 c 0
 145 -32 158 -22 158 -2 c 0
 158 19 148 26 133 26 c 0
 116 26 96 18 96 18 c 1
 30 26 l 1
 40 212 l 1
EndSplineSet
Substitution2: "'frac' Diagonal Fractions in Latin lookup 1 subtable" fivesuperior
EndChar
StartChar: five.numr
Encoding: 65575 -1 375
Width: 280
Flags: MW
HStem: 370 76<118 141.5 111.5 179.5> 484 20G<37 37 131.5 147.5> 504 75<131.5 192.5> 614 76<118 246 118 118>
VStem: 42 74 165 92<466 486.5>
LayerCount: 2
Back
Fore
SplineSet
47 690 m 1xdc
 246 690 l 1
 246 614 l 1
 118 614 l 1
 114 569 l 1
 114 569 140 579 163 579 c 0
 222 579 257 553 257 476 c 0
 257 407 216 370 143 370 c 0
 93 370 30 384 30 384 c 1
 37 456 l 1
 37 456 92 446 131 446 c 0
 152 446 165 456 165 476 c 0
 165 497 155 504 140 504 c 0
 123 504 103 496 103 496 c 1
 37 504 l 1xbc
 47 690 l 1xdc
EndSplineSet
Substitution2: "'frac' Diagonal Fractions in Latin lookup 1 subtable" fivesuperior
EndChar
StartChar: five.pnum
Encoding: 65545 -1 199
Width: 499
Flags: MW
HStem: -9 99<216 279.5 216 319> 225 93<233 279> 397 106<172 441 172 172>
VStem: 351 112<132.5 183>
LayerCount: 2
Back
Fore
SplineSet
72 503 m 1
 441 503 l 1
 441 397 l 1
 172 397 l 1
 156 294 l 1
 156 294 205 318 261 318 c 0
 383 318 463 269 463 163 c 0
 463 56 383 -9 255 -9 c 0
 172 -9 40 20 40 20 c 1
 52 119 l 1
 52 119 180 90 252 90 c 0
 307 90 351 108 351 157 c 0
 351 209 308 225 250 225 c 0
 188 225 136 195 136 195 c 1
 51 214 l 1
 72 503 l 1
EndSplineSet
Substitution2: "'frac' Diagonal Fractions in Latin lookup 1 subtable" fivesuperior
EndChar
StartChar: four.dnom
Encoding: 65586 -1 436
Width: 280
Flags: MW
HStem: -59 79<112 159 112 159 246 264>
VStem: 164 82
LayerCount: 2
Back
Fore
SplineSet
159 -100 m 1
 159 -59 l 1
 23 -59 l 1
 23 14 l 1
 75 212 l 1
 173 212 l 1
 112 20 l 1
 159 20 l 1
 169 109 l 1
 246 109 l 1
 246 20 l 1
 264 20 l 1
 264 -59 l 1
 246 -59 l 1
 246 -100 l 1
 159 -100 l 1
EndSplineSet
Substitution2: "'frac' Diagonal Fractions in Latin lookup 1 subtable" foursuperior
EndChar
StartChar: four.numr
Encoding: 65574 -1 374
Width: 280
Flags: MW
HStem: 419 79<108 155 108 155 242 260>
VStem: 160 82
LayerCount: 2
Back
Fore
SplineSet
155 378 m 1
 155 419 l 1
 19 419 l 1
 19 492 l 1
 71 690 l 1
 169 690 l 1
 108 498 l 1
 155 498 l 1
 165 587 l 1
 242 587 l 1
 242 498 l 1
 260 498 l 1
 260 419 l 1
 242 419 l 1
 242 378 l 1
 155 378 l 1
EndSplineSet
Substitution2: "'frac' Diagonal Fractions in Latin lookup 1 subtable" foursuperior
EndChar
StartChar: four.pnum
Encoding: 65544 -1 198
Width: 498
Flags: MW
HStem: -9 201<157 297 157 408> 89 103<157 297 157 297 408 469> 480 20G<189 309 309 309>
VStem: 297 111<-9 89 -9 89 192 321>
LayerCount: 2
Back
Fore
SplineSet
297 -9 m 1xb0
 297 89 l 1
 29 89 l 1
 29 179 l 1x70
 189 500 l 1
 309 500 l 1
 157 192 l 1
 297 192 l 1
 297 321 l 1
 408 321 l 1
 408 192 l 1
 469 192 l 1xb0
 469 89 l 1
 408 89 l 1x70
 408 -9 l 1
 297 -9 l 1xb0
EndSplineSet
Substitution2: "'frac' Diagonal Fractions in Latin lookup 1 subtable" foursuperior
EndChar
StartChar: grave.cap
Encoding: 65561 -1 290
Width: 503
Flags: MW
HStem: 765 177
VStem: 101 259<846 850>
LayerCount: 2
Back
Fore
SplineSet
133 942 m 1
 360 850 l 1
 330 765 l 1
 101 846 l 1
 133 942 l 1
EndSplineSet
EndChar
StartChar: hungarumlaut.cap
Encoding: 65568 -1 297
Width: 679
Flags: MW
HStem: 746 206<223 410>
VStem: 129 384<782 913>
LayerCount: 2
Back
Fore
SplineSet
410 746 m 1
 328 782 l 1
 422 951 l 1
 513 913 l 1
 410 746 l 1
212 747 m 1
 129 782 l 1
 223 952 l 1
 314 913 l 1
 212 747 l 1
EndSplineSet
EndChar
StartChar: hyphen.cap
Encoding: 65592 -1 449
Width: 369
Flags: MW
HStem: 247 98<55 313 55 313>
VStem: 55 258<247 345 247 345>
LayerCount: 2
Back
Fore
SplineSet
55 247 m 1
 55 345 l 1
 313 345 l 1
 313 247 l 1
 55 247 l 1
EndSplineSet
EndChar
StartChar: macron.cap
Encoding: 65565 -1 294
Width: 452
Flags: MW
HStem: 814 87<64 376 64 376>
VStem: 64 312<814 901 814 901>
LayerCount: 2
Back
Fore
SplineSet
64 814 m 1
 64 901 l 1
 376 901 l 1
 376 814 l 1
 64 814 l 1
EndSplineSet
EndChar
StartChar: nine.dnom
Encoding: 65591 -1 441
Width: 280
Flags: MW
HStem: -110 79<108.5 137.5 101 177> 5 70<127.5 131> 145 77<128 148.5>
VStem: 18 89<99.5 121 99.5 145.5> 170 89<84 104>
LayerCount: 2
Back
Fore
SplineSet
30 -98 m 1
 35 -25 l 1
 35 -25 82 -31 120 -31 c 0
 155 -31 166 -13 166 12 c 0
 166 13 142 5 120 5 c 0
 53 5 18 42 18 109 c 0
 18 182 65 222 134 222 c 0
 222 222 259 166 259 57 c 0
 259 -58 223 -110 131 -110 c 0
 86 -110 30 -98 30 -98 c 1
136 75 m 0
 150 75 170 84 170 84 c 1
 170 124 160 145 137 145 c 0
 119 145 107 132 107 110 c 0
 107 89 119 75 136 75 c 0
EndSplineSet
Substitution2: "'frac' Diagonal Fractions in Latin lookup 1 subtable" ninesuperior
EndChar
StartChar: nine.numr
Encoding: 65579 -1 379
Width: 280
Flags: MW
HStem: 368 79<111.5 140.5 104 180> 483 70<130.5 134> 623 77<131 151.5>
VStem: 21 89<577.5 599 577.5 623.5> 173 89<562 582>
LayerCount: 2
Back
Fore
SplineSet
33 380 m 1
 38 453 l 1
 38 453 85 447 123 447 c 0
 158 447 169 465 169 490 c 0
 169 491 145 483 123 483 c 0
 56 483 21 520 21 587 c 0
 21 660 68 700 137 700 c 0
 225 700 262 644 262 535 c 0
 262 420 226 368 134 368 c 0
 89 368 33 380 33 380 c 1
139 553 m 0
 153 553 173 562 173 562 c 1
 173 602 163 623 140 623 c 0
 122 623 110 610 110 588 c 0
 110 567 122 553 139 553 c 0
EndSplineSet
Substitution2: "'frac' Diagonal Fractions in Latin lookup 1 subtable" ninesuperior
EndChar
StartChar: nine.pnum
Encoding: 65549 -1 203
Width: 510
Flags: MW
HStem: -10 21G<192 316> -10 103<192 272.5 190.5 316> 189 90<210.5 258> 420 93<215 278.5>
VStem: 35 111<322.5 375 322.5 399.5> 358 111
LayerCount: 2
Back
Fore
SplineSet
59 10 m 1xbc
 68 108 l 1
 68 108 153 93 228 93 c 0
 317 93 357 126 358 220 c 1
 327 206 282 189 234 189 c 0
 100 189 35 238 35 349 c 0
 35 450 112 513 248 513 c 0
 406 513 469 417 469 267 c 0
 469 93 404 -10 228 -10 c 0x7c
 156 -10 59 10 59 10 c 1xbc
243 279 m 0
 305 279 359 307 359 307 c 1
 359 314 358 321 357 327 c 0
 353 389 309 420 248 420 c 0
 182 420 146 401 146 349 c 0
 146 296 178 279 243 279 c 0
EndSplineSet
Substitution2: "'frac' Diagonal Fractions in Latin lookup 1 subtable" ninesuperior
EndChar
StartChar: one.dnom
Encoding: 65583 -1 433
Width: 280
Flags: MW
HStem: -100 312<138 218 138 218 130 218>
VStem: 130 88<-100 115 115 115>
LayerCount: 2
Back
Fore
SplineSet
33 139 m 1
 138 212 l 1
 218 212 l 1
 218 -100 l 1
 130 -100 l 1
 130 115 l 1
 74 77 l 1
 33 139 l 1
EndSplineSet
Substitution2: "'frac' Diagonal Fractions in Latin lookup 1 subtable" onesuperior
EndChar
StartChar: one.numr
Encoding: 65571 -1 371
Width: 280
Flags: MW
HStem: 378 312<133 213 133 213 125 213>
VStem: 125 88<378 593 593 593>
LayerCount: 2
Back
Fore
SplineSet
28 617 m 1
 133 690 l 1
 213 690 l 1
 213 378 l 1
 125 378 l 1
 125 593 l 1
 69 555 l 1
 28 617 l 1
EndSplineSet
Substitution2: "'frac' Diagonal Fractions in Latin lookup 1 subtable" onesuperior
EndChar
StartChar: one.pnum
Encoding: 65541 -1 195
Width: 373
Flags: MW
HStem: 0 21G<199 310 199 199> 480 20G<206 310 310 310>
VStem: 199 111<0 371 371 371>
LayerCount: 2
Back
Fore
SplineSet
14 377 m 1
 206 500 l 1
 310 500 l 1
 310 0 l 1
 199 0 l 1
 199 371 l 1
 66 288 l 1
 14 377 l 1
EndSplineSet
Substitution2: "'frac' Diagonal Fractions in Latin lookup 1 subtable" onesuperior
EndChar
StartChar: parenleft.cap
Encoding: 65555 -1 284
Width: 268
Flags: MW
HStem: -94 872<142 243 142 243>
VStem: 40 112<238 424 238 438.5>
LayerCount: 2
Back
Fore
SplineSet
142 778 m 1
 243 778 l 1
 243 778 152 517 152 331 c 0
 152 145 243 -94 243 -94 c 1
 142 -94 l 1
 142 -94 40 116 40 331 c 0
 40 546 142 778 142 778 c 1
EndSplineSet
Position2: "'cpsp' Capital Spacing in Latin lookup 0 subtable" dx=5 dy=0 dh=10 dv=0
EndChar
StartChar: parenright.cap
Encoding: 65556 -1 285
Width: 269
Flags: MW
HStem: -88 872<26 127 26 127>
VStem: 117 112<266 452>
LayerCount: 2
Back
Fore
SplineSet
127 -88 m 1
 26 -88 l 1
 26 -88 117 173 117 359 c 0
 117 545 26 784 26 784 c 1
 127 784 l 1
 127 784 229 574 229 359 c 0
 229 144 127 -88 127 -88 c 1
EndSplineSet
Position2: "'cpsp' Capital Spacing in Latin lookup 0 subtable" dx=5 dy=0 dh=10 dv=0
EndChar
StartChar: periodcentered.cap
Encoding: 65553 -1 272
Width: 221
Flags: MW
HStem: 261 146<55 166 55 166>
VStem: 55 111<261 407 261 407>
LayerCount: 2
Back
Fore
SplineSet
55 261 m 1
 55 407 l 1
 166 407 l 1
 166 261 l 1
 55 261 l 1
EndSplineSet
Position2: "'cpsp' Capital Spacing in Latin lookup 0 subtable" dx=5 dy=0 dh=10 dv=0
EndChar
StartChar: questiondown.cap
Encoding: 65550 -1 267
Width: 406
Flags: MW
HStem: -3 97<200.5 250.5> 548 145<179 291 179 291>
VStem: 24 115<141.5 192.5 141.5 208> 179 112<403 490 403 490 548 693>
LayerCount: 2
Back
Fore
SplineSet
24 173 m 0
 24 243 54 283 131 364 c 0
 162 398 179 421 179 451 c 2
 179 490 l 1
 284 490 l 1
 284 490 291 459 291 430 c 0
 291 376 265 347 206 286 c 0
 157 234 139 212 139 173 c 0
 139 110 169 94 232 94 c 0
 283 94 373 111 373 111 c 1
 384 26 l 1
 384 26 281 -3 220 -3 c 0
 87 -3 24 43 24 173 c 0
291 693 m 1
 291 548 l 1
 179 548 l 1
 179 693 l 1
 291 693 l 1
EndSplineSet
EndChar
StartChar: ring.cap
Encoding: 65567 -1 296
Width: 328
Flags: MW
HStem: 634 71<135 165.5 135 184> 782 71<135 165.5>
VStem: 30 71<730.5 755 730.5 781> 199 71<730.5 755>
LayerCount: 2
Back
Fore
SplineSet
270 743 m 0
 270 667 218 634 150 634 c 0
 78 634 30 667 30 743 c 0
 30 819 78 853 150 853 c 0
 218 853 270 818 270 743 c 0
101 743 m 0
 101 718 120 705 150 705 c 0
 181 705 199 718 199 743 c 0
 199 767 181 782 150 782 c 0
 120 782 101 767 101 743 c 0
EndSplineSet
EndChar
StartChar: seven.dnom
Encoding: 65589 -1 439
Width: 280
Flags: MW
HStem: 125 87<31 249 31 147>
VStem: 147 102<121 125 125 125>
LayerCount: 2
Back
Fore
SplineSet
31 125 m 1
 31 212 l 1
 249 212 l 1
 249 121 l 1
 150 -109 l 1
 50 -93 l 1
 147 109 l 1
 147 125 l 1
 31 125 l 1
EndSplineSet
Substitution2: "'frac' Diagonal Fractions in Latin lookup 1 subtable" sevensuperior
EndChar
StartChar: seven.numr
Encoding: 65577 -1 377
Width: 280
Flags: MW
HStem: 603 87<35 253 35 151>
VStem: 151 102<599 603 603 603>
LayerCount: 2
Back
Fore
SplineSet
35 603 m 1
 35 690 l 1
 253 690 l 1
 253 599 l 1
 154 369 l 1
 54 385 l 1
 151 587 l 1
 151 603 l 1
 35 603 l 1
EndSplineSet
Substitution2: "'frac' Diagonal Fractions in Latin lookup 1 subtable" sevensuperior
EndChar
StartChar: seven.pnum
Encoding: 65547 -1 201
Width: 436
Flags: MW
HStem: 396 105<28 409 28 295>
VStem: 295 114<372 396 396 396>
LayerCount: 2
Back
Fore
SplineSet
28 396 m 1
 28 501 l 1
 409 501 l 1
 409 371 l 1
 196 -21 l 1
 95 19 l 1
 295 372 l 1
 295 396 l 1
 28 396 l 1
EndSplineSet
Substitution2: "'frac' Diagonal Fractions in Latin lookup 1 subtable" sevensuperior
EndChar
StartChar: six.dnom
Encoding: 65588 -1 438
Width: 280
Flags: MW
HStem: -110 76<128 149 128 175.5> 35 72<146.5 149.5> 145 77<135.5 167 100 167.5>
VStem: 17 90<6 23 99 104.5> 169 89<-8.5 13.5>
LayerCount: 2
Back
Fore
SplineSet
247 211 m 1
 242 139 l 1
 242 139 183 145 152 145 c 0
 119 145 107 128 107 99 c 1
 119 102 139 107 154 107 c 0
 227 107 258 71 258 3 c 0
 258 -69 209 -110 142 -110 c 0
 55 -110 17 -56 17 47 c 0
 17 162 51 222 149 222 c 0
 185 222 247 211 247 211 c 1
140 35 m 0
 125 35 112 26 107 23 c 1
 107 -11 117 -34 139 -34 c 0
 159 -34 169 -19 169 2 c 0
 169 25 159 35 140 35 c 0
EndSplineSet
Substitution2: "'frac' Diagonal Fractions in Latin lookup 1 subtable" sixsuperior
EndChar
StartChar: six.numr
Encoding: 65576 -1 376
Width: 280
Flags: MW
HStem: 368 76<130 151 130 177.5> 513 72<148.5 151.5> 623 77<137.5 169 102 169.5> 689 21G<249 249>
VStem: 19 90<484 501 577 582.5> 171 89<469.5 491.5>
LayerCount: 2
Back
Fore
SplineSet
249 689 m 1xdc
 244 617 l 1
 244 617 185 623 154 623 c 0
 121 623 109 606 109 577 c 1
 121 580 141 585 156 585 c 0
 229 585 260 549 260 481 c 0
 260 409 211 368 144 368 c 0
 57 368 19 422 19 525 c 0
 19 640 53 700 151 700 c 0xec
 187 700 249 689 249 689 c 1xdc
142 513 m 0
 127 513 114 504 109 501 c 1
 109 467 119 444 141 444 c 0
 161 444 171 459 171 480 c 0
 171 503 161 513 142 513 c 0
EndSplineSet
Substitution2: "'frac' Diagonal Fractions in Latin lookup 1 subtable" sixsuperior
EndChar
StartChar: six.pnum
Encoding: 65546 -1 200
Width: 524
Flags: MW
HStem: -10 93<238.5 302 238.5 338> 227 90<255.5 306.5> 408 103<244.5 325 201.5 326.5> 491 20
VStem: 41 111 378 111<130.5 183>
LayerCount: 2
Back
Fore
SplineSet
466 491 m 1xdc
 456 393 l 1
 456 393 364 408 289 408 c 0
 200 408 153 380 152 286 c 1
 181 300 227 317 284 317 c 0
 417 317 489 268 489 157 c 0
 489 56 407 -10 269 -10 c 0
 115 -10 41 86 41 235 c 0
 41 409 114 511 289 511 c 0xec
 361 511 466 491 466 491 c 1xdc
274 227 m 0
 212 227 151 199 151 199 c 1
 151 186 152 174 155 164 c 0
 168 113 208 83 269 83 c 0
 335 83 378 104 378 157 c 0
 378 209 339 227 274 227 c 0
EndSplineSet
Substitution2: "'frac' Diagonal Fractions in Latin lookup 1 subtable" sixsuperior
EndChar
StartChar: three.dnom
Encoding: 65585 -1 435
Width: 280
Flags: MW
HStem: -110 79<116.5 138.5 106.5 176> 22 72<62 127 127 128 62 127> 143 79<112.5 131.5>
VStem: 155 92<115.5 128.5> 163 91<-13 6>
LayerCount: 2
Back
Fore
SplineSet
27 213 m 1xe8
 27 213 92 222 133 222 c 0
 209 222 247 196 247 136 c 0xf0
 247 95 227 72 213 64 c 1
 239 54 254 36 254 -11 c 0
 254 -79 211 -110 141 -110 c 0
 92 -110 23 -102 23 -102 c 1
 29 -25 l 1
 29 -25 88 -31 125 -31 c 0
 152 -31 163 -22 163 -4 c 0
 163 16 150 22 128 22 c 2xe8
 62 22 l 1
 62 94 l 1
 127 94 l 2
 142 94 155 104 155 120 c 0
 155 137 143 143 120 143 c 0xf0
 80 143 33 137 33 137 c 1
 27 213 l 1xe8
EndSplineSet
Substitution2: "'frac' Diagonal Fractions in Latin lookup 1 subtable" threesuperior
EndChar
StartChar: three.pnum
Encoding: 65543 -1 197
Width: 484
Flags: MW
HStem: -9 21G<196 309.5> -9 104<196 263 195 309.5> 206 97<110 237 110 237> 406 104<192 259.5>
VStem: 321 109<344.5 376.5> 334 109<129.5 172.5>
LayerCount: 2
Back
Fore
SplineSet
46 487 m 1x74
 46 487 151 510 230 510 c 0
 372 510 430 456 430 372 c 0x78
 430 317 389 277 350 268 c 1
 402 256 443 214 443 154 c 0
 443 55 378 -9 241 -9 c 0x74
 151 -9 38 13 38 13 c 1xb4
 49 108 l 1
 49 108 160 95 230 95 c 0
 296 95 334 108 334 151 c 0
 334 194 292 205 237 206 c 2x74
 110 206 l 1
 110 303 l 1
 237 303 l 2
 282 303 321 312 321 356 c 0
 321 397 289 406 230 406 c 0x78
 154 406 56 392 56 392 c 1
 46 487 l 1x74
EndSplineSet
Substitution2: "'frac' Diagonal Fractions in Latin lookup 1 subtable" threesuperior
EndChar
StartChar: tilde.cap
Encoding: 65563 -1 292
Width: 446
Flags: MW
HStem: 792 96<282.5 307.5 282.5 318> 840 96<127 157.5>
VStem: 44 348<854 873>
LayerCount: 2
Back
Fore
SplineSet
371 929 m 1xa0
 392 854 l 1
 392 854 339 792 297 792 c 0xa0
 250 792 175 840 140 840 c 0
 114 840 64 798 64 798 c 1
 44 873 l 1
 44 873 97 936 141 936 c 0x60
 195 936 269 888 296 888 c 0
 319 888 371 929 371 929 c 1xa0
EndSplineSet
EndChar
StartChar: two.dnom
Encoding: 65584 -1 434
Width: 280
Flags: MW
HStem: -100 79<145 253 145 253> 138 84<123 130>
VStem: 31 222<-100 -25 -25 -25> 159 92<103.5 123>
LayerCount: 2
Back
Fore
SplineSet
253 -100 m 1xa0
 31 -100 l 1
 31 -25 l 1xa0
 111 46 l 2
 143 74 159 93 159 114 c 0
 159 132 143 138 117 138 c 0
 91 138 37 131 37 131 c 1
 33 212 l 1
 33 212 101 222 145 222 c 0
 222 222 251 194 251 126 c 0
 251 81 232 53 193 21 c 2xd0
 145 -21 l 1
 253 -21 l 1
 253 -100 l 1xa0
EndSplineSet
Substitution2: "'frac' Diagonal Fractions in Latin lookup 1 subtable" twosuperior
EndChar
StartChar: two.numr
Encoding: 65572 -1 372
Width: 280
Flags: MW
HStem: 378 79<142 250 142 250> 616 84<120 127> 690 21G<30 30>
VStem: 28 222<378 453 453 453> 156 92<581.5 601>
LayerCount: 2
Back
Fore
SplineSet
250 378 m 1xb0
 28 378 l 1
 28 453 l 1xb0
 108 524 l 2
 140 552 156 571 156 592 c 0
 156 610 140 616 114 616 c 0
 88 616 34 609 34 609 c 1xc8
 30 690 l 1xa8
 30 690 98 700 142 700 c 0
 219 700 248 672 248 604 c 0
 248 559 229 531 190 499 c 2xc8
 142 457 l 1
 250 457 l 1
 250 378 l 1xb0
EndSplineSet
Substitution2: "'frac' Diagonal Fractions in Latin lookup 1 subtable" twosuperior
EndChar
StartChar: two.pnum
Encoding: 65542 -1 196
Width: 479
Flags: MW
HStem: 0 104<215 442 215 442> 404 105<187 240.5>
VStem: 296 125<332.5 370>
LayerCount: 2
Back
Fore
SplineSet
442 0 m 1
 44 0 l 1
 44 99 l 1
 161 199 l 2
 226 253 296 315 296 350 c 0
 296 390 277 404 204 404 c 0
 139 404 51 388 51 387 c 2
 44 484 l 1
 44 484 143 509 231 509 c 0
 381 509 421 436 421 357 c 0
 421 285 382 242 326 196 c 2
 215 104 l 1
 442 104 l 1
 442 0 l 1
EndSplineSet
Substitution2: "'frac' Diagonal Fractions in Latin lookup 1 subtable" twosuperior
EndChar
StartChar: zero.dnom
Encoding: 65582 -1 432
Width: 280
Flags: MW
HStem: -110 79<129 151.5 129 157.5> 143 79<128.5 152>
VStem: 15 91<18 91> 174 91<18.5 91>
LayerCount: 2
Back
Fore
SplineSet
140 222 m 0
 221 222 265 181 265 55 c 0
 265 -18 250 -61 223 -85 c 0
 203 -103 175 -110 140 -110 c 0
 60 -110 15 -73 15 55 c 0
 15 127 30 172 57 196 c 0
 78 215 106 222 140 222 c 0
140 143 m 0
 117 143 106 128 106 55 c 0
 106 -19 118 -31 140 -31 c 0
 163 -31 174 -19 174 55 c 0
 174 127 164 143 140 143 c 0
EndSplineSet
Substitution2: "'frac' Diagonal Fractions in Latin lookup 1 subtable" zerosuperior
EndChar
StartChar: zero.numr
Encoding: 65570 -1 370
Width: 280
Flags: MW
HStem: 368 79<129 151.5 129 157.5> 621 79<128.5 152>
VStem: 15 91<496 569> 174 91<496.5 569>
LayerCount: 2
Back
Fore
SplineSet
140 700 m 0
 221 700 265 659 265 533 c 0
 265 460 250 417 223 393 c 0
 203 375 175 368 140 368 c 0
 60 368 15 405 15 533 c 0
 15 605 30 650 57 674 c 0
 78 693 106 700 140 700 c 0
140 621 m 0
 117 621 106 606 106 533 c 0
 106 459 118 447 140 447 c 0
 163 447 174 459 174 533 c 0
 174 605 164 621 140 621 c 0
EndSplineSet
Substitution2: "'frac' Diagonal Fractions in Latin lookup 1 subtable" zerosuperior
EndChar
StartChar: zero.pnum
Encoding: 65540 -1 194
Width: 551
Flags: MW
HStem: -9 102<236.5 295> 407 102<256 316.5>
VStem: 41 118<192.5 299 192.5 315.5> 392 118<193 299>
LayerCount: 2
Back
Fore
SplineSet
274 509 m 0
 402 509 510 460 510 245 c 0
 510 117 459 47 391 15 c 0
 356 -2 315 -9 275 -9 c 0
 166 -9 41 49 41 245 c 0
 41 386 96 458 169 489 c 0
 202 503 238 509 274 509 c 0
276 407 m 0
 197 407 159 353 159 245 c 0
 159 140 197 93 276 93 c 0
 357 93 392 141 392 245 c 0
 392 353 357 407 276 407 c 0
EndSplineSet
Substitution2: "'frac' Diagonal Fractions in Latin lookup 1 subtable" zerosuperior
EndChar
StartChar: zero.slash
Encoding: 65580 -1 411
Width: 504
Flags: MW
HStem: -11 103<243 312.5 243 354> 569 102<208.5 261>
VStem: 6 120<301 417 301 456.5> 378 119<273 360.5>
LayerCount: 2
Back
Fore
SplineSet
252 671 m 0
 283 671 312 667 339 659 c 1
 395 799 l 1
 472 772 l 1
 410 619 l 1
 465 569 497 477 497 324 c 0
 497 158 456 -11 252 -11 c 0
 217 -11 187 -6 161 2 c 1
 111 -121 l 1
 37 -96 l 1
 92 42 l 1
 25 102 6 208 6 323 c 0
 6 590 103 671 252 671 c 0
378 323 m 0
 378 398 371 453 358 491 c 1
 201 102 l 1
 216 96 233 92 253 92 c 0
 372 92 378 223 378 323 c 0
252 569 m 0
 165 569 126 511 126 323 c 0
 126 279 126 219 144 171 c 1
 300 561 l 1
 286 566 270 569 252 569 c 0
EndSplineSet
EndChar
